<svg width="682" height="528" viewBox="0 0 682 528" fill="none" xmlns="http://www.w3.org/2000/svg">
<g clip-path="url(#clip0_5_371)">
<path opacity="0.1" d="M226.737 527.703C259.95 527.703 286.874 522.977 286.874 517.146C286.874 511.316 259.95 506.59 226.737 506.59C193.524 506.59 166.599 511.316 166.599 517.146C166.599 522.977 193.524 527.703 226.737 527.703Z" fill="#6C63FF"/>
<path opacity="0.1" d="M553.634 528C595.079 528 628.676 523.274 628.676 517.443C628.676 511.613 595.079 506.887 553.634 506.887C512.19 506.887 478.592 511.613 478.592 517.443C478.592 523.274 512.19 528 553.634 528Z" fill="#6C63FF"/>
<path opacity="0.1" d="M8.54165 228.134H71.1785V321.445H13.1272C12.973 322.403 12.8248 323.367 12.6644 324.332H71.1785V399.585C71.0735 399.552 70.981 399.511 70.8822 399.471C69.2282 398.756 67.5865 398 65.9448 397.191L64.8956 396.671C63.2499 395.821 61.6041 394.922 59.9583 393.973C59.3843 393.642 58.8103 393.298 58.2425 392.948C49.1058 387.354 40.8056 380.265 33.6297 371.929C33.4199 371.706 33.2224 371.47 33.0125 371.254C32.0127 370.067 31.0314 368.866 30.081 367.638L29.0318 366.289C27.9085 364.785 26.8223 363.24 25.7669 361.675C25.6126 361.446 25.4645 361.217 25.304 361.001C21.0119 354.496 17.4481 347.453 14.6887 340.022C14.6023 339.8 14.5282 339.557 14.448 339.348C13.6004 336.964 12.8495 334.558 12.1953 332.13C11.9114 331.111 11.6399 330.106 11.4053 329.047C11.3189 328.737 11.2449 328.433 11.177 328.13C7.67144 313.175 7.25793 297.64 7.25793 282.213C7.25793 280.412 7.25793 278.604 7.25793 276.817C7.25793 270.577 7.32582 264.297 7.42457 258.023C7.42457 256.398 7.48629 254.779 7.51715 253.146C7.60355 249.005 7.72699 244.863 7.88745 240.721C7.92448 239.568 7.97385 238.421 8.0294 237.274C8.0294 236.613 8.06026 235.952 8.12198 235.291C8.2701 232.89 8.39353 230.508 8.54165 228.134Z" fill="#6C63FF"/>
<path opacity="0.1" d="M71.1785 124.239H36.8206C42.4056 114.685 48.508 105.503 55.095 96.7445C60.199 89.891 65.587 83.2129 71.1785 76.7777V124.239Z" fill="#6C63FF"/>
<path opacity="0.1" d="M71.1785 127.126V225.247H8.73914C8.73914 224.964 8.78234 224.674 8.80085 224.39C8.8564 223.614 8.91194 222.839 8.97366 222.07C9.04155 221.166 9.11561 220.255 9.19584 219.372C9.27607 218.488 9.36248 217.409 9.45506 216.43C9.54763 215.452 9.63403 214.461 9.73895 213.483C9.84387 212.505 9.93645 211.526 10.0475 210.555C10.1586 209.584 10.2574 208.599 10.3746 207.628C10.4672 206.818 10.566 206.015 10.6647 205.206C10.8067 204.066 10.9548 202.919 11.1152 201.786C11.1152 201.617 11.1585 201.442 11.1831 201.28C12.3096 192.984 13.8445 184.761 15.7811 176.645C17.8082 168.132 20.3968 159.791 23.5266 151.687C26.8529 143.209 30.7476 135.011 35.1788 127.16L71.1785 127.126Z" fill="#6C63FF"/>
<path opacity="0.1" d="M86.1326 228.127V321.445H219.917V228.127H86.1326ZM86.1326 324.325V404.462C86.8979 404.638 87.657 404.806 88.4099 404.948C89.4344 405.164 90.4528 405.359 91.4958 405.528C91.6933 405.562 91.897 405.595 92.113 405.616C92.5203 405.69 92.94 405.751 93.3473 405.811C94.378 405.966 95.4025 406.095 96.4332 406.196C96.9207 406.25 97.4145 406.297 97.9082 406.337L99.0994 406.439C99.7474 406.493 100.389 406.533 101.025 406.553C101.42 406.553 101.815 406.594 102.222 406.607C102.531 406.607 102.839 406.607 103.16 406.607C103.481 406.607 103.938 406.607 104.327 406.607C104.858 406.607 105.388 406.607 105.913 406.607H106.623C107.153 406.607 107.684 406.607 108.209 406.553H108.246C108.61 406.553 108.98 406.553 109.351 406.499C109.453 406.506 109.556 406.506 109.659 406.499C109.968 406.499 110.276 406.499 110.573 406.452H110.789L112.856 406.277C113.535 406.209 114.22 406.122 114.911 406.041L116.318 405.859C122.043 404.982 127.704 403.665 133.26 401.919C145.739 398.115 157.947 392.792 170.42 388.894C186.546 383.868 204.364 381.399 219.948 387.544V324.325H86.1326ZM219.917 124.239V0.00666753C205.27 -0.166776 190.662 1.70565 176.45 5.57848C142.573 14.8806 112.177 35.0565 86.1326 60.8244V124.232H92.8474V127.113H86.1326V225.247H219.917V127.12H120.416V124.239H219.917ZM391.756 82.2752C383.375 81.9514 375.043 79.0508 367.508 74.5718C353.097 66.005 341.586 52.777 328.724 41.6131C302.001 18.3613 268.859 4.33056 234.859 0.849859V124.239H425.843L426.318 123.693L391.756 82.2752ZM409.154 78.9025L427.602 101.028V73.1013C421.424 73.9377 416.011 75.9277 409.179 78.8755L409.154 78.9025ZM427.602 424.362V324.325H388.294C388.189 323.9 388.084 323.469 387.961 323.037C388.078 323.469 388.177 323.9 388.288 324.325H234.883V396.671C236.34 397.852 237.778 399.093 239.204 400.354C240.74 401.703 242.259 403.127 243.783 404.523L245.32 405.913C246.054 406.587 246.795 407.262 247.542 407.896C249.023 409.209 250.518 410.504 252.028 411.781C252.775 412.456 253.541 413.063 254.3 413.697C266.351 423.768 279.064 432.856 292.336 440.888C295.311 442.687 298.312 444.443 301.341 446.156C303.359 447.283 305.389 448.403 307.426 449.489C310.487 451.121 313.573 452.695 316.683 454.211C345.361 468.281 375.686 477.936 406.791 482.899C413.699 484.015 420.634 484.891 427.595 485.53V424.355H428.213L427.602 424.362ZM234.883 127.12V225.247H427.626V127.12H234.883ZM234.883 228.127V321.445H427.626V228.127H234.883ZM442.587 72.9799V104.131L466.132 75.8939C458.331 74.5179 450.482 73.5353 442.587 72.9461V72.9799ZM442.587 228.161V321.445H630.053V228.127L442.587 228.161ZM629.368 431.768L630.028 324.325H442.587V486.603C454.662 487.157 466.755 486.999 478.815 486.13H479.024C484.785 485.735 490.518 485.159 496.225 484.404H496.355C526.8 480.531 556.57 471.849 584.734 458.629M666.2 243.493C665.497 241.679 664.762 239.878 664.016 238.097C662.621 234.724 661.146 231.446 659.628 228.168H645V321.445H681.981C681.963 295.029 675.847 268.047 666.219 243.46L666.2 243.493ZM645 324.359V416.773C655.418 405.859 664.219 393.373 670.558 379.099C678.18 361.911 681.667 343.3 681.951 324.345L645 324.359ZM645 200.97V225.254H658.257C654.247 216.894 649.828 208.776 645.019 200.936L645 200.97ZM517.863 91.2873C516.888 90.8825 515.913 90.471 514.931 90.0731C504.582 85.8957 494.006 82.4219 483.264 79.6714L447.234 122.89L446.543 123.693L447.005 124.246H575.242C557.382 110.809 538.127 99.7344 517.882 91.2535L517.863 91.2873ZM579 127.153H445.216L442.587 129.784V225.247H465.632H465.669H630.077V179.006C615.205 159.347 598.039 141.903 579.019 127.12L579 127.153Z" fill="#6C63FF"/>
<path opacity="0.1" d="M71.1785 176.618V225.247H8.73914C8.73914 224.964 8.78234 224.674 8.80085 224.39C8.8564 223.614 8.91194 222.839 8.97366 222.07C9.04155 221.166 9.11561 220.255 9.19584 219.372C9.27607 218.488 9.36248 217.409 9.45506 216.43C9.54763 215.452 9.63403 214.461 9.73895 213.483C9.84387 212.505 9.93645 211.526 10.0475 210.555C10.1586 209.584 10.2574 208.599 10.3746 207.628C10.4672 206.818 10.566 206.015 10.6647 205.206C10.8067 204.066 10.9548 202.919 11.1152 201.786C11.1152 201.617 11.1585 201.442 11.1831 201.28C12.3096 192.984 13.8445 184.761 15.7811 176.645L71.1785 176.618Z" fill="#6C63FF"/>
<path opacity="0.1" d="M8.54165 228.134H71.1785V321.445H13.1272C12.973 322.403 12.8248 323.367 12.6644 324.332H71.1785V399.585C71.0735 399.552 70.981 399.511 70.8822 399.471C69.2282 398.756 67.5865 398 65.9448 397.191L64.8956 396.671C63.2499 395.821 61.6041 394.922 59.9583 393.973C59.3843 393.642 58.8103 393.298 58.2425 392.948C49.1058 387.354 40.8056 380.265 33.6297 371.929C33.4199 371.706 33.2224 371.47 33.0125 371.254C32.0127 370.067 31.0314 368.866 30.081 367.638L29.0318 366.289C27.9085 364.785 26.8223 363.24 25.7669 361.675C25.6126 361.446 25.4645 361.217 25.304 361.001C21.0119 354.496 17.4481 347.453 14.6887 340.022C14.6023 339.8 14.5282 339.557 14.448 339.348C13.6004 336.964 12.8495 334.558 12.1953 332.13C11.9114 331.111 11.6399 330.106 11.4053 329.047C11.3189 328.737 11.2449 328.433 11.177 328.13C7.67144 313.175 7.25793 297.64 7.25793 282.213C7.25793 280.412 7.25793 278.604 7.25793 276.817C7.25793 270.577 7.32582 264.297 7.42457 258.023C7.42457 256.398 7.48629 254.779 7.51715 253.146C7.60355 249.005 7.72699 244.863 7.88745 240.721C7.92448 239.568 7.97385 238.421 8.0294 237.274C8.0294 236.613 8.06026 235.952 8.12198 235.291C8.2701 232.89 8.39353 230.508 8.54165 228.134Z" fill="#6C63FF"/>
<path opacity="0.1" d="M133.229 141.171V225.247H86.1326V141.171H92.8474V112.704H120.41V141.171H133.229Z" fill="#6C63FF"/>
<path opacity="0.1" d="M133.229 228.127H86.1387V321.438H133.229V228.127Z" fill="#6C63FF"/>
<path opacity="0.1" d="M86.1326 324.332H133.229V401.906C127.673 403.65 122.012 404.965 116.288 405.838L114.88 406.027C114.189 406.115 113.504 406.189 112.825 406.263C112.146 406.338 111.443 406.392 110.758 406.439H110.542C110.245 406.439 109.925 406.479 109.634 406.486H109.32C108.949 406.486 108.579 406.526 108.209 406.54C107.684 406.574 107.16 406.58 106.623 406.587C106.394 406.587 106.178 406.587 105.95 406.587C105.419 406.587 104.895 406.587 104.364 406.587H103.197C102.883 406.587 102.58 406.587 102.253 406.587L101.062 406.54C100.445 406.54 99.7782 406.466 99.1364 406.419L97.9514 406.324L96.4764 406.176C95.4395 406.075 94.4088 405.946 93.3905 405.791L92.1562 405.602L91.539 405.508C90.5083 405.332 89.49 405.144 88.4531 404.928C87.694 404.786 86.9411 404.611 86.1758 404.442L86.1326 324.332Z" fill="#6C63FF"/>
<path opacity="0.1" d="M427.626 131.241H388.794V225.24H427.626V131.241Z" fill="#6C63FF"/>
<path opacity="0.1" d="M427.632 228.127V321.445H234.883V281.194H337.55V304.939H388.794V228.127H427.632Z" fill="#6C63FF"/>
<path opacity="0.1" d="M428.243 424.382H427.626V485.598C420.673 484.954 413.74 484.08 406.828 482.974C375.707 477.994 345.37 468.318 316.683 454.224C308.401 450.15 300.287 445.702 292.342 440.881C279.071 432.845 266.356 423.757 254.3 413.69C251.271 411.154 248.282 408.559 245.332 405.906C243.289 404.064 241.259 402.176 239.204 400.341C237.778 399.079 236.34 397.838 234.883 396.651V324.332H388.282C388.177 323.9 388.072 323.469 387.961 323.044C388.078 323.469 388.189 323.9 388.294 324.332H427.626V424.341C427.836 424.348 428.04 424.368 428.243 424.382Z" fill="#6C63FF"/>
<path opacity="0.1" d="M528.904 124.239H503.6V115.645H514.944V90.0461C515.927 90.4374 516.906 90.8399 517.881 91.2536V115.645H528.904V124.239Z" fill="#6C63FF"/>
<path opacity="0.1" d="M589.868 225.247H465.644C465.644 225.247 465.644 225.247 465.687 225.281L465.632 225.247H442.586V131.248H449.116V200.727H478.956V159.579H503.606V127.126H528.91V159.606H553.56V200.754H589.868V225.247Z" fill="#6C63FF"/>
<path opacity="0.1" d="M442.586 228.127V321.445H589.868V228.127H442.586ZM629.849 431.289L630.052 357.426H589.868V324.373H442.586V486.603C454.661 487.157 466.755 486.999 478.814 486.13H479.024C484.785 485.735 490.518 485.159 496.225 484.404H496.354C526.8 480.531 556.57 471.849 584.734 458.629" fill="#6C63FF"/>
<path opacity="0.1" d="M647.617 324.332H681.975C681.673 343.28 678.192 361.891 670.576 379.079C664.238 393.359 655.431 405.845 645.025 416.753V357.392H647.617V324.332Z" fill="#6C63FF"/>
<path opacity="0.1" d="M681.994 321.445H647.617V243.46H666.219C675.847 268.047 681.963 295.029 681.994 321.445Z" fill="#6C63FF"/>
<path opacity="0.1" d="M427.632 157.373H406.828V186.845H427.632V157.373Z" fill="#6C63FF"/>
<path opacity="0.1" d="M427.632 218.461H406.828V225.247H427.632V218.461Z" fill="#6C63FF"/>
<path opacity="0.1" d="M427.632 228.127H406.828V247.925H427.632V228.127Z" fill="#6C63FF"/>
<path opacity="0.1" d="M427.632 279.548H406.828V309.02H427.632V279.548Z" fill="#6C63FF"/>
<path opacity="0.1" d="M427.632 340.636H406.828V370.107H427.632V340.636Z" fill="#6C63FF"/>
<path opacity="0.1" d="M427.626 424.341C427.836 424.341 428.04 424.341 428.243 424.382H427.626V431.229H406.828V401.724H427.626V424.341Z" fill="#6C63FF"/>
<path opacity="0.1" d="M427.626 462.798V485.564C420.673 484.921 413.74 484.046 406.828 482.94V462.798H427.626Z" fill="#6C63FF"/>
<path opacity="0.1" d="M324.046 319.28H234.883V321.445H324.046V319.28Z" fill="#6C63FF"/>
<path opacity="0.1" d="M324.046 324.325H234.883V332.622H324.046V324.325Z" fill="#6C63FF"/>
<path opacity="0.1" d="M324.046 359.82H234.883V373.163H324.046V359.82Z" fill="#6C63FF"/>
<path opacity="0.1" d="M324.04 400.361V413.704H254.3C251.271 411.176 248.28 408.582 245.326 405.919C243.283 404.078 241.259 402.189 239.197 400.361H324.04Z" fill="#6C63FF"/>
<path opacity="0.1" d="M324.04 440.895V454.224H316.677C308.403 450.145 300.291 445.696 292.342 440.875L324.04 440.895Z" fill="#6C63FF"/>
<path opacity="0.1" d="M496.373 237.173H478.821V256.357H496.373V237.173Z" fill="#6C63FF"/>
<path opacity="0.1" d="M116.331 147.788H98.7784V166.972H116.331V147.788Z" fill="#6C63FF"/>
<path opacity="0.1" d="M116.331 192.349H98.7784V211.533H116.331V192.349Z" fill="#6C63FF"/>
<path opacity="0.1" d="M116.331 236.91H98.7784V256.094H116.331V236.91Z" fill="#6C63FF"/>
<path opacity="0.1" d="M116.331 281.464H98.7784V300.649H116.331V281.464Z" fill="#6C63FF"/>
<path opacity="0.1" d="M116.331 326.025H98.7784V345.21H116.331V326.025Z" fill="#6C63FF"/>
<path opacity="0.1" d="M116.331 370.586H98.7784V389.771H116.331V370.586Z" fill="#6C63FF"/>
<path opacity="0.1" d="M563.38 237.173H545.827V256.357H563.38V237.173Z" fill="#6C63FF"/>
<path opacity="0.1" d="M496.373 284.493H478.821V303.677H496.373V284.493Z" fill="#6C63FF"/>
<path opacity="0.1" d="M563.38 284.493H545.827V303.677H563.38V284.493Z" fill="#6C63FF"/>
<path opacity="0.1" d="M496.373 331.806H478.821V350.99H496.373V331.806Z" fill="#6C63FF"/>
<path opacity="0.1" d="M563.38 331.806H545.827V350.99H563.38V331.806Z" fill="#6C63FF"/>
<path opacity="0.1" d="M496.373 379.126H478.821V398.31H496.373V379.126Z" fill="#6C63FF"/>
<path opacity="0.1" d="M563.38 379.126H545.827V398.31H563.38V379.126Z" fill="#6C63FF"/>
<path opacity="0.1" d="M496.373 426.446H478.821V445.63H496.373V426.446Z" fill="#6C63FF"/>
<path opacity="0.1" d="M563.38 426.446H545.827V445.63H563.38V426.446Z" fill="#6C63FF"/>
<path opacity="0.1" d="M478.821 486.13V473.759H496.367V484.37L478.821 486.13Z" fill="#6C63FF"/>
<path opacity="0.1" d="M11.1091 201.267V212.242H71.1785V201.267H11.1091ZM17.0957 211.553H12.1954V201.941H17.1327L17.0957 211.553ZM23.0761 211.553H18.1387V201.941H23.0761V211.553ZM29.0442 211.553H24.1068V201.941H29.0442V211.553ZM35.0246 211.553H30.0933V201.941H35.0307L35.0246 211.553ZM40.9988 211.553H36.0614V201.941H40.9988V211.553ZM46.9792 211.553H42.0418V201.941H46.9792V211.553ZM52.9596 211.553H48.0222V201.941H52.9596V211.553ZM58.9338 211.553H53.9964V201.941H58.9338V211.553ZM64.908 211.553H59.9707V201.941H64.908V211.553ZM70.8823 211.553H65.9449V201.941H70.8823V211.553Z" fill="#6C63FF"/>
<path opacity="0.1" d="M11.1091 233.2V244.175H71.1785V233.2H11.1091ZM17.0957 243.48H12.1954V233.895H17.1327L17.0957 243.48ZM23.0761 243.48H18.1387V233.895H23.0761V243.48ZM29.0442 243.48H24.1068V233.895H29.0442V243.48ZM35.0246 243.48H30.0933V233.895H35.0307L35.0246 243.48ZM40.9988 243.48H36.0614V233.895H40.9988V243.48ZM46.9792 243.48H42.0418V233.895H46.9792V243.48ZM52.9596 243.48H48.0222V233.895H52.9596V243.48ZM58.9338 243.48H53.9964V233.895H58.9338V243.48ZM64.908 243.48H59.9707V233.895H64.908V243.48ZM70.8823 243.48H65.9449V233.895H70.8823V243.48Z" fill="#6C63FF"/>
<path opacity="0.1" d="M11.1091 265.147V276.142H71.1785V265.147H11.1091ZM17.0957 275.427H12.1954V265.835H17.1327L17.0957 275.427ZM23.0761 275.427H18.1387V265.835H23.0761V275.427ZM29.0442 275.427H24.1068V265.835H29.0442V275.427ZM35.0246 275.427H30.0933V265.835H35.0307L35.0246 275.427ZM40.9988 275.427H36.0614V265.835H40.9988V275.427ZM46.9792 275.427H42.0418V265.835H46.9792V275.427ZM52.9596 275.427H48.0222V265.835H52.9596V275.427ZM58.9338 275.427H53.9964V265.835H58.9338V275.427ZM64.908 275.427H59.9707V265.835H64.908V275.427ZM70.8823 275.427H65.9449V265.835H70.8823V275.427Z" fill="#6C63FF"/>
<path opacity="0.1" d="M11.1091 297.094V308.055H71.1785V297.094H11.1091ZM17.0957 307.374H12.1954V297.775H17.1327L17.0957 307.374ZM23.0761 307.374H18.1387V297.775H23.0761V307.374ZM29.0442 307.374H24.1068V297.775H29.0442V307.374ZM35.0246 307.374H30.0933V297.775H35.0307L35.0246 307.374ZM40.9988 307.374H36.0614V297.775H40.9988V307.374ZM46.9792 307.374H42.0418V297.775H46.9792V307.374ZM52.9596 307.374H48.0222V297.775H52.9596V307.374ZM58.9338 307.374H53.9964V297.775H58.9338V307.374ZM64.908 307.374H59.9707V297.775H64.908V307.374ZM70.8823 307.374H65.9449V297.775H70.8823V307.374Z" fill="#6C63FF"/>
<path opacity="0.1" d="M11.3683 329.034C11.609 330.066 11.8805 331.098 12.1644 332.116V329.722H17.1018V339.314H14.4603C14.5405 339.537 14.6208 339.779 14.701 339.988H71.1785V329.034H11.3683ZM23.0946 339.314H18.1572V329.722H23.0946V339.314ZM29.0626 339.314H24.1252V329.722H29.0626V339.314ZM35.043 339.314H30.0933V329.722H35.0307L35.043 339.314ZM41.0172 339.314H36.0799V329.722H41.0172V339.314ZM46.9976 339.314H42.0603V329.722H46.9976V339.314ZM52.978 339.314H48.0407V329.722H52.978V339.314ZM58.9523 339.314H54.0149V329.722H58.9523V339.314ZM64.9265 339.314H59.9891V329.722H64.9265V339.314ZM70.9007 339.314H65.9633V329.722H70.9007V339.314Z" fill="#6C63FF"/>
<path opacity="0.1" d="M25.3164 360.981C25.4707 361.196 25.6188 361.439 25.7793 361.655H29.0441V366.262C29.3959 366.721 29.7415 367.18 30.0995 367.611V361.628H35.0369V371.254H33.0372C33.2347 371.477 33.426 371.713 33.6544 371.929H71.197V360.981H25.3164ZM40.9988 371.254H36.0614V361.669H40.9988V371.254ZM46.9792 371.254H42.0418V361.669H46.9792V371.254ZM52.9596 371.254H48.0222V361.669H52.9596V371.254ZM58.9338 371.254H53.9964V361.669H58.9338V371.254ZM64.908 371.254H59.9706V361.669H64.908V371.254ZM70.8822 371.254H65.9449V361.669H70.8822V371.254Z" fill="#6C63FF"/>
<path opacity="0.1" d="M58.2672 392.921C58.8288 393.271 59.4028 393.595 59.9829 393.946V393.609H64.9203V396.644L65.9695 397.177V393.609H70.9069V399.444C71.0016 399.495 71.1009 399.536 71.2031 399.565V392.921H58.2672Z" fill="#6C63FF"/>
<path opacity="0.1" d="M387.961 323.037C388.078 323.469 388.177 323.9 388.288 324.325C388.189 323.9 388.084 323.469 387.961 323.037ZM92.8721 124.219V127.099H120.441V124.219H92.8721ZM387.961 323.037C388.078 323.469 388.177 323.9 388.288 324.325C388.189 323.9 388.084 323.469 387.961 323.037ZM387.961 323.037C388.078 323.469 388.177 323.9 388.288 324.325C388.189 323.9 388.084 323.469 387.961 323.037Z" fill="#6C63FF"/>
<path d="M284.887 256.108C284.887 256.108 282.455 255.737 282.455 251.865C282.455 247.993 280.715 240.762 280.715 240.762C280.715 240.728 279.209 228.168 277.129 226.171C275.049 224.174 272.377 212.451 272.377 212.451C272.377 212.451 271.92 206.09 270.988 204.72C270.056 203.351 268.797 199.998 266.939 195.216C265.082 190.433 257.336 187.121 257.336 187.121C257.336 187.121 243.332 178.244 239.364 175.35C239.003 175.112 238.666 174.834 238.358 174.52C237.667 173.529 234.655 173.509 234.655 173.509C234.34 171.337 234.038 168.841 233.939 166.581C233.939 166.338 233.939 166.095 233.908 165.852C238.333 162.994 241.666 158.486 243.295 153.157C243.37 152.901 243.431 152.631 243.499 152.375C243.764 152.279 244.008 152.125 244.215 151.92C244.423 151.716 244.589 151.466 244.703 151.188C245.061 150.317 245.067 149.299 245.511 148.489C246.03 147.532 247.017 147.019 247.795 146.297C249.757 144.476 250.263 141.407 250.171 138.614C250.109 136.354 249.776 134.074 249.905 131.828L249.942 131.261C249.979 130.924 250.023 130.587 250.078 130.263C250.381 128.59 251.041 127.012 251.411 125.352C251.782 123.693 251.819 121.824 250.955 120.394C249.689 118.296 247.054 117.878 244.74 117.662C242.117 117.42 239.771 117.737 238.093 115.355C237.307 114.111 236.423 112.944 235.451 111.868C235.106 111.517 231.748 109.278 231.748 109.129C228.471 107.47 224.757 107.159 221.287 108.252C219.547 108.805 217.905 109.709 216.14 110.161C212.332 111.146 207.95 110.08 204.716 112.462C202.914 113.811 201.834 115.956 200.822 118.047C199.999 119.769 199.164 121.489 198.316 123.207C196.952 126.034 195.563 128.907 194.989 132.037C194.869 132.718 194.794 133.408 194.767 134.101V134.135C194.767 134.385 194.767 134.634 194.767 134.884V135.201C194.767 135.437 194.767 135.666 194.804 135.875C194.841 136.084 194.835 136.152 194.854 136.294C194.872 136.435 194.903 136.752 194.94 136.968C194.977 137.184 195.051 137.562 195.125 137.858C195.156 137.987 195.199 138.108 195.236 138.229C195.298 138.459 195.372 138.681 195.452 138.904C195.495 139.019 195.539 139.14 195.588 139.255C195.681 139.491 195.792 139.72 195.903 139.929C195.952 140.024 195.989 140.111 196.039 140.199C196.211 140.513 196.4 140.815 196.606 141.103C197.927 142.904 199.871 144.051 201.309 145.737C201.309 145.805 201.309 145.872 201.309 145.933C201.309 146.122 201.309 146.304 201.309 146.493C201.385 150.254 202.301 153.937 203.977 157.223C205.653 160.509 208.038 163.298 210.925 165.347C210.925 165.603 210.956 165.866 210.968 166.122C211.088 168.125 211.066 170.134 210.9 172.133C210.649 171.809 210.334 171.551 209.98 171.379C209.625 171.206 209.239 171.122 208.851 171.134C208.586 171.12 208.32 171.145 208.061 171.208L208.006 171.161V171.222C206.648 171.586 204.975 173.131 203.377 177.522C203.377 177.522 198.513 183.512 194.81 183.263C191.107 183.013 181.733 189.496 181.733 189.496C181.733 189.496 172.586 195.985 170.623 202.595C169.526 206.344 168.211 210.012 166.686 213.577L155.379 239.042L153.293 259.244C153.293 259.244 154.447 268.229 154.219 269.599C153.991 270.968 158.965 283.319 158.965 283.319C158.965 283.319 175.4 314.882 182.115 316.5L182.597 316.129C182.884 316.293 183.189 316.418 183.504 316.5L184.886 315.435C184.969 316.623 184.934 317.817 184.781 318.996C183.856 322.113 185.127 342.451 186.744 346.437C188.361 350.424 187.787 402.695 187.787 402.695L187.559 407.309C187.559 407.309 187.559 407.457 187.614 407.714L187.559 408.806L187.725 408.901C187.898 410.364 187.842 411.849 187.559 413.292C186.978 415.316 186.744 421.036 186.744 421.036C186.744 421.036 182.121 453.334 184.312 459.823C186.503 466.312 188.367 473.422 188.367 473.422C188.367 473.422 190.682 481.516 188.478 482.899C186.275 484.282 180.011 486.603 181.3 489.975C182.473 493.092 186.923 501.443 187.583 502.664L187.528 503.305L186.621 514.05C186.767 515.469 187.119 516.853 187.664 518.152C188.657 520.492 190.589 522.921 194.261 522.658C194.878 522.61 195.594 522.529 196.285 522.428C203.006 521.443 211.283 518.165 211.283 518.165C210.853 517.867 210.459 517.511 210.11 517.106C209.78 516.756 209.518 516.337 209.341 515.873C209.164 515.409 209.075 514.91 209.079 514.408C209.178 512.451 205.827 503.129 204.994 500.836C204.864 500.505 204.796 500.316 204.796 500.316C204.796 500.316 212.437 491.588 211.165 483.85C211.165 483.85 202.71 478.454 205.494 475.493C208.277 472.531 213.251 464.025 213.251 464.025C213.251 464.025 213.48 432.22 213.251 427.471C213.013 424.175 213.156 420.859 213.677 417.603C213.77 417.11 213.881 416.631 213.998 416.159C217.848 416.787 221.734 417.109 225.626 417.124C227.045 417.124 228.489 417.124 229.946 417.029C229.946 417.479 229.965 417.965 230.002 418.486C230.322 426.365 230.921 440.18 231.409 445.313C232.1 452.673 235.92 472.504 235.92 472.504C235.92 472.504 228.631 477.618 237.192 490.218C237.192 490.218 237.192 494.785 236.624 495.446C236.018 497.607 235.529 499.805 235.161 502.03C234.803 504.404 234.655 506.805 235.235 508.053C236.624 511.035 244.956 510.792 244.956 510.792L245.159 510.752C246.732 510.574 248.322 510.739 249.836 511.238C251.35 511.738 252.758 512.56 253.979 513.659C257.145 516.438 269.161 515.217 275.666 514.334C278.215 513.983 279.918 513.659 279.918 513.659C280.001 513.344 280.03 513.014 280.005 512.688C279.937 510.941 278.684 507.109 270.192 503.689C270.192 503.689 262.206 497.82 262.317 492.707H262.15H261.224C261.897 492.667 262.329 492.707 262.329 492.707C262.329 492.707 259.2 480.228 260.478 479.216C261.755 478.204 257.929 464.376 257.929 464.376C257.929 464.376 255.738 441.171 255.62 439.546C255.625 438.151 255.819 436.764 256.194 435.431L255.62 422.709C255.62 422.709 255.509 418.479 255.62 417.103C255.602 415.909 255.513 414.717 255.355 413.535C255.299 413.063 255.244 412.57 255.182 412.085C258.175 411.255 260.12 410.486 260.12 410.486L259.774 366.202C262.317 360.805 262.786 348.967 262.773 340.569C262.773 335.172 262.551 331.179 262.551 331.179L266.026 324.98C266.026 324.98 266.828 317.56 265.557 315.934C264.995 315.199 265.248 314.436 265.711 313.809C265.952 313.601 266.205 313.411 266.47 313.242C266.47 313.242 266.433 313.182 266.39 313.094C266.633 312.872 266.891 312.672 267.161 312.494C267.161 312.494 265.927 310.402 267.032 309.519C268.069 310.288 268.994 310.868 269.698 311.34C269.649 311.833 269.599 312.116 269.599 312.116L269.896 311.441C270.574 311.86 270.988 312.116 270.988 312.116C270.988 312.116 276.431 300.264 276.314 298.517C276.197 296.77 280.017 289.41 280.017 289.41C280.017 289.41 280.48 285.545 282.566 283.926C284.652 282.307 284.183 270.577 284.183 270.577C284.183 270.577 284.763 264.465 286.152 261.97C287.541 259.474 284.887 256.108 284.887 256.108ZM180.733 250.907L180.838 253.733C180.22 252.647 179.776 251.865 179.776 251.865L180.733 250.907Z" fill="url(#paint0_linear_5_371)"/>
<path d="M271.284 306.996L269.951 313.202C269.951 313.202 259.274 307.246 257.348 299.677C255.423 292.109 260.57 289.235 260.57 289.235L270.519 293.842L271.284 306.996Z" fill="white"/>
<path opacity="0.1" d="M271.284 306.996L269.951 313.202C269.951 313.202 259.274 307.246 257.348 299.677C255.423 292.109 260.57 289.235 260.57 289.235L270.519 293.842L271.284 306.996Z" fill="black"/>
<path d="M211.363 518.206C211.363 518.206 201.488 522.172 194.699 522.671C191.095 522.934 189.2 520.519 188.225 518.192C187.692 516.898 187.349 515.521 187.207 514.111L188.089 503.419L188.558 497.726L202.982 493.632L205.025 500.458L205.216 500.977C206.037 503.257 209.326 512.533 209.227 514.468C209.223 514.964 209.311 515.456 209.485 515.914C209.659 516.371 209.916 516.786 210.24 517.133C210.571 517.541 210.948 517.902 211.363 518.206Z" fill="white"/>
<path d="M278.814 512.769C278.838 513.093 278.809 513.42 278.727 513.733C278.727 513.733 257.608 517.585 253.288 513.733C252.069 512.608 250.65 511.773 249.119 511.283C247.589 510.793 245.981 510.658 244.4 510.887C244.4 510.887 236.229 511.129 234.865 508.188C234.297 506.954 234.445 504.559 234.797 502.198C235.156 499.986 235.634 497.799 236.229 495.648L236.556 495.365L238.5 493.658L261.261 492.923H261.434C261.323 498.009 269.161 503.844 269.161 503.844C277.487 507.217 278.715 511.028 278.814 512.769Z" fill="white"/>
<path opacity="0.1" d="M278.814 512.769C278.835 513.094 278.804 513.42 278.721 513.733C278.721 513.733 257.608 517.585 253.288 513.733C252.07 512.609 250.651 511.775 249.122 511.285C247.593 510.794 245.987 510.659 244.406 510.887C244.406 510.887 236.229 511.129 234.871 508.188C234.303 506.947 234.445 504.559 234.797 502.198C237.945 502.542 242.913 503.399 244.863 505.443C247.813 508.553 252.812 511.656 255.88 511.898C258.28 512.067 272.642 512.566 278.814 512.769Z" fill="black"/>
<path opacity="0.1" d="M211.363 518.205C211.363 518.205 201.488 522.172 194.699 522.671C191.095 522.934 189.2 520.519 188.231 518.185C190.743 519.109 194.23 520.081 196.063 519.19C198.236 518.138 205.938 517.457 210.258 517.167C210.587 517.56 210.958 517.909 211.363 518.205Z" fill="black"/>
<path d="M226.015 198.568C217.868 195.108 207.388 183.674 210.005 178.332C210.586 176.984 210.932 175.528 211.023 174.042C211.192 172.023 211.217 169.993 211.098 167.971C210.914 164.658 210.549 161.36 210.005 158.095C210.005 158.095 235.439 158.722 233.958 162.817C233.526 164.018 233.458 166.102 233.575 168.436C233.692 170.77 234.001 173.407 234.322 175.64C234.766 178.703 235.21 181.037 235.21 181.037C235.21 181.037 233.655 183.418 232.742 183.546C231.828 183.674 237.704 203.499 226.015 198.568Z" fill="#CF6F80"/>
<path opacity="0.1" d="M205.197 500.977L205.006 501.207C197.403 491.156 188.207 503.682 188.207 503.682L188.071 503.419L188.54 497.726L202.963 493.632L205.006 500.458L205.197 500.977Z" fill="black"/>
<path opacity="0.1" d="M261.44 493.631C261.44 493.631 255.886 493.503 252.923 496.363C249.961 499.224 235.643 496.984 236.26 496.363C236.443 496.056 236.553 495.704 236.581 495.338L238.525 493.631L261.286 492.896C261.372 493.348 261.44 493.631 261.44 493.631Z" fill="black"/>
<path d="M214.659 414.702C214.245 415.82 213.931 416.979 213.721 418.162C213.206 421.404 213.063 424.703 213.295 427.984C213.523 432.706 213.295 464.349 213.295 464.349C213.295 464.349 208.413 472.788 205.691 475.763C202.969 478.737 211.246 484.08 211.246 484.08C212.48 491.77 205 500.458 205 500.458C197.396 490.407 188.201 502.94 188.201 502.94C188.201 502.94 183.201 493.497 181.955 490.124C180.708 486.751 186.837 484.417 188.99 483.048C191.144 481.678 188.886 473.604 188.886 473.604C188.886 473.604 187.065 466.528 184.905 460.072C182.745 453.617 187.287 421.481 187.287 421.481C187.287 421.481 187.522 415.775 188.083 413.785C188.367 412.349 188.423 410.87 188.25 409.414C188.213 408.921 188.17 408.51 188.139 408.233C188.108 407.956 188.083 407.828 188.083 407.828L188.17 407.666L191.256 401.38C191.256 401.38 216.14 410.742 214.659 414.702Z" fill="#6C63FF"/>
<path d="M261.44 492.889C261.44 492.889 255.886 492.761 252.923 495.588C249.961 498.414 235.643 496.208 236.26 495.588C236.877 494.967 236.828 490.373 236.828 490.373C228.428 477.84 235.593 472.754 235.593 472.754C235.593 472.754 231.841 453.023 231.162 445.704C230.687 440.591 230.1 426.851 229.786 419.006C229.65 415.633 229.57 413.312 229.57 413.312L236.433 411.801L237.315 411.606L253.868 407.977C253.868 407.977 254.324 411.349 254.633 414.108C254.787 415.286 254.873 416.474 254.892 417.663C254.781 419.012 254.892 423.235 254.892 423.235L255.454 435.896C255.087 437.225 254.898 438.604 254.892 439.991C255.003 441.603 257.157 464.686 257.157 464.686C257.157 464.686 260.903 478.461 259.626 479.452C258.348 480.444 261.44 492.889 261.44 492.889Z" fill="#6C63FF"/>
<path opacity="0.1" d="M233.958 162.817C233.526 164.018 233.458 166.102 233.575 168.436C230.168 170.678 226.252 171.825 222.276 171.743C218.3 171.662 214.425 170.357 211.098 167.977C210.914 164.662 210.55 161.362 210.005 158.095C210.005 158.095 235.439 158.709 233.958 162.817Z" fill="black"/>
<path d="M243.789 147.909C243.794 150.34 243.444 152.756 242.752 155.066C241.206 160.243 238.035 164.655 233.801 167.523C229.566 170.391 224.54 171.531 219.61 170.741C214.681 169.951 210.166 167.281 206.864 163.204C203.561 159.128 201.683 153.906 201.562 148.462C201.562 148.274 201.562 148.098 201.562 147.909C201.514 144.845 202.025 141.801 203.065 138.955C204.105 136.109 205.652 133.518 207.618 131.333C209.584 129.147 211.928 127.411 214.513 126.227C217.099 125.042 219.875 124.432 222.679 124.432C225.483 124.432 228.258 125.042 230.844 126.227C233.43 127.411 235.774 129.147 237.74 131.333C239.705 133.518 241.253 136.109 242.293 138.955C243.333 141.801 243.843 144.845 243.795 147.909H243.789Z" fill="#CF6F80"/>
<path opacity="0.1" d="M226.015 198.568C217.868 195.108 207.388 183.674 210.005 178.332C210.586 176.984 210.932 175.528 211.023 174.042L222.176 184.059L229.076 190.244L234.322 175.647C234.766 178.709 235.21 181.043 235.21 181.043C235.21 181.043 233.655 183.425 232.742 183.553C231.828 183.681 237.704 203.499 226.015 198.568Z" fill="black"/>
<path d="M254.855 242.839L245.542 413.839L233.396 414.709L201.945 315.556L207.105 197.84L208.191 172.969L222.176 185.522L229.082 191.708L234.482 176.686L244.524 186.251L254.855 242.839Z" fill="#6C63FF"/>
<path opacity="0.1" d="M214.659 414.702C214.245 415.82 213.931 416.979 213.721 418.162C204.883 416.671 196.299 413.74 188.256 409.467L188.089 409.373L188.145 408.287L188.176 407.72L191.262 401.434C191.262 401.434 216.14 410.742 214.659 414.702Z" fill="black"/>
<path opacity="0.1" d="M236.574 418.189C234.315 418.609 232.036 418.893 229.748 419.039C229.613 415.667 229.532 413.346 229.532 413.346L236.395 411.835L236.574 418.189Z" fill="black"/>
<path opacity="0.1" d="M254.596 414.142C250.208 415.39 243.431 416.793 237.364 415.916L237.278 411.64L253.831 408.01C253.831 408.01 254.287 411.349 254.596 414.142Z" fill="black"/>
<path opacity="0.1" d="M237.253 416.699C211.949 421.421 188.774 407.882 188.774 407.882L188.997 403.295C188.997 403.295 189.571 351.294 187.978 347.307C186.386 343.321 185.146 323.104 186.047 320.001C186.948 316.898 182.757 270.368 182.757 270.368L182.078 251.48L157.231 240.478L168.34 215.169C169.84 211.621 171.131 207.971 172.203 204.241C174.135 197.671 183.103 191.216 183.103 191.216C183.103 191.216 192.299 184.767 195.934 185.01C199.569 185.253 204.333 179.303 204.333 179.303C207.851 169.502 211.036 173.94 211.036 173.94C211.036 174.406 211.036 173.94 210.863 175.391C209.629 186.15 230.822 220.147 231.125 220.748L233.143 274.483L235.186 342.484L237.253 416.699Z" fill="black"/>
<path d="M236.574 416.699C211.27 421.421 188.089 407.882 188.089 407.882L188.318 403.295C188.318 403.295 188.892 351.294 187.293 347.307C185.695 343.321 184.46 323.104 185.368 320.001C186.275 316.899 182.078 270.368 182.078 270.368L181.393 251.48L156.533 240.438L167.642 215.129C169.14 211.579 170.43 207.929 171.506 204.201C173.432 197.631 182.405 191.175 182.405 191.175C182.405 191.175 191.601 184.726 195.23 184.969C198.859 185.212 203.63 179.263 203.63 179.263C207.154 169.461 211.036 173.9 211.036 173.9C211.036 174.365 210.665 174.574 210.863 175.35C213.579 185.786 230.143 220.107 230.446 220.707L232.489 274.442L234.532 342.444L236.574 416.699Z" fill="white"/>
<path opacity="0.1" d="M229.755 222.238C227.033 220.997 212.616 203.007 212.616 203.007V198.912C212.091 197.563 208.974 198.386 206.444 199.331L207.53 174.46L208.765 175.58C211.468 186.008 229.44 221.638 229.755 222.238Z" fill="black"/>
<path d="M230.44 220.748C227.712 219.506 213.295 201.516 213.295 201.516V197.422C212.77 196.072 209.653 196.895 207.123 197.84L208.215 172.969L209.45 174.089C212.159 184.517 230.137 220.154 230.44 220.748Z" fill="white"/>
<path opacity="0.1" d="M188.775 310.47C189.114 310.47 206.37 308.487 206.37 308.487C206.37 308.487 216.819 330.943 216.134 336.407C215.449 341.87 214.208 346.707 210.005 345.85C205.802 344.994 187.386 346.525 187.386 346.525L188.775 310.47Z" fill="black"/>
<path d="M188.089 308.979C188.429 308.979 205.685 306.996 205.685 306.996C205.685 306.996 216.128 329.459 215.449 334.916C214.77 340.373 213.517 345.216 209.32 344.36C205.123 343.503 186.701 345.034 186.701 345.034L188.089 308.979Z" fill="white"/>
<path d="M201.093 298.436C201.093 298.436 216.93 307.738 217.269 310.578C217.609 313.418 209.209 309.337 207.395 308.844C206.2 308.53 204.985 308.322 203.759 308.224L191.657 308.581L201.093 298.436Z" fill="#CF6F80"/>
<path opacity="0.1" d="M225.336 223.399C226.256 223.399 227.002 222.583 227.002 221.577C227.002 220.571 226.256 219.756 225.336 219.756C224.415 219.756 223.669 220.571 223.669 221.577C223.669 222.583 224.415 223.399 225.336 223.399Z" fill="black"/>
<path d="M225.336 222.657C226.256 222.657 227.002 221.841 227.002 220.835C227.002 219.829 226.256 219.014 225.336 219.014C224.415 219.014 223.669 219.829 223.669 220.835C223.669 221.841 224.415 222.657 225.336 222.657Z" fill="#3F3D56"/>
<path opacity="0.1" d="M228.403 302.24C229.323 302.24 230.069 301.425 230.069 300.419C230.069 299.413 229.323 298.598 228.403 298.598C227.483 298.598 226.737 299.413 226.737 300.419C226.737 301.425 227.483 302.24 228.403 302.24Z" fill="black"/>
<path d="M228.403 301.492C229.323 301.492 230.069 300.676 230.069 299.67C230.069 298.665 229.323 297.849 228.403 297.849C227.483 297.849 226.737 298.665 226.737 299.67C226.737 300.676 227.483 301.492 228.403 301.492Z" fill="#3F3D56"/>
<path opacity="0.1" d="M226.996 262.82C227.916 262.82 228.662 262.004 228.662 260.998C228.662 259.992 227.916 259.177 226.996 259.177C226.076 259.177 225.33 259.992 225.33 260.998C225.33 262.004 226.076 262.82 226.996 262.82Z" fill="black"/>
<path d="M226.996 262.078C227.916 262.078 228.662 261.262 228.662 260.256C228.662 259.25 227.916 258.435 226.996 258.435C226.076 258.435 225.33 259.25 225.33 260.256C225.33 261.262 226.076 262.078 226.996 262.078Z" fill="#3F3D56"/>
<path d="M265.409 307.846C265.409 307.846 266.544 309.708 265.409 310.578C264.273 311.448 265.52 313.553 265.52 313.553C265.52 313.553 262.687 315.367 263.934 317C265.18 318.632 264.39 326.005 264.39 326.005L260.984 332.17C260.984 332.17 261.187 336.143 261.2 341.513C261.2 349.891 260.749 361.669 258.256 367.038L258.601 411.093C258.601 411.093 246.671 415.855 236.686 414.405L235.204 343.712C235.204 343.712 237.365 303.623 238.161 295.933C238.627 291.941 238.816 287.916 238.728 283.893C238.728 283.893 238.389 271.859 237.247 266.273C237.247 266.273 236.013 242.077 235.889 235.379C235.834 232.175 235.988 222.825 236.161 213.935C236.352 204.214 236.568 195.047 236.568 195.047L234.316 175.566C234.316 175.566 236.568 175.316 237.247 176.308C237.551 176.619 237.882 176.896 238.235 177.138C242.123 180.011 255.861 188.848 255.861 188.848C255.861 188.848 263.465 192.153 265.285 196.889C267.106 201.624 268.371 204.983 269.254 206.332C270.136 207.682 270.618 214.022 270.618 214.022C270.618 214.022 273.235 225.692 275.277 227.669C277.32 229.645 278.814 242.219 278.814 242.219L260.762 257.733C260.762 257.733 259.175 283.542 258.836 284.54C258.496 285.539 265.409 307.846 265.409 307.846Z" fill="white"/>
<path d="M266.094 307.846C266.094 307.846 267.223 309.708 266.094 310.578C264.964 311.448 266.199 313.553 266.199 313.553C266.199 313.553 263.384 315.387 264.619 317.02C265.853 318.652 265.076 326.025 265.076 326.025L261.669 332.191C261.669 332.191 261.872 336.164 261.891 341.533C261.891 349.911 261.44 361.689 258.947 367.058L259.286 411.113C259.286 411.113 247.338 415.876 237.364 414.425L235.889 343.732C235.889 343.732 238.05 303.644 238.846 295.954C239.312 291.961 239.5 287.936 239.407 283.913C239.407 283.913 239.068 271.879 237.932 266.293C237.932 266.293 236.698 242.097 236.568 235.399C236.513 232.195 236.673 222.845 236.84 213.955C237.031 204.235 237.247 195.067 237.247 195.067L234.272 175.323C234.272 175.323 237.247 175.323 237.932 176.328C238.234 176.642 238.565 176.921 238.92 177.158C242.808 180.032 256.552 188.868 256.552 188.868C256.552 188.868 264.15 192.174 265.97 196.909C267.791 201.644 269.056 205.004 269.945 206.353C270.834 207.702 271.303 214.043 271.303 214.043C271.303 214.043 273.92 225.712 275.962 227.689C278.005 229.665 279.48 242.212 279.48 242.212L261.428 257.727C261.428 257.727 259.842 283.535 259.496 284.533C259.151 285.532 266.094 307.846 266.094 307.846Z" fill="white"/>
<path opacity="0.1" d="M244.474 200.794L246.104 205.988L237.525 215.432C237.716 205.719 237.932 196.545 237.932 196.545L234.958 176.8C234.958 176.8 237.932 176.8 238.617 177.806C238.918 178.119 239.249 178.395 239.605 178.629L246.9 201.631L244.474 200.794Z" fill="black"/>
<path d="M243.789 199.304L245.425 204.498L236.846 213.941C237.037 204.221 237.253 195.054 237.253 195.054L234.272 175.31C234.272 175.31 237.253 175.31 237.932 176.315C238.235 176.627 238.566 176.905 238.92 177.144L246.221 200.14L243.789 199.304Z" fill="white"/>
<path opacity="0.1" d="M243.789 147.909C243.794 150.34 243.444 152.756 242.752 155.066C242.636 155.086 242.517 155.08 242.402 155.049C242.288 155.018 242.18 154.962 242.086 154.884C241.925 148.813 239.191 143.113 235.828 138.263C234.883 136.799 233.738 135.502 232.433 134.418C231.114 133.335 229.472 132.828 227.829 132.995C225.978 133.272 224.342 134.648 222.472 134.823C220.003 135.046 217.794 133.177 215.344 133.083C214.348 133.093 213.365 133.335 212.462 133.794C211.558 134.252 210.754 134.916 210.104 135.74C208.817 137.405 207.86 139.344 207.296 141.434C206.325 144.603 205.797 147.914 205.728 151.255C205.697 153.144 205.531 155.512 203.926 156.2C204.047 154.811 203.902 153.409 203.502 152.084C203.101 150.759 202.454 149.54 201.599 148.503L201.562 148.462C201.562 148.274 201.562 148.098 201.562 147.909C201.514 144.845 202.025 141.801 203.065 138.955C204.105 136.109 205.652 133.518 207.618 131.333C209.584 129.147 211.928 127.411 214.513 126.227C217.099 125.042 219.875 124.432 222.679 124.432C225.483 124.432 228.258 125.042 230.844 126.227C233.43 127.411 235.774 129.147 237.74 131.333C239.705 133.518 241.253 136.109 242.293 138.955C243.333 141.801 243.843 144.845 243.795 147.909H243.789Z" fill="black"/>
<path d="M231.421 111.261C228.214 109.612 224.566 109.3 221.164 110.384C219.454 110.937 217.843 111.834 216.109 112.286C212.406 113.264 208.086 112.205 204.907 114.573C203.142 115.922 202.081 118.054 201.093 120.124L198.625 125.265C197.279 128.077 195.921 130.938 195.36 134.034C194.798 137.13 195.138 140.597 196.933 143.086C198.242 144.901 200.174 146.041 201.593 147.747C202.444 148.786 203.089 150.004 203.488 151.328C203.887 152.651 204.032 154.05 203.914 155.437C205.525 154.763 205.679 152.388 205.716 150.5C205.785 147.158 206.313 143.847 207.283 140.678C207.847 138.587 208.803 136.648 210.092 134.985C210.742 134.161 211.546 133.498 212.45 133.039C213.353 132.581 214.335 132.338 215.331 132.327C217.8 132.422 220.016 134.283 222.46 134.061C224.311 133.892 225.953 132.509 227.817 132.239C229.46 132.069 231.102 132.577 232.421 133.663C233.726 134.745 234.869 136.042 235.809 137.508C239.179 142.358 241.913 148.044 242.073 154.129C242.771 154.689 243.777 153.96 244.122 153.097C244.468 152.233 244.48 151.221 244.919 150.398C245.425 149.447 246.394 148.941 247.153 148.226C249.078 146.412 249.56 143.356 249.486 140.584C249.412 137.811 248.918 134.998 249.399 132.273C249.689 130.6 250.344 129.035 250.702 127.383C251.06 125.73 251.103 123.875 250.257 122.452C249.023 120.361 246.425 119.949 244.16 119.753C241.586 119.511 239.284 119.821 237.642 117.453C236.872 116.218 236.004 115.058 235.05 113.986C234.723 113.635 231.421 111.409 231.421 111.261Z" fill="#512E4E"/>
<path opacity="0.1" d="M164.341 253.511L157.891 240.478L155.848 260.587C155.848 260.587 156.984 269.518 156.756 270.887C156.527 272.257 161.409 284.533 161.409 284.533C161.409 284.533 177.536 315.927 184.121 317.546L206.37 300.17L200.47 291.98C200.47 291.98 198.427 291.11 197.915 291.98C197.915 291.98 186.96 271.38 185.824 269.889C184.689 268.398 184.911 265.423 184.911 265.423C184.911 265.423 183.208 263.44 183.775 261.578C184.343 259.717 180.486 253.261 180.486 253.261L184.004 249.666L164.341 253.511Z" fill="black"/>
<path d="M158.231 238.994L156.527 240.478L154.484 260.587C154.484 260.587 155.62 269.518 155.392 270.887C155.163 272.257 160.051 284.533 160.051 284.533C160.051 284.533 176.172 315.927 182.757 317.546L205.012 300.17L199.106 291.98C199.106 291.98 197.063 291.11 196.551 291.98C196.551 291.98 185.596 271.38 184.46 269.889C183.325 268.398 183.553 265.423 183.553 265.423C183.553 265.423 181.85 263.44 182.418 261.578C182.985 259.717 179.122 253.261 179.122 253.261L182.64 249.666L158.231 238.994Z" fill="white"/>
<path opacity="0.1" d="M263.934 317.769C265.168 319.408 264.39 326.767 264.39 326.767L260.984 332.933C260.984 332.933 261.187 336.912 261.2 342.275L255.472 344.231C254.955 344.408 254.406 344.447 253.872 344.345C253.338 344.242 252.834 344.002 252.402 343.644C251.97 343.285 251.623 342.819 251.389 342.284C251.156 341.749 251.043 341.161 251.059 340.569L252.047 305.755L265.409 311.34C264.273 312.204 265.52 314.322 265.52 314.322C265.52 314.322 262.687 316.13 263.934 317.769Z" fill="black"/>
<path d="M264.619 317.02C265.853 318.659 265.075 326.025 265.075 326.025L261.669 332.191C261.669 332.191 261.872 336.164 261.891 341.533L256.059 343.523C255.552 343.695 255.014 343.733 254.492 343.632C253.969 343.531 253.476 343.296 253.053 342.945C252.63 342.594 252.291 342.137 252.062 341.614C251.833 341.09 251.722 340.514 251.738 339.934L252.732 305.013L266.1 310.598C264.958 311.462 266.205 313.573 266.205 313.573C266.205 313.573 263.384 315.387 264.619 317.02Z" fill="white"/>
<path d="M269.044 300.426C269.044 300.426 268.137 306.76 265.865 307.131C263.594 307.502 262.576 317.377 260.311 317.027C258.046 316.676 259.546 307.846 259.626 306.133C259.706 304.419 257.157 297.323 259.064 295.711C260.971 294.099 267.007 295.711 267.007 295.711L269.044 300.426Z" fill="#CF6F80"/>
<path opacity="0.1" d="M273.876 251.649L278.16 242.205C278.16 242.205 279.863 249.403 279.863 253.248C279.863 257.093 282.245 257.47 282.245 257.47C282.245 257.47 284.856 260.843 283.48 263.298C282.103 265.754 281.548 271.865 281.548 271.865C281.548 271.865 281.998 283.528 279.956 285.141C277.913 286.753 277.487 290.604 277.487 290.604C277.487 290.604 273.734 297.923 273.852 299.664C273.969 301.404 268.63 313.188 268.63 313.188C268.63 313.188 271.241 298.544 256.028 292.217C256.028 292.217 255.91 287.245 257.046 285.883C258.182 284.52 259.953 283.899 258.842 277.012C257.731 270.125 258.521 261.895 258.521 260.243C258.521 258.59 261.928 248.283 261.928 248.283L273.876 251.649Z" fill="black"/>
<path d="M275.728 240.856L279.468 242.205C279.468 242.205 281.178 249.403 281.178 253.248C281.178 257.093 283.56 257.47 283.56 257.47C283.56 257.47 286.17 260.843 284.794 263.298C283.418 265.754 282.869 271.865 282.869 271.865C282.869 271.865 283.319 283.528 281.276 285.14C279.233 286.753 278.777 290.604 278.777 290.604C278.777 290.604 275.031 297.923 275.148 299.664C275.265 301.404 269.92 313.188 269.92 313.188C269.92 313.188 272.537 298.544 257.318 292.217C257.318 292.217 257.207 287.245 258.342 285.883C259.478 284.52 261.249 283.899 260.138 277.012C259.027 270.125 259.817 261.895 259.817 260.243C259.817 258.59 263.224 248.283 263.224 248.283L275.728 240.856Z" fill="white"/>
<path opacity="0.1" d="M193.119 485.631C193.119 485.631 199.081 481.537 202.994 484.512C206.907 487.486 193.119 485.631 193.119 485.631Z" fill="black"/>
<path opacity="0.1" d="M239.444 472.97C239.444 472.97 244.721 472.228 249.152 477.442C253.584 482.657 239.444 472.97 239.444 472.97Z" fill="black"/>
<g opacity="0.1">
<path d="M247.165 146.749C246.406 147.464 245.431 147.977 244.925 148.928C244.493 149.744 244.481 150.749 244.135 151.626C243.789 152.503 242.783 153.218 242.086 152.665C241.925 146.594 239.185 140.894 235.822 136.037C234.881 134.571 233.738 133.274 232.433 132.192C231.112 131.107 229.468 130.599 227.823 130.769C225.972 131.046 224.342 132.422 222.472 132.59C220.003 132.82 217.788 130.951 215.338 130.857C214.342 130.867 213.36 131.111 212.457 131.57C211.555 132.03 210.752 132.695 210.104 133.521C208.816 135.182 207.859 137.119 207.296 139.208C206.326 142.377 205.798 145.688 205.728 149.029C205.691 150.911 205.531 153.259 203.938 153.96C203.976 154.458 203.976 154.959 203.938 155.458C205.543 154.783 205.704 152.409 205.741 150.52C205.809 147.179 206.338 143.868 207.308 140.698C207.872 138.608 208.828 136.669 210.116 135.005C210.766 134.181 211.569 133.518 212.471 133.06C213.374 132.602 214.355 132.359 215.35 132.347C217.819 132.442 220.041 134.304 222.485 134.081C224.336 133.912 225.978 132.53 227.835 132.26C229.481 132.09 231.125 132.598 232.446 133.683C233.75 134.765 234.894 136.062 235.834 137.528C239.198 142.378 241.938 148.064 242.098 154.149C242.796 154.709 243.802 153.98 244.147 153.117C244.493 152.253 244.505 151.242 244.937 150.419C245.443 149.468 246.418 148.962 247.178 148.247C249.103 146.432 249.585 143.376 249.51 140.604C249.51 140.516 249.51 140.429 249.51 140.348C249.393 142.749 248.807 145.198 247.165 146.749Z" fill="black"/>
<path d="M201.606 146.27C200.186 144.564 198.248 143.424 196.946 141.616C195.849 140.015 195.223 138.089 195.15 136.091C194.956 138.588 195.594 141.077 196.946 143.1C198.248 144.914 200.186 146.054 201.606 147.761C202.968 149.43 203.787 151.546 203.932 153.778C204.027 152.42 203.869 151.055 203.47 149.765C203.07 148.475 202.436 147.286 201.606 146.27Z" fill="black"/>
<path d="M250.714 125.905C250.35 127.558 249.702 129.13 249.405 130.796C249.23 131.909 249.166 133.04 249.214 134.169C249.235 133.526 249.299 132.886 249.405 132.253C249.702 130.58 250.35 129.015 250.714 127.362C250.926 126.451 250.995 125.507 250.918 124.57C250.879 125.02 250.811 125.466 250.714 125.905Z" fill="black"/>
</g>
<path opacity="0.1" d="M81.9173 513.059C115.13 513.059 142.055 508.332 142.055 502.502C142.055 496.672 115.13 491.945 81.9173 491.945C48.7044 491.945 21.78 496.672 21.78 502.502C21.78 508.332 48.7044 513.059 81.9173 513.059Z" fill="#6C63FF"/>
<path d="M83.8551 300.271H79.9855V395.497H83.8551V300.271Z" fill="#535461"/>
<path d="M108.172 395.207L107.931 399.498L107.585 405.569L107.444 408.091L107.104 414.162L106.956 416.685L106.61 422.756L102.71 491.608C102.54 494.57 101.344 497.351 99.3653 499.383C97.3864 501.416 94.7731 502.548 92.0574 502.549H71.7771C69.0621 502.548 66.4495 501.416 64.4716 499.383C62.4936 497.35 61.2989 494.57 61.1309 491.608L57.2489 422.709L56.9033 416.638L56.7613 414.115L56.4157 408.044L56.2738 405.521L55.9282 399.45L55.6813 395.16C55.6384 394.334 55.7503 393.508 56.0102 392.731C56.2701 391.954 56.6724 391.244 57.1926 390.643C57.7127 390.042 58.3396 389.564 59.0349 389.238C59.7302 388.912 60.4791 388.744 61.2358 388.745H102.716C103.47 388.752 104.214 388.928 104.904 389.262C105.593 389.596 106.212 390.08 106.723 390.686C107.235 391.291 107.627 392.005 107.876 392.783C108.125 393.56 108.226 394.386 108.172 395.207Z" fill="#3F3D56"/>
<path d="M107.931 399.498L107.585 405.548H56.2491L55.9034 399.498H107.931Z" fill="#9D9CB5"/>
<path d="M107.443 408.071L107.104 414.129H56.7366L56.391 408.071H107.443Z" fill="#9D9CB5"/>
<path d="M106.956 416.658L106.616 422.709H57.2242L56.8785 416.658H106.956Z" fill="#9D9CB5"/>
<path d="M49.9971 335.961C72.53 353.783 81.9357 381.656 81.9357 381.656C81.9357 381.656 54.7802 380.637 32.241 362.815C9.70189 344.994 0.314697 317.128 0.314697 317.128C0.314697 317.128 27.4579 318.14 49.9971 335.961Z" fill="#6C63FF"/>
<path d="M0.296265 317.128C0.296265 317.128 28.4887 334.228 37.5303 348.387C46.5718 362.546 81.9358 381.656 81.9358 381.656" stroke="#535461" stroke-width="2" stroke-miterlimit="10"/>
<path d="M64.5439 300.062C76.8071 309.755 81.9358 324.926 81.9358 324.926C81.9358 324.926 67.1545 324.373 54.8851 314.679C42.6157 304.986 37.4994 289.808 37.4994 289.808C37.4994 289.808 52.2745 290.362 64.5439 300.062Z" fill="#6C63FF"/>
<path d="M37.4994 289.808C37.4994 289.808 52.8423 299.117 57.7612 306.821C62.68 314.524 81.9358 324.926 81.9358 324.926" stroke="#535461" stroke-width="2" stroke-miterlimit="10"/>
<path d="M99.7411 324.157C85.6511 341.081 82.6702 363.2 82.6702 363.2C82.6702 363.2 102.537 357.871 116.615 340.94C130.692 324.008 133.686 301.896 133.686 301.896C133.686 301.896 113.831 307.232 99.7411 324.157Z" fill="#6C63FF"/>
<path d="M133.698 301.903C133.698 301.903 115.343 319.253 110.677 331.206C106.012 343.159 82.6702 363.2 82.6702 363.2" stroke="#535461" stroke-width="2" stroke-miterlimit="10"/>
<path d="M616.969 318.2C616.969 318.2 606.779 262.793 610.68 255.899C610.68 255.899 610.822 249.49 610.587 241.322C610.587 241.011 610.587 240.701 610.587 240.384C611.273 240.884 611.989 241.335 612.729 241.733C616.322 243.751 620.448 244.333 624.393 243.379L621.307 239.622C620.567 238.724 619.795 237.753 619.635 236.566C619.474 235.379 619.919 234.32 620.301 233.261C623.233 225.166 623.387 214.987 617.74 208.808C612.969 203.614 611.809 196.909 606.631 192.167C602.848 188.693 600.768 183.6 598.805 178.676C597.145 174.514 595.472 170.318 594.522 165.906C593.781 162.459 593.485 158.891 592.467 155.525C591.449 152.159 589.541 148.887 586.561 147.383C585.499 146.85 584.32 146.547 583.351 145.838C582.08 144.901 581.315 143.376 580.395 142.041C575.723 135.295 560.078 139.268 552.672 142.007C550.658 142.697 548.794 143.826 547.191 145.326L547.259 145.204C547.315 145.103 547.382 145.002 547.444 144.901C546.633 145.617 545.933 146.471 545.37 147.43C544.29 149.299 543.84 151.478 542.939 153.501C541.853 155.896 535.81 162.581 538.409 165.272C538.591 165.453 538.799 165.599 539.026 165.704C540.001 166.148 541.075 166.265 542.112 166.041L542.001 166.331C541.113 168.706 540.658 171.247 540.661 173.812C540.661 184.895 549.024 193.88 559.349 193.88C561.29 193.882 563.22 193.557 565.071 192.916C565.114 193.172 565.151 193.428 565.194 193.685C565.194 193.786 565.225 193.887 565.237 193.988L564.91 194.487C564.894 194.456 564.875 194.427 564.855 194.4L555.165 209.199C553.684 210.339 545.154 217.085 544.673 222.144C544.167 227.682 543.661 234.164 543.661 234.164L543.593 235.554C543.17 235.941 542.674 236.223 542.142 236.38C541.609 236.537 541.051 236.566 540.507 236.465C537.483 235.925 537.483 248.607 537.483 248.607C537.483 248.607 535.471 250.63 534.089 248.876C532.706 247.123 529.052 253.065 529.052 253.065L506.155 254.145L505.631 254.178L504.396 250.003C504.264 249.563 503.977 249.197 503.599 248.986C503.221 248.775 502.783 248.736 502.378 248.876C502.283 248.911 502.19 248.954 502.1 249.005L502.014 249.059L501.854 249.18L501.773 249.261C501.729 249.305 501.688 249.352 501.65 249.403L501.576 249.497L501.539 249.538C501.396 249.753 501.302 250.002 501.263 250.264C501.225 250.527 501.243 250.795 501.317 251.049L502.378 254.63C497.959 255.602 493.442 258.34 497.126 265.882L478.45 262.111L484.493 267.656L515.684 274.692C515.271 275.501 515.542 276.675 516.832 278.327C522.387 285.458 532.509 287.394 536.582 287.893C537.658 290.523 539.001 293.012 540.587 295.313L540.236 302.416C540.236 302.416 529.923 356.555 528.034 359.301C528.987 358.12 529.86 356.864 530.645 355.544C527.651 366.667 523.467 381.892 522.368 384.172C520.603 387.814 518.968 402.553 520.98 403.498C521.597 403.788 523.362 403.646 525.88 403.437V404.658L525.769 450.926C525.769 450.926 526.275 479.304 524.887 482.009C523.498 484.714 523.128 490.387 523.128 490.387C523.128 490.387 517.573 501.578 513.173 506.077C513.143 506.112 513.11 506.144 513.074 506.171L512.938 505.119C512.938 505.119 507.649 512.418 495.947 512.006C495.947 512.006 488.905 517.012 499.348 517.281C509.79 517.551 523.128 516.877 523.128 516.877C523.128 516.877 532.441 501.362 540.242 503.386V515.143H542.63V503.197C543.738 502.4 544.686 501.365 545.417 500.156C546.148 498.946 546.646 497.587 546.882 496.161C547.087 494.691 546.937 493.188 546.448 491.8C545.959 490.413 545.147 489.189 544.093 488.249C543.619 487.781 543.239 487.211 542.977 486.574C542.715 485.938 542.576 485.25 542.568 484.552L542.482 484.633C542.482 484.397 542.427 484.154 542.402 483.904C541.717 477.833 540.859 465.307 543.889 456.039C548.043 443.33 549.302 425.63 546.278 415.093C545.302 411.725 544.5 408.3 543.877 404.833C543.803 404.395 543.735 403.977 543.673 403.585C545.74 403.891 547.787 404.342 549.802 404.934C556.807 407.046 572.131 407.437 585.215 407.322C585.246 407.714 585.283 408.125 585.326 408.537C585.559 411.397 586.047 414.225 586.783 416.982C588.424 422.378 589.177 446.17 589.177 446.17C589.177 446.17 591.294 465.732 590.14 473.692C589.523 478.117 588.906 482.562 588.554 487.028V487.115C588.554 487.115 585.085 497.908 582.549 503.77C582.487 503.918 582.419 504.067 582.358 504.208C581.681 504.276 581.016 504.437 580.376 504.687C580.376 504.687 576.976 512.108 573.588 513.335C570.199 514.563 571.323 518.603 578.994 517.119C586.665 515.635 598.25 514.421 598.25 514.421L598.75 506.853L601.107 503.628L600.49 511.177L603.002 510.637L602.669 501.456L606.526 496.181C606.526 496.181 611.186 491.648 604.261 482.731V482.926C604.187 482.798 604.119 482.663 604.039 482.535V482.495C602.891 480.552 601.977 476.93 603.65 470.501C606.674 458.885 608.433 448.342 608.433 448.342C608.433 448.342 615.185 420.098 607.069 406.736H607.427C606.595 404.855 606.008 402.857 605.68 400.799C605.639 400.557 605.602 400.307 605.569 400.051C611.574 399.673 617.468 398.486 622.276 395.922C622.258 395.895 619.363 328.872 616.969 318.2ZM540.729 271.454V271.589L539.495 271.656L540.729 271.454ZM536.496 272.095C536.293 272.144 536.103 272.243 535.94 272.385C535.409 273.205 535.076 274.159 534.971 275.157L533.046 274.685C533.046 274.685 531.694 274.368 529.75 274.01L528.83 272.999C531.361 272.769 533.99 272.432 536.496 272.095Z" fill="url(#paint1_linear_5_371)"/>
<path d="M600.206 501.551L599.472 511.109L601.934 510.57L601.564 500.202L600.206 501.551Z" fill="#1D2366"/>
<path d="M544.025 456.167C541.056 465.408 541.896 477.881 542.562 483.938C542.809 486.178 543.038 487.54 543.038 487.54C543.038 487.54 538.6 498.59 538.23 499.008C537.86 499.426 525.17 507.892 525.17 507.892L516.302 513.551C516.302 513.551 507.303 509.241 511.617 507.757C512.499 507.37 513.293 506.779 513.944 506.023C518.264 501.537 523.689 490.387 523.689 490.387C523.689 490.387 524.06 484.727 525.417 482.036C526.775 479.344 526.281 451.06 526.281 451.06L526.386 404.955V398.944L543.266 399.079C543.372 401.12 543.616 403.149 543.994 405.15C544.6 408.605 545.385 412.019 546.346 415.377C549.32 425.893 548.086 443.505 544.025 456.167Z" fill="#FFB0B1"/>
<path opacity="0.1" d="M543.038 487.54C543.038 487.54 538.6 498.589 538.23 499.008C537.86 499.426 525.17 507.892 525.17 507.892L516.302 513.551C516.302 513.551 507.303 509.241 511.617 507.757C512.499 507.37 513.293 506.778 513.944 506.023L514.327 508.971L517.283 508.836L542.587 483.952C542.809 486.178 543.038 487.54 543.038 487.54Z" fill="black"/>
<path d="M542.729 484.579L517.283 509.632L514.327 509.767L513.709 505.045C513.709 505.045 508.538 512.317 497.046 511.912C497.046 511.912 490.146 516.897 500.372 517.167C510.599 517.436 523.658 516.762 523.658 516.762C523.658 516.762 532.78 501.247 540.414 503.271V514.988H542.76V503.163C543.85 502.361 544.781 501.326 545.496 500.12C546.211 498.914 546.695 497.563 546.919 496.148C547.123 494.689 546.979 493.199 546.502 491.819C546.026 490.439 545.232 489.216 544.198 488.269C543.736 487.796 543.367 487.224 543.115 486.59C542.862 485.955 542.731 485.271 542.729 484.579Z" fill="#1D2366"/>
<path d="M602.551 470.575C600.91 476.984 601.805 480.592 602.928 482.528V482.569C604.369 484.959 605.37 487.633 605.878 490.441L605.977 491.048L594.399 509.497L588.116 512.195C588.116 512.195 578.013 508.424 579.858 507.345C580.321 507.082 581.043 505.679 581.87 503.743C584.339 497.908 587.745 487.142 587.745 487.142V487.055C588.103 482.609 588.671 478.177 589.301 473.766C590.43 465.826 588.356 446.339 588.356 446.339C588.356 446.339 587.616 422.642 586.011 417.252C585.287 414.512 584.805 411.701 584.573 408.86C584.24 405.488 584.166 402.708 584.166 402.708C584.166 402.708 590.819 392.59 603.014 403.518C603.99 404.389 604.848 405.407 605.563 406.54C613.988 419.64 607.205 448.497 607.205 448.497C607.205 448.497 605.508 458.993 602.551 470.575Z" fill="#FFB0B1"/>
<path opacity="0.1" d="M605.995 491.048L594.417 509.497L588.134 512.195C588.134 512.195 578.031 508.424 579.877 507.345C580.339 507.082 581.062 505.679 581.889 503.743C586.166 503.703 588.381 508.155 588.381 508.155L593.8 507.21C593.8 507.21 600.947 491.857 602.551 490.92C604.156 489.982 602.798 483.911 602.798 483.911V482.366C602.842 482.42 602.879 482.481 602.928 482.535V482.576C604.369 484.966 605.371 487.64 605.878 490.448L605.995 491.048Z" fill="black"/>
<path d="M588.752 508.553C588.752 508.553 585.666 502.36 579.753 504.647C579.753 504.647 576.427 512.067 573.1 513.268C569.773 514.469 570.884 518.516 578.402 517.039C585.919 515.561 597.25 514.34 597.25 514.34L597.744 506.792L605.384 496.154C605.384 496.154 609.939 491.642 603.163 482.758V484.302C603.163 484.302 604.52 490.373 602.916 491.311C601.311 492.249 594.189 507.608 594.189 507.608L588.752 508.553Z" fill="#1D2366"/>
<path opacity="0.1" d="M543.284 399.066C543.391 401.106 543.634 403.135 544.013 405.137C537.063 404.024 530.614 404.577 526.386 404.941V398.931L543.284 399.066Z" fill="black"/>
<path opacity="0.1" d="M606.248 408.22C606.248 408.22 596.373 408.746 584.598 408.854C584.265 405.481 584.19 402.702 584.19 402.702C584.19 402.702 590.844 392.583 603.039 403.511C604.014 404.383 604.872 405.4 605.588 406.533C605.779 407.108 606 407.671 606.248 408.22Z" fill="black"/>
<path d="M606.248 407.005C606.248 407.005 562.997 409.292 549.814 405.252C536.631 401.211 523.566 404.712 521.597 403.774C519.628 402.837 521.227 388.152 522.955 384.516C524.683 380.88 534.163 344.11 534.163 344.11L543.284 292.129L552.894 289.235L553.573 289.026L570.317 283.98L582.586 280.277C582.586 280.277 606.983 384.381 604.89 392.057C604.131 394.997 604.008 398.089 604.533 401.09C604.852 403.138 605.43 405.129 606.248 407.005Z" fill="#1D2366"/>
<path d="M511.488 256.58C511.488 256.58 502.847 266.698 509.389 272.337C515.931 277.977 520.233 272.877 520.233 272.877L511.488 256.58Z" fill="#C7DAF5"/>
<path opacity="0.1" d="M511.488 256.58C511.488 256.58 502.847 266.698 509.389 272.337C515.931 277.977 520.233 272.877 520.233 272.877L511.488 256.58Z" fill="black"/>
<path d="M581.296 190.055C581.296 190.055 580.284 191.108 578.76 192.659C576.587 194.878 573.372 198.123 570.52 200.842C566.57 204.599 563.312 207.358 564.478 205.004C565.645 202.649 565.422 198.548 564.842 194.71C564.799 194.454 564.762 194.197 564.719 193.948C564.238 191.129 563.602 188.344 562.812 185.61C562.812 185.61 569.193 176.598 572.724 173.043C574.038 171.694 574.958 171.141 575.013 172.079C575.075 173.34 575.939 176.126 577.013 179.08C577.044 179.175 577.075 179.263 577.112 179.357C577.828 181.381 578.636 183.458 579.346 185.253C580.432 188.005 581.296 190.055 581.296 190.055Z" fill="#FFB0B1"/>
<path opacity="0.1" d="M577.112 179.357C576.512 182.883 575.057 186.167 572.899 188.868C570.74 191.569 567.958 193.586 564.842 194.71C564.352 191.631 563.673 188.591 562.812 185.61C562.812 185.61 574.828 168.645 575.013 172.079C575.056 173.38 575.995 176.268 577.112 179.357Z" fill="black"/>
<path opacity="0.1" d="M563.645 199.243L565.2 196.848C565.2 196.848 566.231 203.715 570.02 200.686C573.81 197.658 573.995 223.48 573.995 223.48L569.928 289.943L540.538 288.021L541.371 255.905L544.698 239.716L552.925 216.181L557.819 208.403L563.645 199.243Z" fill="black"/>
<path d="M573.995 223.891L570.292 283.987L569.903 290.355L553.517 289.282L552.9 289.242L540.556 288.432L541.39 256.31L544.716 240.121L552.943 216.586L557.837 208.808L563.663 199.614L565.219 197.226C565.219 197.226 566.249 204.093 570.039 201.064L570.119 201.003C573.822 198.44 573.995 223.891 573.995 223.891Z" fill="#1D2366"/>
<path d="M545.13 234.495C545.13 234.495 543.655 237.868 540.692 237.321C537.73 236.775 537.736 249.463 537.736 249.463C537.736 249.463 535.767 251.487 534.409 249.733C533.052 247.979 529.472 253.909 529.472 253.909L507.044 254.988C507.044 254.988 517.024 259.973 515.067 275.056C515.067 275.056 548.95 272.762 550.061 269.262C551.172 265.761 545.13 234.495 545.13 234.495Z" fill="white"/>
<path opacity="0.03" d="M545.13 234.495C545.13 234.495 543.655 237.868 540.692 237.321C537.73 236.775 537.736 249.463 537.736 249.463C537.736 249.463 535.767 251.487 534.409 249.733C533.052 247.979 529.472 253.909 529.472 253.909L507.044 254.988C507.044 254.988 517.024 259.973 515.067 275.056C515.067 275.056 548.95 272.762 550.061 269.262C551.172 265.761 545.13 234.495 545.13 234.495Z" fill="black"/>
<path d="M479.95 262.914L485.863 268.432L534.533 279.609L528.497 272.877L479.95 262.914Z" fill="white"/>
<path d="M563.738 201.368C562.929 202.717 560.615 209.624 558.683 215.655C557.072 220.68 555.727 225.098 555.727 225.098C555.727 225.098 552.585 247.453 550.981 251.494C549.376 255.534 550.246 271.292 550.246 271.292L544.266 310.207C544.266 310.207 541.556 330.275 537.372 342.262C533.243 354.06 528.645 359.591 528.503 359.766C530.355 357.028 540.445 303.104 540.445 303.104L543.778 235.095C543.778 235.095 544.266 228.633 544.759 223.109C545.253 217.584 555.251 210.042 555.251 210.042L564.892 195.061C565.861 196.477 565.213 198.946 563.738 201.368Z" fill="white"/>
<path d="M538.6 288.77C538.6 288.77 524.405 288.095 517.53 279.07C510.655 270.044 533.422 275.467 533.422 275.467L539.341 276.951L538.6 288.77Z" fill="#FFB0B1"/>
<path opacity="0.1" d="M604.891 392.064C604.131 395.003 604.008 398.096 604.533 401.096C589.048 402.297 572.483 397.723 572.483 397.723C569.397 400.826 561.269 405.4 561.269 405.4L556.838 345.365C554.005 337.27 552.894 294.861 552.894 294.861C552.894 294.861 553.147 292.642 553.511 289.316C553.511 289.235 553.511 289.147 553.542 289.066C554.647 279.778 556.837 262.341 557.911 259.986C559.393 256.749 553.357 248.135 553.357 248.135L556.103 222.535L556.436 219.446C562.225 216.619 566.663 207.594 566.663 207.594L570.07 201.071C573.773 198.474 573.964 223.925 573.964 223.925L570.261 284.021L582.53 280.317C582.53 280.317 606.983 384.388 604.891 392.064Z" fill="black"/>
<path d="M620.783 396.213C603.903 405.373 573.223 396.887 573.223 396.887C570.137 399.99 562.009 404.563 562.009 404.563L557.572 344.528C554.745 336.434 553.634 294.024 553.634 294.024C553.634 294.024 557.202 262.381 558.683 259.15C559.115 258.206 558.905 256.803 558.393 255.292C555.874 248.1 554.948 240.359 555.689 232.701L556.874 221.699L557.202 218.616C562.997 215.783 567.434 206.757 567.434 206.757L570.52 200.848L576.198 189.961L578.889 184.807L579.346 185.259L582.833 188.713C582.833 188.713 584.314 190.062 586.536 192.086C591.368 196.538 599.719 204.376 604.026 209.172C607.816 213.395 609.013 229.82 609.359 242.185C609.587 250.327 609.451 256.708 609.451 256.708C605.631 263.582 615.623 318.767 615.623 318.767C617.95 329.432 620.783 396.213 620.783 396.213Z" fill="white"/>
<path opacity="0.03" d="M588.381 206.622C588.381 206.622 576.797 230.724 578.142 239.885C579.488 249.045 583.314 259.413 581.469 261.835C580.835 262.752 580.015 263.497 579.074 264.011C578.133 264.524 577.096 264.793 576.044 264.796C574.192 264.931 569.255 268.702 569.255 269.106C569.255 269.511 564.694 269.511 560.615 271.4C556.535 273.289 550.511 274.361 550.511 274.361C550.511 274.361 538.785 273.956 537.693 275.171C536.6 276.385 535.477 283.65 537.816 289.444C540.155 295.239 542.754 299.562 544.716 300.352C546.679 301.141 559.133 296.581 569.237 295.502C579.34 294.422 590.307 285.673 590.307 285.673C590.307 285.673 602.385 280.952 604.502 273.012C606.619 265.073 601.916 221.436 601.916 221.436C601.916 221.436 598.361 201.098 588.381 206.622Z" fill="black"/>
<path opacity="0.03" d="M586.9 204.599C586.9 204.599 575.316 228.707 576.673 237.861C578.031 247.015 581.845 257.389 579.994 259.818C579.362 260.736 578.544 261.482 577.603 261.996C576.663 262.51 575.626 262.778 574.575 262.779C572.723 262.914 567.786 266.685 567.786 267.089C567.786 267.494 563.225 267.494 559.146 269.376C555.066 271.258 549.043 272.338 549.043 272.338C549.043 272.338 537.316 271.933 536.23 273.147C535.144 274.361 534.008 281.633 536.353 287.421C538.699 293.208 541.291 297.539 543.253 298.328C545.216 299.117 557.671 294.557 567.774 293.485C577.877 292.412 588.844 283.65 588.844 283.65C588.844 283.65 600.916 278.928 603.008 270.995C605.1 263.062 600.422 219.412 600.422 219.412C600.422 219.412 596.88 199.081 586.9 204.599Z" fill="black"/>
<path d="M588.017 205.408C588.017 205.408 576.433 229.517 577.79 238.671C579.148 247.824 582.962 258.199 581.117 260.62C580.485 261.541 579.666 262.289 578.725 262.804C577.783 263.319 576.745 263.587 575.692 263.589C573.841 263.723 568.903 267.494 568.903 267.892C568.903 268.29 564.348 268.297 560.263 270.186C556.177 272.074 550.16 273.147 550.16 273.147C550.16 273.147 538.433 272.742 537.341 273.956C536.249 275.171 535.125 282.442 537.464 288.23C539.804 294.018 542.402 298.348 544.364 299.137C546.327 299.927 558.782 295.367 568.885 294.287C578.988 293.208 589.955 284.459 589.955 284.459C589.955 284.459 602.033 279.737 604.15 271.798C606.267 263.858 601.595 220.221 601.595 220.221C601.595 220.221 597.991 199.917 588.017 205.408Z" fill="white"/>
<path opacity="0.1" d="M587.764 270.071C587.764 270.071 578.506 268.047 581.728 271.42C584.95 274.793 584.931 277.747 588.875 277.612C592.819 277.478 587.764 270.071 587.764 270.071Z" fill="black"/>
<path opacity="0.1" d="M603.409 342.639C603.409 342.639 599.225 345.736 607.23 352.872C615.234 360.009 603.409 342.639 603.409 342.639Z" fill="black"/>
<path opacity="0.1" d="M595.423 368.09C595.423 368.495 593.942 382.93 599.484 386.539C605.026 390.148 595.423 368.09 595.423 368.09Z" fill="black"/>
<path d="M507.427 254.954C502.958 255.123 493.306 256.614 498.311 266.82C502.736 275.852 510.173 269.815 514.357 265.234C513.337 260.964 510.856 257.285 507.427 254.954Z" fill="#FFB0B1"/>
<path opacity="0.1" d="M586.536 192.497C581.796 196.039 577.821 199.027 577.044 199.648C574.921 201.368 570.872 211.466 568.261 216.619C566.181 220.768 559.423 221.834 556.875 222.097L557.202 219.014C562.997 216.181 567.434 207.155 567.434 207.155L578.889 185.205L582.833 189.125C582.833 189.125 584.314 190.474 586.536 192.497Z" fill="black"/>
<path d="M586.536 192.093C581.796 195.634 577.821 198.622 577.044 199.25C574.921 200.963 570.872 211.061 568.261 216.215C566.181 220.363 559.423 221.429 556.875 221.692L557.202 218.609C562.997 215.776 567.434 206.751 567.434 206.751L578.889 184.801L582.833 188.706C582.833 188.706 584.314 190.042 586.536 192.093Z" fill="#DCE7FF"/>
<path d="M577.414 174.905C577.416 178.954 576.293 182.909 574.192 186.244C571.711 190.188 568.019 193.029 563.786 194.252C559.552 195.474 555.058 194.998 551.118 192.909C547.178 190.82 544.054 187.256 542.313 182.865C540.572 178.474 540.328 173.546 541.627 168.975C542.925 164.404 545.68 160.494 549.391 157.953C553.102 155.413 557.523 154.41 561.852 155.127C566.182 155.845 570.132 158.234 572.988 161.863C575.843 165.492 577.413 170.119 577.414 174.905Z" fill="#FFB0B1"/>
<path opacity="0.1" d="M609.359 242.192C606.853 240.507 604.811 238.11 603.453 235.257C602.422 233.031 601.737 230.461 599.978 228.883C598.392 227.466 596.275 227.122 594.3 226.488C587.807 224.39 582.364 217.914 582.16 210.521C582.061 207.041 583.055 203.567 582.604 200.12C582.348 198.169 581.639 196.323 580.543 194.757C579.999 194.008 579.403 193.307 578.76 192.659C577.895 191.769 576.988 190.905 576.198 189.961C575.701 189.376 575.266 188.731 574.902 188.039C574.609 187.472 574.371 186.872 574.192 186.251C572.958 182.123 574.081 177.225 572.724 173.05L572.65 172.821C572.137 171.337 571.094 169.853 569.644 169.738C568.194 169.623 566.953 170.939 565.571 171.525C562.676 172.753 559.553 170.662 557.14 168.53C554.727 166.399 552.005 163.964 548.938 164.436C546.907 164.753 545.303 166.264 543.433 167.046C543.01 167.225 542.575 167.363 542.13 167.458C543.713 163.144 546.621 159.568 550.354 157.342C554.087 155.117 558.413 154.383 562.588 155.265C566.763 156.147 570.526 158.59 573.232 162.175C575.937 165.761 577.416 170.264 577.414 174.912C577.416 176.315 577.282 177.715 577.013 179.087C577.044 179.182 577.075 179.269 577.112 179.364C577.828 181.387 578.636 183.465 579.346 185.259L582.833 188.713C582.833 188.713 584.314 190.062 586.536 192.086C591.368 196.538 599.719 204.376 604.027 209.172C607.816 213.408 609.001 229.827 609.359 242.192Z" fill="black"/>
<path d="M543.216 154.722C544.099 152.759 544.537 150.56 545.593 148.699C547.142 146 549.845 144.273 552.622 143.228C559.874 140.496 575.198 136.53 579.778 143.228C580.679 144.577 581.426 146.075 582.672 147.005C583.623 147.714 584.771 148.017 585.814 148.55C588.733 150.048 590.597 153.313 591.59 156.645C592.584 159.977 592.88 163.552 593.609 166.986C594.541 171.391 596.176 175.566 597.805 179.715C599.725 184.612 601.761 189.691 605.464 193.152C610.519 197.874 611.636 204.558 616.327 209.739C621.881 215.891 621.702 226.043 618.839 234.104C618.462 235.163 618.036 236.269 618.184 237.396C618.333 238.522 619.098 239.547 619.82 240.445L622.856 244.188C615.672 246.084 607.544 241.983 604.199 234.785C603.169 232.559 602.484 229.996 600.718 228.411C599.138 226.994 597.015 226.657 595.047 226.023C588.554 223.918 583.11 217.436 582.907 210.042C582.808 206.569 583.802 203.095 583.351 199.654C583.101 197.69 582.388 195.831 581.284 194.258C579.586 191.836 577.025 190.211 575.643 187.512C573.304 183 575.081 177.138 573.396 172.294C572.878 170.81 571.841 169.326 570.391 169.212C568.94 169.097 567.7 170.412 566.311 170.999C563.423 172.227 560.3 170.143 557.887 168.004C555.474 165.866 552.752 163.438 549.678 163.916C547.648 164.227 546.049 165.738 544.179 166.527C542.797 167.107 539.995 167.627 538.785 166.352C536.23 163.782 542.149 157.124 543.216 154.722Z" fill="#591D4B"/>
<path opacity="0.1" d="M605.915 232.559C604.878 230.333 604.199 227.77 602.434 226.191C600.854 224.775 598.731 224.431 596.756 223.797C590.27 221.699 584.826 215.216 584.616 207.823C584.518 204.349 585.511 200.869 585.067 197.428C584.808 195.477 584.097 193.631 582.999 192.066C581.296 189.644 578.735 188.018 577.358 185.32C575.019 180.814 576.797 174.952 575.106 170.102C574.594 168.625 573.55 167.141 572.106 167.019C570.662 166.898 569.409 168.227 568.027 168.814C565.138 170.041 562.009 167.95 559.602 165.819C557.195 163.687 554.461 161.252 551.394 161.724C549.364 162.041 547.759 163.552 545.895 164.335C544.513 164.915 541.704 165.441 540.495 164.166C537.952 161.468 543.871 154.824 544.932 152.436C545.815 150.466 546.253 148.274 547.315 146.412C547.37 146.311 547.432 146.209 547.494 146.108C546.699 146.827 546.014 147.679 545.463 148.631C544.408 150.493 543.969 152.678 543.087 154.655C542.019 157.043 536.101 163.707 538.649 166.385C539.884 167.667 542.661 167.141 544.044 166.561C545.895 165.772 547.512 164.261 549.542 163.95C552.628 163.471 555.344 165.906 557.751 168.038C560.158 170.17 563.305 172.261 566.181 171.033C567.564 170.446 568.774 169.124 570.255 169.245C571.736 169.367 572.724 170.844 573.26 172.328C574.945 177.171 573.168 183.033 575.507 187.546C576.889 190.197 579.451 191.857 581.148 194.292C582.252 195.865 582.965 197.724 583.215 199.688C583.666 203.128 582.672 206.602 582.771 210.076C582.975 217.496 588.418 223.952 594.911 226.056C596.867 226.69 599.003 227.028 600.583 228.444C602.354 230.029 603.051 232.593 604.064 234.819C607.409 242.016 615.537 246.118 622.721 244.222L621.289 242.455C615.062 242.556 608.76 238.684 605.915 232.559Z" fill="black"/>
<path opacity="0.1" d="M563.367 201.772C562.559 203.122 560.244 210.029 558.313 216.059C556.504 215.29 554.863 210.386 554.863 210.386L564.503 195.398C565.49 196.882 564.842 199.344 563.367 201.772Z" fill="black"/>
<path d="M563.738 201.368C562.929 202.717 560.615 209.624 558.683 215.655C556.875 214.892 555.233 209.982 555.233 209.982L564.873 195C565.861 196.477 565.213 198.946 563.738 201.368Z" fill="#DCE7FF"/>
<path d="M507.686 270.28L502.341 251.858C502.278 251.642 502.254 251.415 502.272 251.189C502.289 250.964 502.347 250.744 502.442 250.543C502.537 250.342 502.668 250.163 502.826 250.017C502.985 249.871 503.168 249.761 503.366 249.693C503.764 249.557 504.194 249.598 504.564 249.808C504.934 250.018 505.213 250.379 505.341 250.812L510.685 269.214L510.155 273.066L507.686 270.28Z" fill="#BE8B87"/>
<path opacity="0.1" d="M502.847 250.239C503.246 250.101 503.678 250.142 504.049 250.352C504.421 250.562 504.701 250.924 504.828 251.359L510.173 269.761L509.772 272.648L510.161 273.093L510.691 269.241L505.316 250.839C505.188 250.406 504.909 250.045 504.539 249.835C504.169 249.626 503.739 249.584 503.341 249.72C503.006 249.838 502.717 250.076 502.52 250.394C502.625 250.333 502.734 250.281 502.847 250.239Z" fill="white"/>
<path d="M507.686 270.28L510.685 269.241L510.247 272.398L510.154 273.093L509.278 272.095L507.686 270.28Z" fill="#EFC8C4"/>
<path d="M509.278 272.095C509.33 272.023 509.395 271.963 509.469 271.919C509.513 271.889 509.563 271.873 509.614 271.873C509.666 271.873 509.716 271.889 509.759 271.919C509.801 271.975 509.837 272.036 509.864 272.101C509.905 272.176 509.961 272.239 510.027 272.287C510.093 272.335 510.168 272.366 510.247 272.378L510.154 273.053L509.278 272.095Z" fill="#727A9C"/>
<path d="M502.31 258.401C502.31 258.401 513.031 258.334 510.506 263.319C507.982 268.304 504.038 268.904 504.038 268.904L502.31 258.401Z" fill="#FFB0B1"/>
<path d="M435.637 34.6855H435.174C416.758 34.6855 400.471 45.3367 391.102 61.0538C381.733 45.3367 365.446 34.6855 347.03 34.6855H346.567C332.746 34.8295 319.535 40.9292 309.806 51.6592C300.077 62.3891 294.615 76.8822 294.607 91.9889C294.607 110.748 302.124 137.366 316.782 159.269C344.709 201.003 391.102 237.517 391.102 237.517C391.102 237.517 437.495 201.01 465.416 159.269C480.08 137.366 487.591 110.748 487.591 91.9889C487.583 76.8833 482.122 62.3913 472.394 51.6615C462.666 40.9318 449.457 34.8313 435.637 34.6855ZM429.015 162.48C426.918 162.471 424.872 161.769 423.146 160.467C421.42 159.164 420.094 157.322 419.344 155.181H408.333C407.608 155.176 406.903 154.924 406.315 154.459C405.728 153.995 405.288 153.342 405.056 152.591L401.674 141.454L390.972 182.325C390.764 183.112 390.328 183.804 389.729 184.296C389.13 184.789 388.401 185.056 387.652 185.057H387.436C386.654 185.016 385.909 184.682 385.325 184.113C384.741 183.543 384.353 182.772 384.227 181.927L373.198 109.426L365.138 152.328C364.953 153.143 364.524 153.867 363.918 154.384C363.313 154.901 362.567 155.182 361.799 155.181H346.289C345.824 155.203 345.36 155.121 344.925 154.941C344.489 154.762 344.092 154.488 343.756 154.136C343.42 153.784 343.153 153.361 342.97 152.893C342.787 152.426 342.693 151.922 342.693 151.414C342.693 150.905 342.787 150.402 342.97 149.934C343.153 149.466 343.42 149.043 343.756 148.692C344.092 148.34 344.489 148.066 344.925 147.886C345.36 147.706 345.824 147.625 346.289 147.646H359.083L370.501 89.9652C370.688 89.1124 371.141 88.3572 371.781 87.8288C372.422 87.3004 373.21 87.0315 374.012 87.0682C374.814 87.1048 375.579 87.4447 376.177 88.0297C376.775 88.6147 377.168 89.4086 377.29 90.2755L388.553 164.234L398.144 127.666C398.344 126.896 398.766 126.217 399.348 125.731C399.929 125.244 400.639 124.977 401.372 124.968H401.44C402.165 124.968 402.872 125.219 403.459 125.684C404.046 126.149 404.485 126.805 404.711 127.558L410.827 147.667H419.208C419.804 145.688 420.888 143.927 422.342 142.58C423.795 141.232 425.561 140.35 427.444 140.03C429.328 139.71 431.255 139.965 433.014 140.767C434.774 141.568 436.296 142.886 437.413 144.573C438.531 146.261 439.2 148.253 439.346 150.33C439.493 152.407 439.112 154.488 438.245 156.343C437.378 158.199 436.059 159.756 434.434 160.843C432.808 161.931 430.939 162.507 429.033 162.507L429.015 162.48Z" fill="#6C63FF"/>
</g>
<defs>
<linearGradient id="paint0_linear_5_371" x1="219.917" y1="522.691" x2="219.917" y2="107.612" gradientUnits="userSpaceOnUse">
<stop stop-color="#808080" stop-opacity="0.25"/>
<stop offset="0.54" stop-color="#808080" stop-opacity="0.12"/>
<stop offset="1" stop-color="#808080" stop-opacity="0.1"/>
</linearGradient>
<linearGradient id="paint1_linear_5_371" x1="551.4" y1="517.443" x2="551.4" y2="138.344" gradientUnits="userSpaceOnUse">
<stop stop-color="#808080" stop-opacity="0.25"/>
<stop offset="0.54" stop-color="#808080" stop-opacity="0.12"/>
<stop offset="1" stop-color="#808080" stop-opacity="0.1"/>
</linearGradient>
<clipPath id="clip0_5_371">
<rect width="682" height="528" fill="white"/>
</clipPath>
</defs>
</svg>
