<svg width="398" height="363" viewBox="0 0 398 363" fill="none" xmlns="http://www.w3.org/2000/svg">
<g clip-path="url(#clip0_187_3609)">
<path d="M88.7698 336.271C88.7698 336.271 68.6157 316.987 64.8084 292.457C63.2644 282.154 59.123 272.762 53.0054 265.691C50.0788 262.364 46.9179 259.383 43.5623 256.786" stroke="#535461" stroke-width="2" stroke-miterlimit="10"/>
<path d="M41.0961 241.332C42.8623 244.356 43.6612 257.171 43.6612 257.171C43.6612 257.171 34.2181 252.463 32.4482 249.444C31.5983 247.993 31.2387 246.173 31.4487 244.386C31.6586 242.599 32.4208 240.991 33.5676 239.915C34.7144 238.84 36.1518 238.385 37.5637 238.65C38.9756 238.916 40.2462 239.881 41.0961 241.332Z" fill="#6C63FF"/>
<path d="M58.0329 251.387C58.2161 255.139 53.3901 266.447 53.3901 266.447C53.3901 266.447 47.4794 255.993 47.2926 252.241C47.2215 250.452 47.7102 248.7 48.6527 247.364C49.5952 246.028 50.9157 245.216 52.3279 245.103C53.7402 244.991 55.1306 245.588 56.1977 246.764C57.2649 247.94 57.9229 249.601 58.0292 251.387H58.0329Z" fill="#6C63FF"/>
<path d="M74.4493 280.291C73.1155 283.649 64.4346 290.328 64.4346 290.328C64.4346 290.328 63.5075 277.527 64.8413 274.169C65.4979 272.59 66.6181 271.4 67.9608 270.856C69.3034 270.311 70.7613 270.456 72.0205 271.258C73.2798 272.061 74.2399 273.457 74.6941 275.146C75.1484 276.835 75.0605 278.683 74.4493 280.291Z" fill="#6C63FF"/>
<path d="M82.9837 305.689C82.1152 309.283 74.453 317.719 74.453 317.719C74.453 317.719 71.8256 305.304 72.6941 301.705C73.1115 299.978 74.0539 298.531 75.3138 297.684C76.5738 296.836 78.0483 296.657 79.4127 297.185C80.7772 297.713 81.92 298.906 82.5897 300.501C83.2594 302.095 83.4011 303.962 82.9837 305.689Z" fill="#6C63FF"/>
<path d="M44.6542 275.537C47.5857 276.038 56.8529 270.741 56.8529 270.741C56.8529 270.741 49.0331 262.542 46.087 262.041C44.6729 261.8 43.2413 262.28 42.1071 263.376C40.9728 264.471 40.2289 266.092 40.0389 267.882C39.8489 269.672 40.2284 271.484 41.094 272.919C41.9595 274.355 43.2401 275.297 44.6542 275.537Z" fill="#6C63FF"/>
<path d="M54.9328 305.086C57.8643 304.45 65.4386 295.893 65.4386 295.893C65.4386 295.893 56.0357 291.033 53.1079 291.668C52.4069 291.814 51.7356 292.133 51.1328 292.609C50.5299 293.084 50.0075 293.706 49.5956 294.439C49.1836 295.171 48.8904 296 48.7328 296.876C48.5752 297.753 48.5564 298.661 48.6773 299.546C48.7983 300.432 49.0567 301.279 49.4377 302.038C49.8186 302.797 50.3145 303.453 50.8968 303.968C51.479 304.483 52.1361 304.847 52.8301 305.039C53.5241 305.231 54.2412 305.247 54.9401 305.086H54.9328Z" fill="#6C63FF"/>
<path d="M68.033 332.074C71.0048 332.074 79.6161 325.261 79.6161 325.261C79.6161 325.261 71.0012 318.457 68.0293 318.457C66.6027 318.457 65.2344 319.174 64.2256 320.451C63.2168 321.728 62.65 323.46 62.65 325.266C62.65 327.071 63.2168 328.803 64.2256 330.08C65.2344 331.357 66.6027 332.074 68.0293 332.074H68.033Z" fill="#6C63FF"/>
<path d="M284.558 169.476C284.558 169.476 296.98 141.625 315.705 133.601C323.568 130.296 330.372 123.854 335.097 115.24C337.313 111.122 339.225 106.754 340.81 102.193" stroke="#535461" stroke-width="2" stroke-miterlimit="10"/>
<path d="M352.565 97.0913C350.433 99.7071 340.506 102.416 340.506 102.416C340.506 102.416 342.943 89.9395 345.075 87.3191C346.105 86.0992 347.471 85.4398 348.881 85.4827C350.291 85.5256 351.631 86.2674 352.613 87.5485C353.595 88.8296 354.14 90.5474 354.131 92.3322C354.122 94.117 353.56 95.826 352.565 97.0913Z" fill="#6C63FF"/>
<path d="M346.951 119.646C344.02 120.379 334.54 115.824 334.54 115.824C334.54 115.824 341.942 107.012 344.855 106.293C345.555 106.097 346.278 106.079 346.983 106.241C347.688 106.403 348.36 106.742 348.96 107.238C349.56 107.733 350.076 108.376 350.477 109.127C350.879 109.878 351.157 110.724 351.297 111.613C351.437 112.503 351.434 113.418 351.291 114.307C351.147 115.195 350.864 116.038 350.459 116.787C350.054 117.535 349.536 118.173 348.933 118.664C348.331 119.155 347.657 119.489 346.951 119.646Z" fill="#6C63FF"/>
<path d="M326.519 144.079C323.712 142.849 317.332 132.85 317.332 132.85C317.332 132.85 327.226 129.984 330.04 131.213C330.717 131.497 331.341 131.948 331.879 132.54C332.416 133.132 332.855 133.853 333.17 134.662C333.486 135.47 333.671 136.35 333.715 137.25C333.76 138.15 333.663 139.052 333.43 139.904C333.196 140.756 332.832 141.541 332.357 142.213C331.882 142.885 331.307 143.431 330.664 143.82C330.021 144.208 329.323 144.431 328.612 144.475C327.9 144.52 327.189 144.385 326.519 144.079Z" fill="#6C63FF"/>
<path d="M307.742 158.159C304.811 157.547 297.204 149.036 297.204 149.036C297.204 149.036 306.581 144.092 309.509 144.705C310.918 144.998 312.177 145.988 313.01 147.456C313.842 148.925 314.18 150.752 313.948 152.536C313.716 154.319 312.934 155.913 311.774 156.967C310.613 158.021 309.17 158.448 307.761 158.155L307.742 158.159Z" fill="#6C63FF"/>
<path d="M326.262 106.07C326.259 109.832 331.649 120.745 331.649 120.745C331.649 120.745 337.032 109.846 337.032 106.089C337.051 105.18 336.925 104.276 336.664 103.429C336.402 102.583 336.009 101.811 335.507 101.16C335.006 100.509 334.407 99.9915 333.745 99.6382C333.084 99.2848 332.373 99.1028 331.654 99.1028C330.936 99.1028 330.225 99.2848 329.563 99.6382C328.902 99.9915 328.303 100.509 327.801 101.16C327.3 101.811 326.907 102.583 326.645 103.429C326.383 104.276 326.258 105.18 326.277 106.089L326.262 106.07Z" fill="#6C63FF"/>
<path d="M304.485 122.888C305.372 126.477 313.081 134.849 313.081 134.849C313.081 134.849 315.647 122.41 314.752 118.82C314.289 117.157 313.333 115.786 312.087 114.997C310.841 114.208 309.402 114.061 308.072 114.588C306.742 115.116 305.626 116.275 304.958 117.823C304.29 119.371 304.123 121.187 304.492 122.888H304.485Z" fill="#6C63FF"/>
<path d="M285.111 142.91C285.507 146.62 291.986 156.532 291.986 156.532C291.986 156.532 296.167 144.821 295.771 141.096C295.692 140.194 295.472 139.321 295.123 138.528C294.774 137.735 294.303 137.038 293.738 136.479C293.173 135.919 292.525 135.509 291.833 135.271C291.141 135.033 290.418 134.973 289.707 135.094C288.997 135.215 288.312 135.514 287.694 135.975C287.076 136.436 286.537 137.048 286.109 137.777C285.68 138.505 285.372 139.334 285.2 140.216C285.029 141.097 284.999 142.013 285.111 142.91Z" fill="#6C63FF"/>
<path opacity="0.25" d="M352.565 97.0913C350.433 99.7071 340.506 102.416 340.506 102.416C340.506 102.416 342.943 89.9395 345.075 87.3191C346.105 86.0992 347.471 85.4398 348.881 85.4827C350.291 85.5256 351.631 86.2674 352.613 87.5485C353.595 88.8296 354.14 90.5474 354.131 92.3322C354.122 94.117 353.56 95.826 352.565 97.0913Z" fill="black"/>
<path opacity="0.25" d="M346.951 119.646C344.02 120.379 334.54 115.824 334.54 115.824C334.54 115.824 341.942 107.012 344.855 106.293C345.555 106.097 346.278 106.079 346.983 106.241C347.688 106.403 348.36 106.742 348.96 107.238C349.56 107.733 350.076 108.376 350.477 109.127C350.879 109.878 351.157 110.724 351.297 111.613C351.437 112.503 351.434 113.418 351.291 114.307C351.147 115.195 350.864 116.038 350.459 116.787C350.054 117.535 349.536 118.173 348.933 118.664C348.331 119.155 347.657 119.489 346.951 119.646Z" fill="black"/>
<path opacity="0.25" d="M326.519 144.079C323.712 142.849 317.332 132.85 317.332 132.85C317.332 132.85 327.226 129.984 330.04 131.213C330.717 131.497 331.341 131.948 331.879 132.54C332.416 133.132 332.855 133.853 333.17 134.662C333.486 135.47 333.671 136.35 333.715 137.25C333.76 138.15 333.663 139.052 333.43 139.904C333.196 140.756 332.832 141.541 332.357 142.213C331.882 142.885 331.307 143.431 330.664 143.82C330.021 144.208 329.323 144.431 328.612 144.475C327.9 144.52 327.189 144.385 326.519 144.079Z" fill="black"/>
<path opacity="0.25" d="M307.742 158.159C304.811 157.547 297.204 149.036 297.204 149.036C297.204 149.036 306.581 144.092 309.509 144.705C310.918 144.998 312.177 145.988 313.01 147.456C313.842 148.925 314.18 150.752 313.948 152.536C313.716 154.319 312.934 155.913 311.774 156.967C310.613 158.021 309.17 158.448 307.761 158.155L307.742 158.159Z" fill="black"/>
<path opacity="0.25" d="M326.262 106.07C326.259 109.832 331.649 120.745 331.649 120.745C331.649 120.745 337.032 109.846 337.032 106.089C337.051 105.18 336.925 104.276 336.664 103.429C336.402 102.583 336.009 101.811 335.507 101.16C335.006 100.509 334.407 99.9915 333.745 99.6382C333.084 99.2848 332.373 99.1028 331.654 99.1028C330.936 99.1028 330.225 99.2848 329.563 99.6382C328.902 99.9915 328.303 100.509 327.801 101.16C327.3 101.811 326.907 102.583 326.645 103.429C326.383 104.276 326.258 105.18 326.277 106.089L326.262 106.07Z" fill="black"/>
<path opacity="0.25" d="M304.485 122.888C305.372 126.477 313.081 134.849 313.081 134.849C313.081 134.849 315.647 122.41 314.752 118.82C314.289 117.157 313.333 115.786 312.087 114.997C310.841 114.208 309.402 114.061 308.072 114.588C306.742 115.116 305.626 116.275 304.958 117.823C304.29 119.371 304.123 121.187 304.492 122.888H304.485Z" fill="black"/>
<path opacity="0.25" d="M285.111 142.91C285.507 146.62 291.986 156.532 291.986 156.532C291.986 156.532 296.167 144.821 295.771 141.096C295.692 140.194 295.472 139.321 295.123 138.528C294.774 137.735 294.303 137.038 293.738 136.479C293.173 135.919 292.525 135.509 291.833 135.271C291.141 135.033 290.418 134.973 289.707 135.094C288.997 135.215 288.312 135.514 287.694 135.975C287.076 136.436 286.537 137.048 286.109 137.777C285.68 138.505 285.372 139.334 285.2 140.216C285.029 141.097 284.999 142.013 285.111 142.91Z" fill="black"/>
<path d="M285.272 168.924C285.272 168.924 287.713 137.089 302.246 120.16C308.376 113.105 312.534 103.726 314.097 93.4272C314.808 88.5315 315.162 83.5635 315.156 78.5857" stroke="#535461" stroke-width="2" stroke-miterlimit="10"/>
<path d="M324.265 67.8442C323.166 71.3319 314.943 78.9011 314.943 78.9011C314.943 78.9011 313.177 66.2441 314.287 62.7563C314.821 61.0816 315.86 59.7442 317.173 59.0384C318.487 58.3325 319.968 58.3161 321.291 58.9926C322.615 59.6691 323.671 60.9832 324.229 62.6458C324.787 64.3084 324.8 66.1833 324.265 67.8581V67.8442Z" fill="#6C63FF"/>
<path d="M326.358 91.3681C323.928 93.5294 313.789 94.239 313.789 94.239C313.789 94.239 317.739 82.3936 320.169 80.2323C320.745 79.6866 321.402 79.2926 322.1 79.0739C322.799 78.8552 323.525 78.8162 324.236 78.9591C324.946 79.102 325.627 79.4239 326.238 79.9059C326.849 80.3878 327.377 81.02 327.791 81.7649C328.205 82.5098 328.497 83.3523 328.649 84.2425C328.802 85.1328 328.811 86.0526 328.678 86.9477C328.544 87.8427 328.27 88.6947 327.871 89.4532C327.473 90.2117 326.958 90.8613 326.358 91.3635V91.3681Z" fill="#6C63FF"/>
<path d="M315.489 124.195C312.528 124.511 303.492 118.63 303.492 118.63C303.492 118.63 311.627 110.931 314.587 110.616C316.009 110.464 317.42 111.034 318.51 112.2C319.6 113.365 320.28 115.031 320.399 116.83C320.519 118.63 320.069 120.416 319.148 121.795C318.227 123.175 316.911 124.035 315.489 124.186V124.195Z" fill="#6C63FF"/>
<path d="M302.843 146.685C299.967 147.613 290.278 143.777 290.278 143.777C290.278 143.777 297.266 134.45 300.143 133.504C301.524 133.051 302.99 133.31 304.22 134.226C305.45 135.141 306.342 136.637 306.7 138.385C307.058 140.133 306.853 141.99 306.13 143.546C305.406 145.103 304.224 146.232 302.843 146.685Z" fill="#6C63FF"/>
<path d="M303.1 89.5684C304.302 93.0052 312.708 100.236 312.708 100.236C312.708 100.236 314.137 87.5092 312.935 84.0724C312.336 82.4645 311.264 81.2168 309.948 80.596C308.632 79.9751 307.176 80.0304 305.892 80.7499C304.608 81.4693 303.597 82.796 303.075 84.4465C302.553 86.0969 302.562 87.9401 303.1 89.5823V89.5684Z" fill="#6C63FF"/>
<path d="M288.574 116.107C290.535 118.931 300.26 122.633 300.26 122.633C300.26 122.633 298.618 109.948 296.658 107.123C296.195 106.437 295.629 105.874 294.993 105.467C294.357 105.06 293.663 104.817 292.952 104.752C292.242 104.688 291.528 104.802 290.852 105.09C290.176 105.377 289.553 105.832 289.017 106.427C288.481 107.022 288.045 107.746 287.732 108.557C287.419 109.368 287.237 110.249 287.196 111.15C287.155 112.05 287.255 112.952 287.492 113.803C287.729 114.654 288.096 115.437 288.574 116.107Z" fill="#6C63FF"/>
<path d="M277.255 144.362C278.808 147.562 287.9 153.29 287.9 153.29C287.9 153.29 287.977 140.438 286.434 137.233C285.666 135.753 284.473 134.71 283.108 134.325C281.742 133.94 280.312 134.244 279.121 135.171C277.929 136.098 277.07 137.576 276.725 139.292C276.38 141.008 276.576 142.826 277.273 144.362H277.255Z" fill="#6C63FF"/>
<path d="M266.584 44.2509C267.192 41.4264 267.925 38.5879 268.438 35.7263C267.823 38.5879 267.086 41.4357 266.584 44.2509Z" fill="url(#paint0_linear_187_3609)"/>
<path d="M263.858 71.4572C263.807 71.3459 263.77 71.2346 263.73 71.1325C263.73 71.0862 263.693 71.0491 263.678 71.0027C263.598 71.0504 263.516 71.0922 263.433 71.1279C263.272 71.2068 263.107 71.281 262.938 71.3412C262.77 71.4015 262.7 71.434 262.572 71.4711C262.465 71.5175 262.356 71.5532 262.246 71.5778L262.275 71.6613C262.41 71.6242 262.542 71.5917 262.678 71.5453L262.715 72.1204C262.868 72.1204 263.011 72.0926 263.151 72.0926C263.217 72.088 263.283 72.088 263.349 72.0926C263.634 72.0926 263.884 72.0926 264.081 72.0926C264.004 71.8839 263.924 71.6659 263.858 71.4572ZM338.245 221.324C336.523 218.388 333.085 186.878 333.085 186.878C333.085 186.878 326.325 164.472 328.168 155.53C330.011 146.588 323.133 123.709 323.133 123.709C323.133 123.709 318.589 121.209 318.344 117.498C318.344 117.498 299.791 110.078 298.922 104.512C298.219 99.9482 286.713 96.6738 282.579 95.6396C281.319 89.2021 280.051 83.1959 279.116 79.9169C278.864 78.8965 278.625 78.0153 278.406 77.3196C276.826 72.2178 271.945 71.754 268.405 72.1622C268.252 71.2926 267.967 70.4689 267.566 69.7365C267.508 69.4847 267.392 69.2604 267.233 69.0918C267.157 69.0099 267.076 68.9355 266.991 68.8692C266.927 68.7189 266.843 68.5839 266.742 68.4703C266.641 68.3557 266.531 68.2561 266.412 68.1735C266.327 68.1152 266.239 68.0641 266.148 68.0205C265.936 67.9181 265.716 67.842 265.492 67.7932C265.231 67.7253 264.967 67.6819 264.701 67.6633C265.347 67.3053 265.924 66.7717 266.39 66.1003C266.707 65.629 266.943 65.0794 267.083 64.4863C267.199 63.9931 267.251 63.4794 267.236 62.9651C267.141 63.177 267.031 63.3773 266.907 63.5634C267.061 61.5088 266.203 59.4217 265.712 57.3763C265.117 54.7136 265.007 51.9148 265.39 49.1903C265.881 45.0811 267.097 40.9254 267.922 36.742C267.924 36.7189 267.924 36.6955 267.922 36.6724C268.354 34.5948 268.622 32.4678 268.721 30.323C268.863 25.9958 267.988 21.6779 266.581 17.7356C265.331 14.2432 263.488 10.8065 260.666 9.38725C258.57 8.31588 256.221 8.48748 253.964 8.31124C248.9 7.91237 244.07 5.65832 239.255 3.60834C234.44 1.55835 229.486 -0.306111 224.418 0.0510124C219.35 0.408136 214.136 3.50166 211.824 9.17854C211.091 10.9502 210.669 12.9214 209.794 14.5864C208.152 17.7263 205.213 19.2986 202.762 21.4645C200.31 23.6305 198.152 26.7054 197.265 30.3741C196.781 32.3506 196.712 34.4529 197.067 36.473C197.147 36.9292 197.25 37.3785 197.375 37.818C197.723 39.0435 198.265 40.1658 198.969 41.1156C199.5 41.8176 200.11 42.4162 200.779 42.8919C201.62 43.4817 202.52 43.9248 203.454 44.2091C203.421 44.3483 203.388 44.4967 203.352 44.6405C203.293 44.877 203.242 45.1043 203.187 45.3593C203.066 45.9298 202.952 46.5096 202.857 47.0939C202.853 47.1355 202.853 47.1776 202.857 47.2192C202.407 49.8572 202.181 52.5486 202.183 55.2475C202.182 56.5239 202.233 57.7995 202.336 59.0692C203.802 77.8901 216.078 92.7362 231.245 93.7009C231.765 93.7334 232.289 93.7519 232.821 93.7519C233.062 93.7519 233.301 93.7519 233.553 93.7519C233.792 94.1508 234.026 94.5589 234.25 94.9578C234.473 95.3567 234.678 95.7648 234.873 96.1637L234.341 95.468L233.81 94.8511C233.666 95.1014 233.505 95.3356 233.33 95.5515C232.983 95.3972 232.63 95.2702 232.271 95.1711C230.75 94.7444 228.434 94.5868 225.385 95.7509C222.582 96.813 219.156 98.9975 215.147 103.148L195.612 117.99L185.044 126.125L181.237 137.905C181.237 137.905 178.375 151.903 175.191 167.941C175.066 167.987 174.945 168.034 174.824 168.089C174.566 168.052 174.307 168.034 174.047 168.034C172.2 168.028 170.423 168.929 169.089 170.547C167.755 172.165 166.968 174.375 166.895 176.711C160.562 186.451 160.203 196.191 161.691 200.662C161.826 201.081 161.995 201.48 162.197 201.854C163.172 203.635 164.993 208.226 166.84 213.119C166.792 213.523 166.763 213.861 166.748 214.117C166.745 214.2 166.745 214.284 166.748 214.367C166.748 214.367 167.847 235.382 164.183 241.406C163.38 242.719 163.501 244.444 164.183 246.355C166.638 253.229 176.345 262.407 176.345 262.407C176.345 262.407 187.987 262.328 194.473 261.433C194.454 262.259 194.44 263.08 194.425 263.882C194.279 271.989 194.279 278.784 194.279 278.784L194.037 287.285C194.037 287.285 191.838 305.202 190.739 310.141C190.046 313.239 190.845 341.925 191.541 363.014H306.244C307.592 350.538 305.691 312.632 305.691 312.632C305.691 312.632 303.884 302.832 303.818 294.288C303.814 294.279 303.813 294.269 303.813 294.258C303.813 294.248 303.814 294.238 303.818 294.228C303.818 293.481 303.818 292.753 303.84 292.039L304.672 292.002L306.167 291.937H306.302C306.302 291.937 306.339 291.761 306.423 291.473C306.621 290.757 306.891 290.076 307.226 289.446C307.863 288.254 308.86 287.086 310.359 287.007C311.187 286.965 312.47 286.116 313.917 284.864C313.927 284.867 313.937 284.867 313.946 284.864C317.842 281.529 322.99 275.375 324.24 274.364C325.958 272.972 334.188 263.696 334.188 263.696C334.188 263.696 335.416 261.73 336.724 259.36L336.772 259.276C338.399 256.308 340.128 252.76 339.703 251.642C338.97 249.639 340.194 244.848 340.194 244.848C344.016 235.994 339.967 224.26 338.245 221.324ZM267.387 78.6692C267.422 78.8077 267.444 78.9509 267.453 79.0959C267.361 78.9429 267.269 78.7806 267.178 78.6321L267.09 78.4837L267.028 78.3724L267.167 78.1312C267.167 78.1312 267.167 78.1312 267.167 78.1637C267.264 78.3141 267.338 78.4853 267.387 78.6692ZM266.155 74.56C265.756 74.662 265.441 74.7548 265.236 74.8244C264.976 74.24 264.726 73.6556 264.503 73.0619C265.09 73.4933 265.644 73.995 266.155 74.56ZM265.467 75.2928C265.465 75.2836 265.465 75.2742 265.467 75.265L265.496 75.2928C265.646 75.418 265.793 75.5386 265.928 75.6638C266.049 75.7752 266.159 75.8818 266.269 75.9931C266.196 76.1555 266.115 76.3224 266.035 76.4569C265.906 76.2018 265.785 75.956 265.668 75.701C265.595 75.5989 265.529 75.4598 265.467 75.2928ZM263.268 69.5695C263.976 69.4812 264.689 69.4812 265.397 69.5695C265.496 69.5695 265.584 69.5927 265.672 69.6113C265.87 69.6502 266.066 69.7139 266.254 69.8014C266.687 70.5683 266.954 71.4654 267.028 72.4034L266.83 72.4405L266.635 72.4868C266.269 72.5657 265.903 72.6445 265.617 72.7187L265.25 72.8161C264.763 72.9506 264.481 73.0527 264.47 73.0573C264.422 72.9321 264.375 72.8161 264.323 72.6955C264.243 72.4961 264.158 72.292 264.085 72.0926C264.012 71.8932 263.917 71.6659 263.84 71.4572C263.788 71.3459 263.752 71.2346 263.711 71.1325C263.711 71.0862 263.675 71.0491 263.66 71.0027C263.639 70.9535 263.62 70.9023 263.605 70.8496C263.382 70.2745 263.176 69.6994 262.978 69.1336C262.956 69.0779 262.938 69.0176 262.92 68.962L263.198 68.9388V69.0594L263.268 69.5695ZM175.839 357.281C175.81 350.375 175.414 342.904 174.315 335.891C173.846 332.909 173.362 329.927 172.871 326.995C172.747 326.263 172.626 325.539 172.505 324.816L171.376 325.006H171.273C168.195 306.635 164.978 290.448 164.978 290.448C164.978 290.448 158.587 259.564 159.328 257.101C159.423 256.781 159.302 255.919 159.031 254.652C157.484 247.63 151.028 228.281 148.77 221.667C148.77 221.639 148.752 221.607 148.745 221.584C148.378 220.475 148.115 219.728 148.034 219.51L148.565 209.641L148.595 209.047L148.664 207.786L148.635 207.753L148.664 207.169C148.664 207.169 143.087 201.381 133.64 197.202C133.274 197.035 132.885 196.873 132.501 196.715C132.973 192.722 133.6 188.213 134.417 183.821C134.494 183.381 134.578 182.954 134.666 182.523C134.743 182.091 134.831 181.674 134.919 181.252C135.058 180.565 135.209 179.888 135.362 179.22C135.872 179.016 136.374 178.789 136.869 178.548L137.059 178.455C143.153 175.454 148.182 169.759 151.214 162.426C154.245 155.092 155.075 146.617 153.549 138.569C152.679 134.004 151.072 129.717 148.829 125.977C148.661 125.689 148.481 125.401 148.301 125.119C148.122 124.836 147.906 124.52 147.704 124.233C148.763 121.186 150.013 118.287 150.115 115.323C150.134 114.948 150.134 114.571 150.115 114.196V114.15C149.98 112.244 149.313 110.314 147.759 108.287C145.491 105.314 142.263 103.807 139.034 103.084C135.806 102.36 132.515 102.341 129.269 101.854C123.886 101.038 118.642 98.9372 113.259 98.2925C106.628 97.5154 99.9531 98.9547 93.8999 102.467C89.8948 104.786 85.8383 108.839 85.5964 114.4C85.3986 118.996 87.927 123.402 87.2894 127.943C86.6555 132.405 83.0644 135.916 83.3795 140.428C83.5004 142.191 84.215 143.768 85.1091 145.173C85.4169 145.637 85.743 146.101 86.0801 146.564C87.3847 148.313 88.8211 149.992 89.5503 152.195C89.5796 152.288 89.6089 152.381 89.6346 152.473C90.2539 154.648 89.9754 157.399 88.4437 158.646C88.4522 158.655 88.4585 158.666 88.462 158.679C88.484 158.716 88.506 158.744 88.5243 158.781C88.5265 158.773 88.5265 158.765 88.5243 158.758C89.0674 159.573 89.7995 160.15 90.6167 160.409L90.9281 160.529C90.6753 160.877 90.4371 161.239 90.1952 161.619L90.0377 161.884C89.6338 162.571 89.2666 163.291 88.9384 164.04C88.7515 164.458 88.5719 164.875 88.4217 165.293C87.9194 166.565 87.5558 167.918 87.3407 169.314C86.9486 172.384 87.5019 175.584 86.9083 178.59C86.1754 182.3 83.8559 185.148 82.5477 188.594C80.0705 195.087 81.474 202.707 81.9724 209.877C82.6503 219.617 81.551 229.399 80.4553 239.073C79.8739 244.218 79.2925 249.368 78.7111 254.523C77.2453 267.459 75.7796 280.396 74.3138 293.333C73.7788 298.073 73.1449 303.073 70.6494 306.732H70.6751C70.6751 306.732 70.6751 306.76 70.6494 306.769C71.3985 307.184 72.1952 307.444 73.0093 307.539C76.2669 307.952 79.7188 305.958 82.6503 303.778C84.9718 302.08 87.1705 300.126 89.2205 297.939C88.92 299.33 88.5976 300.847 88.2531 302.479C88.2543 302.495 88.2543 302.51 88.2531 302.526C84.116 322.469 77.4615 359.03 77.4615 359.03C77.4615 359.03 76.8569 360.621 76.0727 362.991H179.408C178.199 361.136 177.074 359.359 176.195 357.926L175.839 357.281ZM99.3269 172.876C99.3526 172.82 99.3709 172.769 99.3965 172.718C99.3965 172.866 99.3965 173.01 99.3965 173.149C99.3965 173.288 99.3965 173.414 99.3965 173.544C99.3965 173.673 99.3965 173.66 99.3965 173.724C99.3965 173.915 99.3635 174.105 99.3379 174.295C99.3379 174.295 99.3379 174.318 99.3379 174.337L99.7043 174.508L100.129 174.731C102.641 175.986 105.184 177.123 107.759 178.14C108.022 178.246 108.29 178.348 108.557 178.446L108.612 179.021C108.678 179.61 108.741 180.208 108.799 180.807C108.799 180.807 108.799 180.834 108.799 180.853C108.964 182.509 109.125 184.16 109.268 185.774C109.268 185.774 102.541 182.527 102.625 187.457C102.621 187.546 102.621 187.634 102.625 187.722C102.617 187.839 102.617 187.957 102.625 188.074C102.687 191.915 103.636 194.192 103.827 195.361C103.815 195.409 103.795 195.453 103.768 195.49C103.606 195.938 103.55 196.436 103.607 196.924C103.601 197.753 103.652 198.582 103.761 199.4C103.563 199.553 103.369 199.706 103.175 199.864C103.028 199.98 102.889 200.11 102.746 200.24C101.847 196.293 100.671 192.456 99.2316 188.775C98.2239 186.15 97.0916 183.413 97.1026 180.533C97.1026 180.347 97.1026 180.157 97.1209 179.967C97.1618 179.132 97.2874 178.308 97.4947 177.514C97.579 177.212 97.6706 176.915 97.7732 176.623C98.0127 175.929 98.2805 175.251 98.5757 174.592C98.7663 174.156 98.9678 173.724 99.162 173.288C99.2243 173.159 99.2829 173.024 99.3416 172.894L99.3269 172.876ZM263.858 71.4572C263.807 71.3459 263.77 71.2346 263.73 71.1325C263.73 71.0862 263.693 71.0491 263.678 71.0027C263.598 71.0504 263.516 71.0922 263.433 71.1279C263.272 71.2068 263.107 71.281 262.938 71.3412C262.77 71.4015 262.7 71.434 262.572 71.4711L262.246 71.5778L262.275 71.6613C262.41 71.6242 262.542 71.5917 262.678 71.5453L262.715 72.1204C262.868 72.1204 263.011 72.0926 263.151 72.0926H263.349C263.634 72.0926 263.884 72.0926 264.081 72.0926C264.004 71.8839 263.924 71.6659 263.858 71.4572Z" fill="url(#paint1_linear_187_3609)"/>
<path d="M183.791 139.58L181.592 140.809C181.592 140.809 167.261 211.278 167.261 216.973C167.261 222.669 197.65 254.36 197.65 254.36L202.391 213.852C202.391 213.852 195.583 120.958 183.791 139.58Z" fill="#E8F5FF"/>
<path d="M250.45 117.165L237.753 108.779C237.041 104.942 235.779 101.302 234.03 98.0421C232.172 94.6472 229.702 91.3125 226.624 89.5732C218.844 85.1579 259.53 61.9819 259.53 61.9819C260.171 64.766 260.926 67.5061 261.791 70.1911C263.887 76.74 267.365 85.2089 271.846 87.6206C279.464 91.7252 250.45 117.165 250.45 117.165Z" fill="#FFC1C7"/>
<path opacity="0.1" d="M261.791 70.1911C260.053 77.9296 256.437 84.7813 251.456 89.7787C246.475 94.7761 240.379 97.6666 234.03 98.0421C232.172 94.6472 229.702 91.3125 226.624 89.5732C218.844 85.1579 259.53 61.9819 259.53 61.9819C260.171 64.766 260.926 67.5061 261.791 70.1911Z" fill="black"/>
<path d="M262.934 58.4895C262.936 66.0789 261.159 73.4985 257.829 79.8097C254.498 86.1209 249.764 91.0403 244.224 93.9457C238.685 96.8511 232.589 97.612 226.708 96.1322C220.827 94.6524 215.424 90.9983 211.184 85.632C206.944 80.2658 204.056 73.4285 202.886 65.9849C201.716 58.5413 202.317 50.8258 204.611 43.8141C206.906 36.8025 210.792 30.8097 215.778 26.5937C220.764 22.3777 226.626 20.1279 232.623 20.1288C236.608 20.1055 240.558 21.0818 244.243 23.0012C247.929 24.9207 251.278 27.7454 254.096 31.3121C256.914 34.8788 259.147 39.1169 260.664 43.7816C262.181 48.4463 262.952 53.4451 262.934 58.4895Z" fill="#FFC1C7"/>
<path d="M267.31 112.239L259.043 136.653L251.751 152.858H228.409L221.6 130.703L224.359 107.726H242.187L253.696 106.905L257.584 105.263L260.091 107.063L267.31 112.239Z" fill="#575A89"/>
<path opacity="0.1" d="M264.462 79.6941C264.462 79.6941 269.618 81.0855 265.001 85.8766C260.384 90.6676 244.455 105.903 244.455 105.903C244.455 105.903 250.05 112.211 248.892 119.599L267.431 106.52L270.728 85.5936C270.728 85.5936 271.099 79.3045 264.462 79.6941Z" fill="black"/>
<path opacity="0.1" d="M248.101 105.903L236.309 108.366C236.309 108.366 238.742 119.752 237.526 122.985C237.489 123.085 237.458 123.189 237.434 123.296L232.623 139.756L236.228 152.682L248.709 131.139L244.455 122.985C244.455 122.985 248.951 115.444 251.626 112.828C254.301 110.212 248.101 105.903 248.101 105.903Z" fill="black"/>
<path d="M248.101 105.268L236.309 107.726C236.309 107.726 238.742 119.112 237.526 122.345C237.489 122.446 237.458 122.549 237.434 122.656L232.623 139.116L236.228 152.042L248.709 130.485L244.455 122.331C244.455 122.331 248.951 114.79 251.626 112.174C254.301 109.558 248.101 105.268 248.101 105.268Z" fill="#DCE6F2"/>
<path d="M264.957 78.4651C264.957 78.4651 270.113 79.8565 265.492 84.6475C260.871 89.4386 244.455 105.903 244.455 105.903C244.455 105.903 250.534 110.982 249.38 118.366L267.918 105.291L271.216 84.3646C271.216 84.3646 271.582 78.0755 264.957 78.4651Z" fill="#575A89"/>
<path opacity="0.1" d="M234.84 99.4937C234.84 99.4937 235.964 102.156 240.93 106.956C240.93 106.956 232.663 112.522 235.825 120.346L223.179 116.172L221.234 108.477L234.84 99.4937Z" fill="black"/>
<path d="M234.352 98.8816C234.352 98.8816 235.477 101.544 240.442 106.344C240.442 106.344 232.176 111.882 235.338 119.729L222.696 115.555L220.75 107.865L234.352 98.8816Z" fill="#575A89"/>
<path opacity="0.1" d="M267.31 112.239L259.043 136.653L251.765 152.858H228.409L221.6 130.703L224.356 107.726H229.314C229.233 113.088 230.779 119.386 230.68 121.728C230.512 125.578 235.217 146.347 235.217 146.347C235.217 146.347 245.063 126.19 248.951 124.395C251.395 123.268 256.573 113.89 260.087 107.063L267.31 112.239Z" fill="black"/>
<path d="M299.875 240.715L299.036 242.051C299.036 242.051 305.115 280.671 303.433 289.442C303.147 291.023 302.984 292.635 302.946 294.256V294.326C302.649 303.249 304.778 314.83 304.778 314.83C304.778 314.83 306.478 348.966 305.511 363.005H191.688C191.021 342.245 190.303 315.35 190.955 312.367C192.054 307.446 194.253 289.595 194.253 289.595L194.495 281.135C194.495 281.135 194.495 272.958 194.692 263.85C194.777 259.754 194.901 255.455 195.081 251.642C195.312 246.847 195.634 242.807 196.078 240.822C196.351 239.317 196.508 237.783 196.547 236.24C196.547 236.096 196.547 235.948 196.569 235.799C196.569 235.335 196.605 234.834 196.62 234.32C196.62 234.176 196.62 234.032 196.62 233.856C196.69 230.869 196.664 227.326 196.587 223.652C196.587 223.453 196.587 223.249 196.587 223.045C196.525 220.29 196.433 217.479 196.33 214.808C196.012 206.459 195.598 199.4 195.598 199.4L181.618 140.776L185.385 129.033L195.839 120.926L215.169 106.154C224.598 96.3446 230.805 97.5226 233.172 98.5986C233.402 98.6979 233.627 98.8141 233.846 98.9465C233.92 98.9929 233.978 99.03 234.033 99.0717C234.109 99.1168 234.181 99.1696 234.25 99.2294C233.601 99.6241 233.038 100.211 232.608 100.941C232.123 101.771 231.778 102.718 231.593 103.724C231.469 104.347 231.382 104.981 231.333 105.621C231.285 106.293 231.267 106.989 231.267 107.689C231.293 109.225 231.397 110.757 231.578 112.276C231.578 112.304 231.578 112.341 231.578 112.378C231.699 113.463 231.849 114.525 231.996 115.523C231.994 115.54 231.994 115.557 231.996 115.574C232.164 116.738 232.333 117.814 232.447 118.741C232.469 118.908 232.487 119.061 232.505 119.205C232.586 119.818 232.624 120.439 232.619 121.06C232.66 122.561 232.82 124.052 233.095 125.513C233.19 126.125 233.3 126.779 233.421 127.461C233.586 128.388 233.766 129.399 233.96 130.429C234.066 130.995 234.18 131.579 234.297 132.159C234.341 132.391 234.389 132.623 234.433 132.859L234.506 133.226C235.287 137.154 236.133 141.064 236.653 143.429C236.961 144.821 237.155 145.679 237.155 145.679C237.155 145.679 242.674 134.385 247.079 127.957C247.144 127.864 247.203 127.776 247.265 127.693C247.701 127.057 248.13 126.477 248.541 125.967C249.438 124.836 250.245 124.029 250.893 123.732C251.031 123.668 251.165 123.588 251.293 123.495C253.095 122.201 256.005 117.503 258.728 112.582C258.995 112.118 259.255 111.613 259.519 111.135C260.124 110.031 260.71 108.923 261.263 107.861C261.688 107.049 262.095 106.261 262.48 105.509C264.312 101.901 265.602 99.2109 265.602 99.2109L268.145 99.0671L268.588 99.0393H268.885L280.432 98.3621C280.432 98.3621 280.93 98.4688 281.751 98.6775C281.795 98.6775 281.839 98.6775 281.887 98.7146C285.983 99.7442 297.365 103.005 298.061 107.527C298.911 113.064 317.27 120.453 317.27 120.453C317.512 124.163 322.008 126.607 322.008 126.607C322.008 126.607 328.816 149.38 326.995 158.303C325.196 167.115 331.678 188.914 331.85 189.526L330.608 191.511L299.875 240.715Z" fill="#E8F5FF"/>
<path opacity="0.1" d="M264.459 78.0755C264.459 78.0755 275.697 74.0405 278.252 82.3471C280.806 90.6537 286.518 124.2 286.518 124.2C286.518 124.2 271.685 127.739 267.797 124.2C265.516 122.1 262.694 121.166 259.893 121.584L251.505 128.815L249.028 127.887C249.028 127.887 262.447 102.638 265.364 94.058C268.281 85.4777 269.266 81.6421 264.459 78.0755Z" fill="black"/>
<path d="M263.971 76.2203C263.971 76.2203 275.218 72.1853 277.783 80.4919C280.348 88.7985 286.049 122.345 286.049 122.345C286.049 122.345 271.22 125.884 267.328 122.345C265.049 120.245 262.227 119.31 259.428 119.729L251.033 126.96L248.555 126.032C248.555 126.032 261.974 100.783 264.891 92.2027C267.808 83.6225 268.779 79.7962 263.971 76.2203Z" fill="#E8F5FF"/>
<path opacity="0.1" d="M188.533 210.049C188.533 210.049 196.921 212.665 198.504 218.666C200.087 224.668 192.303 224.821 192.303 224.821C192.303 224.821 187.562 214.205 188.533 210.049Z" fill="black"/>
<path opacity="0.1" d="M219.775 254.36C219.775 254.36 199.233 307.6 203.974 312.678C208.716 317.757 219.775 254.36 219.775 254.36Z" fill="black"/>
<path opacity="0.1" d="M248.101 215.128C248.101 215.128 264.514 266.841 261.23 274.828C257.947 282.814 268.281 274.828 268.281 274.828L248.101 215.128Z" fill="black"/>
<path d="M270.956 266.21C270.956 266.21 215.521 269.596 231.692 291.445C247.863 313.295 281.047 292.373 281.047 292.373L270.956 266.21Z" fill="#FFC1C7"/>
<path opacity="0.1" d="M262.934 58.4895C262.939 63.5218 262.158 68.5057 260.637 73.1547C260.127 73.229 259.618 73.2753 259.127 73.3032C258.394 71.2671 258.786 68.9156 258.801 66.6755C258.816 64.4354 258.163 61.801 256.459 61.1981C253.062 59.9875 250.717 68.0251 247.368 66.5735C244.803 65.4696 245.473 60.5441 243.997 57.701C242.828 55.4516 240.486 54.8162 238.665 53.4063C234.792 50.3962 234.909 45.582 233.11 41.0275C231.226 36.2551 227.247 37.665 223.791 40.4802C221.168 42.623 218.903 45.4939 216.096 47.2007C213.667 48.6848 210.937 49.2228 208.243 49.3017C206.585 49.383 204.926 49.1612 203.318 48.6431C205.21 39.6426 209.623 31.8201 215.736 26.6344C221.848 21.4487 229.242 19.2537 236.538 20.4589C243.835 21.6641 250.536 26.1872 255.392 33.1846C260.248 40.182 262.927 49.176 262.931 58.4895H262.934Z" fill="black"/>
<path d="M223.802 39.2511C221.175 41.3939 218.914 44.2601 216.107 45.9762C213.678 47.4557 210.948 47.9937 208.254 48.0725C204.957 48.1653 201.406 47.4325 199.152 44.4178C197.082 41.635 196.587 37.3542 197.463 33.7041C198.339 30.054 200.438 27.0254 202.904 24.8317C205.371 22.6379 208.232 21.1213 209.867 17.9814C210.732 16.321 211.149 14.3638 211.868 12.5967C214.165 6.94302 219.332 3.88196 224.326 3.50165C229.321 3.12134 234.272 5.00435 239.028 7.04506C243.784 9.08577 248.577 11.3305 253.598 11.7526C255.833 11.9288 258.156 11.7526 260.23 12.824C263.019 14.2571 264.847 17.6846 266.093 21.1723C267.489 25.1053 268.358 29.4001 268.211 33.6948C267.903 42.8641 263.118 51.8618 265.221 60.6461C265.778 62.9883 266.822 65.3907 266.265 67.7329C265.452 71.1511 261.967 71.9303 259.149 72.0926C258.416 70.0565 258.808 67.7004 258.823 65.4649C258.838 63.2294 258.185 60.5904 256.485 59.9875C253.085 58.7863 250.739 66.8099 247.397 65.3629C244.851 64.2544 245.51 59.3335 244.03 56.4905C242.861 54.2364 240.516 53.6056 238.698 52.1957C234.825 49.1857 234.942 44.3714 233.143 39.817C231.245 35.0213 227.262 36.4312 223.802 39.2511Z" fill="#99607E"/>
<path d="M170.049 215.74L167.254 216.973C167.254 216.973 168.353 237.9 164.688 243.901C161.024 249.903 176.722 264.823 176.722 264.823C176.722 264.823 198.24 264.67 198.848 262.504C199.456 260.338 197.749 223.731 197.749 223.731C197.749 223.731 186.198 218.035 187.169 208.959C187.169 208.959 183.644 230.345 178.419 229.422C173.194 228.499 167.261 222.975 170.049 215.74Z" fill="#E8F5FF"/>
<path opacity="0.1" d="M179.375 235.896C183.449 235.896 186.752 232.074 186.752 227.358C186.752 222.642 183.449 218.819 179.375 218.819C175.302 218.819 171.999 222.642 171.999 227.358C171.999 232.074 175.302 235.896 179.375 235.896Z" fill="black"/>
<path d="M187.441 216.357C187.441 216.357 185.975 159.736 173.216 172.352C160.456 184.967 160.332 200.054 162.761 204.511C165.191 208.968 172.981 231.282 172.981 231.282C174.2 232.176 175.568 232.691 176.975 232.787C178.381 232.882 179.785 232.554 181.072 231.83C182.359 231.106 183.493 230.007 184.379 228.621C185.266 227.236 185.88 225.605 186.173 223.861L187.441 216.357Z" fill="#FFC1C7"/>
<path opacity="0.1" d="M267.035 72.9368C266.975 72.688 266.861 72.466 266.705 72.2967C266.075 71.5686 264.719 71.3135 262.674 71.5361L262.758 72.7605C265.485 72.4637 266.023 73.1501 266.093 73.2661V73.382L266.177 73.5351C266.517 74.1133 266.758 74.775 266.884 75.4778C267.01 76.1807 267.019 76.9091 266.91 77.6165C266.313 81.3964 262.645 84.4065 262.608 84.439L262.52 84.5039L262.465 84.6106C260.882 87.5835 251.93 95.9736 249.589 98.1442L249.383 97.8473C248.335 98.9975 239.123 109.206 238.625 113.116C238.302 115.569 236.118 116.52 235.327 116.784C234.491 115.982 231.78 113.25 230.369 110.189C229.046 107.309 234.37 101.688 234.84 99.4938L234.107 98.543C234.03 98.8955 227.192 106.984 229.094 111.117C230.618 114.433 233.403 117.271 234.378 118.208C234.066 121.789 232.128 142.812 229.149 147.794C225.448 153.985 222.337 185.19 222.681 196.084C222.985 205.764 220.988 224.046 214.319 231.899C213.164 233.318 211.771 234.388 210.244 235.031C208.717 235.673 207.095 235.871 205.499 235.609H205.418H205.338C205.242 235.609 195.568 236.861 187.441 228.188C180.79 221.106 177.023 209.548 176.239 193.825H176.077L176.011 189.248C177.815 188.892 179.439 187.665 180.542 185.825C181.646 183.985 182.143 181.675 181.929 179.381C181.715 177.087 180.807 174.987 179.396 173.522C177.984 172.058 176.179 171.342 174.36 171.527C172.541 171.711 170.849 172.781 169.64 174.512C168.431 176.242 167.799 178.498 167.876 180.806C167.954 183.114 168.735 185.294 170.056 186.888C171.377 188.482 173.135 189.366 174.96 189.354H175.04L175.106 193.904L174.784 193.932C175.59 210.165 179.548 222.173 186.51 229.589C191.802 235.139 198.561 237.939 205.422 237.422C205.909 237.49 206.398 237.524 206.888 237.524C210.032 237.545 213.058 236.005 215.316 233.234C222.34 224.956 224.477 206 224.143 195.991C223.777 184.448 227.042 154.366 230.318 148.888C233.528 143.513 235.473 122.568 235.814 118.509C236.976 118.097 239.603 116.793 240.05 113.408C240.373 110.959 246.525 103.413 250.311 99.2341L250.197 99.0671C252.234 97.1841 258.57 91.2475 261.71 87.4351C262.685 86.2524 263.653 85.0697 264.664 83.9427C265.881 82.5791 267.427 80.4132 267.834 77.853C267.972 77.0079 267.973 76.1359 267.836 75.2904C267.698 74.445 267.426 73.644 267.035 72.9368Z" fill="black"/>
<path d="M234.253 117.916C234.099 117.781 230.45 114.474 228.621 110.495C226.723 106.362 233.561 98.2785 233.634 97.926L234.367 98.8768C233.902 101.066 228.577 106.692 229.9 109.567C231.567 113.199 235.078 116.376 235.114 116.408L234.253 117.916Z" fill="#353146"/>
<path d="M249.112 99.0438L248.541 98.0467C248.658 97.94 260.168 87.4025 261.982 83.9936L262.04 83.8916L262.125 83.822C262.161 83.7895 265.829 80.7841 266.427 76.9995C266.537 76.2929 266.528 75.5649 266.402 74.8627C266.276 74.1604 266.035 73.4995 265.694 72.9228L265.609 72.7651V72.6538C265.536 72.5332 264.998 71.8514 262.271 72.1482L262.187 70.9192C264.235 70.6966 265.587 70.9516 266.218 71.6798C266.375 71.8507 266.49 72.0741 266.551 72.3245C266.947 73.0297 267.225 73.8301 267.368 74.6764C267.51 75.5227 267.514 76.397 267.379 77.2454C266.973 79.8102 265.43 81.9761 264.21 83.335C263.202 84.462 262.231 85.654 261.26 86.8274C257.577 91.2938 249.515 98.6774 249.112 99.0438Z" fill="#E8F5FF"/>
<path d="M175.539 187.633L174.568 187.656L174.676 195.126L175.647 195.104L175.539 187.633Z" fill="#E8F5FF"/>
<path d="M174.487 188.765C178.403 188.765 181.578 184.747 181.578 179.791C181.578 174.834 178.403 170.816 174.487 170.816C170.571 170.816 167.396 174.834 167.396 179.791C167.396 184.747 170.571 188.765 174.487 188.765Z" fill="#6C63FF"/>
<path d="M174.487 187.244C177.739 187.244 180.376 183.907 180.376 179.791C180.376 175.675 177.739 172.338 174.487 172.338C171.235 172.338 168.598 175.675 168.598 179.791C168.598 183.907 171.235 187.244 174.487 187.244Z" fill="#E8F5FF"/>
<path d="M206.426 236.926C205.936 236.927 205.447 236.895 204.96 236.829C198.1 237.34 191.342 234.541 186.048 228.995C179.086 221.574 175.136 209.581 174.322 193.334L175.788 193.218C176.572 208.941 180.339 220.503 186.994 227.581C195.121 236.23 204.792 235.001 204.887 235.001H204.967H205.048C206.645 235.262 208.267 235.064 209.795 234.421C211.322 233.779 212.716 232.709 213.872 231.291C220.537 223.439 222.534 205.156 222.23 195.477C221.864 184.573 224.975 153.368 228.68 147.181C231.923 141.76 233.934 117.322 233.956 117.076L234.011 116.381L234.554 116.26C234.587 116.26 237.753 115.499 238.148 112.503C238.661 108.598 247.859 98.39 248.903 97.2351L249.86 98.6265C246.06 102.801 239.907 110.351 239.6 112.805C239.152 116.2 236.525 117.498 235.367 117.907C235.001 121.969 233.07 142.91 229.871 148.285C226.595 153.763 223.33 183.845 223.696 195.388C224.011 205.397 221.897 224.357 214.872 232.631C212.61 235.409 209.577 236.951 206.426 236.926Z" fill="#353146"/>
<g opacity="0.1">
<path d="M266.056 47.5253C266.657 44.7147 267.383 41.8856 267.889 39.0378C267.284 41.8995 266.555 44.7147 266.056 47.5253Z" fill="black"/>
<path d="M259.926 69.6114C259.193 67.5753 259.585 65.2193 259.6 62.9838C259.614 60.7483 258.962 58.1324 257.262 57.5063C253.861 56.3051 251.516 64.3334 248.174 62.8817C245.609 61.7732 246.287 56.8524 244.807 54.0093C243.638 51.7552 241.296 51.1245 239.479 49.7145C235.602 46.7045 235.719 41.8903 233.923 37.3358C232.036 32.5587 228.06 33.9686 224.601 36.7885C221.974 38.9312 219.713 41.8021 216.906 43.5136C214.477 44.9931 211.747 45.5311 209.053 45.6099C205.774 45.7073 202.205 44.9699 199.951 41.9552C198.214 39.6362 197.587 36.2366 197.947 33.0503C197.884 33.2683 197.829 33.4863 197.774 33.7042C196.895 37.3543 197.408 41.6444 199.464 44.418C201.717 47.4326 205.286 48.1654 208.566 48.0727C211.263 47.9938 213.989 47.4558 216.422 45.9763C219.237 44.2603 221.498 41.394 224.118 39.2513C227.577 36.4314 231.556 35.0214 233.44 39.7985C235.235 44.353 235.122 49.1672 238.995 52.1773C240.827 53.5687 243.154 54.218 244.327 56.472C245.792 59.3244 245.144 64.236 247.694 65.3445C251.032 66.7915 253.378 58.7678 256.778 59.9691C258.479 60.572 259.134 63.2157 259.116 65.4465C259.098 67.6774 258.717 70.0381 259.442 72.0742C262.26 71.9118 265.745 71.1466 266.562 67.7145C266.675 67.2219 266.727 66.7104 266.716 66.1979C265.525 68.7998 262.462 69.4676 259.926 69.6114Z" fill="black"/>
</g>
<path opacity="0.1" d="M326.152 183.891L330.407 189.586C330.407 189.586 333.811 220.972 335.511 223.907C337.211 226.843 341.228 238.522 337.457 247.292C337.457 247.292 336.24 252.064 336.97 254.063C337.699 256.062 331.502 266.067 331.502 266.067C331.502 266.067 323.356 275.296 321.652 276.683C319.948 278.07 310.956 289.145 307.918 289.298C304.881 289.451 303.887 294.224 303.887 294.224L286.745 294.994C286.745 294.994 277.277 294.367 275.217 296.06C275.217 296.06 276.317 277.75 265.738 265.747L279.23 259.592C279.23 259.592 284.338 256.809 285.917 253.901C286.911 252.118 288.32 250.774 289.948 250.056C289.948 250.056 293.715 246.671 293.836 244.825C293.957 242.979 298.442 240.715 298.442 240.715L295.903 213.282L297.24 167.737C297.24 167.737 301.495 129.576 310.491 131.732C319.487 133.889 326.152 183.891 326.152 183.891Z" fill="black"/>
<path d="M327.618 183.891L331.872 189.586C331.872 189.586 335.277 220.972 336.977 223.907C338.677 226.843 342.693 238.522 338.923 247.292C338.923 247.292 337.71 252.064 338.439 254.063C339.168 256.062 332.968 266.067 332.968 266.067C332.968 266.067 324.822 275.296 323.118 276.683C321.414 278.07 312.422 289.145 309.384 289.298C306.346 289.451 305.353 294.224 305.353 294.224L288.211 294.994C288.211 294.994 278.735 294.367 276.683 296.06C276.683 296.06 277.782 277.75 267.203 265.747L280.696 259.592C280.696 259.592 285.804 256.809 287.383 253.901C288.377 252.118 289.786 250.774 291.414 250.056C291.414 250.056 295.181 246.671 295.302 244.825C295.423 242.979 299.908 240.715 299.908 240.715L297.369 213.282L298.706 167.737C298.706 167.737 302.96 129.576 311.957 131.732C320.953 133.889 327.618 183.891 327.618 183.891Z" fill="#E8F5FF"/>
<path opacity="0.1" d="M311.803 229.9C311.803 229.9 324.324 225.725 327.607 230.827C330.891 235.929 311.803 229.9 311.803 229.9Z" fill="black"/>
<path opacity="0.1" d="M308.886 236.898C313.14 240.669 326.27 240.822 326.27 240.822L308.886 236.898Z" fill="black"/>
<path opacity="0.1" d="M315.328 255.747C315.694 255.9 324.353 267.597 327.988 264.058C331.623 260.52 315.328 255.747 315.328 255.747Z" fill="black"/>
<path opacity="0.1" d="M198.712 157.58C198.712 157.58 201.255 179.74 200.002 188.765C198.749 197.791 203.322 208.973 203.322 208.973L198.712 157.58Z" fill="black"/>
<path d="M142.413 166.591C139.481 169.499 137.341 176.382 135.791 183.947C133.087 197.142 132.204 212.442 132.204 212.442C132.204 212.442 108.862 205.671 110.562 202.596C111.632 200.662 110.195 186.089 108.997 175.524C108.283 169.281 107.645 164.435 107.645 164.435C107.645 164.435 150.438 158.586 142.413 166.591Z" fill="#FFCCD0"/>
<path opacity="0.1" d="M142.413 165.974C139.481 168.887 137.341 175.765 135.791 183.33C131.141 185.117 126.194 185.278 121.477 183.796C116.76 182.314 112.448 179.244 108.997 174.912C108.283 168.664 107.645 163.818 107.645 163.818C107.645 163.818 150.438 157.974 142.413 165.974Z" fill="black"/>
<path d="M154.96 149.398C154.962 157.465 152.71 165.273 148.601 171.44C144.492 177.607 138.792 181.736 132.51 183.095C126.228 184.454 119.768 182.957 114.274 178.868C108.78 174.778 104.606 168.361 102.491 160.751C100.376 153.141 100.456 144.83 102.717 137.288C104.979 129.746 109.275 123.459 114.846 119.541C120.417 115.622 126.904 114.325 133.158 115.878C139.413 117.431 145.031 121.734 149.02 128.026C152.863 134.087 154.958 141.626 154.96 149.398Z" fill="#FFCCD0"/>
<path opacity="0.1" d="M176.242 363.005H168.547L167.898 345.802L167.221 327.997C167.221 327.997 168.968 327.668 171.753 327.176L172.878 326.986H172.97C173.578 330.599 174.179 334.309 174.758 338.015C175.722 344.594 176.223 351.268 176.257 357.958C176.257 358.422 176.257 358.886 176.257 359.322C176.279 360.56 176.257 361.799 176.242 363.005Z" fill="black"/>
<path d="M174.766 363.005H78.2603C78.678 361.804 78.9565 361.075 78.9565 361.075C78.9565 361.075 86.6773 318.323 90.6019 300.234C90.6031 300.219 90.6031 300.204 90.6019 300.188C91.0922 297.731 91.6842 295.308 92.3755 292.93C92.4201 292.768 92.4778 292.613 92.5477 292.466C94.4898 288.468 96.923 284.159 93.5188 278.005C90.1145 271.85 91.3201 244.769 91.3201 244.769C91.3201 244.769 95.4535 221.686 99.8288 209.377C100.493 207.47 101.435 205.739 102.606 204.275C102.987 203.803 103.394 203.366 103.823 202.967C104.149 202.657 104.489 202.37 104.842 202.109L104.911 202.053C106.749 200.734 108.79 199.932 110.895 199.702C112.391 199.504 113.9 199.557 115.384 199.859C122.478 201.177 128.158 203.38 132.673 205.889C144.908 212.693 148.613 221.811 148.686 222.001L148.715 222.08C149.206 223.532 156.389 244.755 158.976 254.657C159.646 257.236 160.013 259.049 159.866 259.546C159.133 262.004 165.458 292.777 165.458 292.777C165.458 292.777 168.389 307.618 171.321 325.015C171.449 325.739 171.57 326.462 171.687 327.195C172.211 330.353 172.732 333.572 173.234 336.786C174.206 343.41 174.708 350.131 174.733 356.869C174.786 358.968 174.797 361.014 174.766 363.005Z" fill="#FF748E"/>
<path opacity="0.1" d="M110.32 189.118C110.32 189.118 103.662 185.871 103.742 190.797C103.823 195.722 105.366 198.078 104.878 198.797C104.391 199.516 105.12 203.825 105.12 203.825C105.12 203.825 114.116 203.825 118.25 206.181C122.383 208.537 137.62 213.259 139.565 214.696C141.511 216.134 148.726 222.581 148.726 222.581L149.375 210.374C149.375 210.374 141.918 202.577 129.683 198.579C117.447 194.581 110.32 189.118 110.32 189.118Z" fill="black"/>
<path d="M110.32 188.501C110.32 188.501 103.662 185.254 103.742 190.18C103.823 195.105 105.366 197.462 104.878 198.18C104.391 198.899 105.12 203.208 105.12 203.208C105.12 203.208 114.116 203.208 118.25 205.569C122.383 207.929 137.62 212.646 139.565 214.079C141.511 215.513 148.726 221.964 148.726 221.964L149.382 209.794C149.382 209.794 141.925 201.997 129.69 198C117.455 194.002 110.32 188.501 110.32 188.501Z" fill="#FF748E"/>
<path opacity="0.1" d="M130.419 217.878C130.419 217.878 143.142 235.312 142.493 240.14C141.845 244.968 130.419 217.878 130.419 217.878Z" fill="black"/>
<path opacity="0.1" d="M109.752 280.857C109.752 280.857 100.426 291.733 97.6778 292.35C94.9296 292.967 99.7849 295.017 102.944 293.379C106.102 291.742 112.837 287.434 112.837 287.434L109.752 280.857Z" fill="black"/>
<path d="M178.555 363.005H156.806C153.765 359.665 150.888 356.572 149.056 354.712C146.125 351.734 144.01 347.351 142.662 343.827C142.358 343.024 142.094 342.273 141.87 341.591C141.47 340.417 141.118 339.217 140.815 337.997L156.92 325.892C157.81 326.85 158.646 327.885 159.423 328.99L159.617 329.273C160.511 330.608 161.299 332.125 161.369 333.368C161.449 334.815 164.63 340.413 167.88 345.788C171.178 351.257 174.557 356.484 174.78 356.836C174.78 356.836 175.337 357.796 176.246 359.271C176.887 360.338 177.679 361.618 178.555 363.005Z" fill="#FFCCD0"/>
<path opacity="0.1" d="M149.02 128.027C148.246 130.234 147.554 132.525 147.451 134.983C147.162 142.08 147.631 157.946 141.423 161.508C138.349 163.261 135.058 159.412 131.687 159.319C129.261 159.254 127.037 161.202 125.556 163.637C124.076 166.072 123.156 168.961 122.083 171.716C121.105 174.217 119.98 176.62 118.715 178.905C118.337 179.604 117.921 180.269 117.469 180.895C113.684 178.873 110.314 175.785 107.614 171.865C104.915 167.945 102.959 163.297 101.894 158.275C100.829 153.253 100.683 147.989 101.469 142.885C102.255 137.782 103.951 132.972 106.427 128.823C108.904 124.675 112.096 121.296 115.761 118.946C119.425 116.595 123.465 115.334 127.573 115.259C131.681 115.184 135.748 116.297 139.465 118.513C143.181 120.728 146.449 123.989 149.02 128.045V128.027Z" fill="black"/>
<path d="M146.964 133.731C146.671 140.827 147.143 156.694 140.932 160.251C137.858 162.004 134.567 158.159 131.196 158.067C128.77 157.997 126.55 159.95 125.066 162.38C123.581 164.81 122.669 167.704 121.592 170.464C120.614 172.964 119.488 175.367 118.224 177.653C117.469 179.007 116.634 180.366 115.472 181.127C113.449 182.462 110.998 181.711 108.829 180.853C106.014 179.731 103.242 178.466 100.511 177.059C100.573 176.537 100.605 176.01 100.606 175.482C100.525 175.677 100.437 175.858 100.349 176.053L100.177 176.433C99.8656 177.129 99.5614 177.824 99.2829 178.539C99.1767 178.812 99.0741 179.095 98.9825 179.378C98.6139 180.431 98.3825 181.552 98.2972 182.699C98.1103 185.792 99.3159 188.728 100.386 191.511C104.501 202.276 107.044 214.863 103.948 226.157C102.607 231.068 100.283 235.433 98.5867 240.177C95.6209 248.581 94.7479 257.928 96.0839 266.975C96.9304 272.597 98.627 278.162 98.2093 283.862C97.4764 293.672 90.7926 300.972 84.0977 305.99C80.481 308.689 76.0544 311.092 72.2141 308.958C74.6619 305.341 75.2922 300.336 75.8199 295.615C77.2636 282.737 78.7111 269.853 80.1622 256.962C80.7411 251.832 81.3189 246.703 81.8954 241.573C82.9727 231.936 84.0647 222.191 83.3905 212.493C82.8995 205.346 81.5143 197.758 83.9621 191.288C85.2557 187.861 87.5606 185.023 88.2788 181.331C88.8687 178.33 88.3191 175.139 88.7075 172.083C88.9201 170.692 89.28 169.344 89.7775 168.075C90.411 166.354 91.2379 164.757 92.2327 163.335C91.2506 162.974 90.3345 162.477 89.7775 161.438C91.3532 160.14 91.5914 157.213 90.8768 155.015C90.1623 152.816 88.7332 151.142 87.447 149.408C86.1608 147.673 84.9222 145.651 84.761 143.285C84.4495 138.782 88.004 135.294 88.6306 130.851C89.2645 126.329 86.7581 121.932 86.9596 117.355C87.1941 111.821 91.2103 107.8 95.1752 105.467C101.158 101.962 107.768 100.522 114.333 101.293C119.675 101.933 124.846 104.025 130.174 104.837C133.387 105.3 136.645 105.347 139.837 106.061C143.028 106.775 146.227 108.283 148.474 111.246C154.395 119.061 147.301 125.494 146.964 133.731Z" fill="#FFE0D0"/>
<path opacity="0.1" d="M142.01 343.831C140.141 342.806 136.74 343.418 130.903 341.169C125.066 338.92 123.941 328.753 123.941 328.753V328.721C123.871 328.489 123.329 326.977 119.657 321.68C115.6 315.832 106.832 286.293 106.832 286.293C106.832 286.293 99.0557 275.723 99.3012 271.827C99.5467 267.931 97.9197 257.565 98.081 245.97C98.2422 234.375 115.586 226.685 115.586 226.685C148.979 219.195 141.116 267.922 140.225 271.613C139.335 275.305 143.955 285.277 143.955 285.277C143.303 289.618 146.63 296.338 146.63 296.338C146.63 296.338 147.437 302.284 147.601 304.543C147.611 304.647 147.629 304.75 147.656 304.849C148.191 306.978 152.552 308.907 154.326 310.081C156.191 311.314 162.189 322.084 162.189 322.084C163.483 329.991 143.871 344.87 142.01 343.831Z" fill="black"/>
<path d="M142.981 341.976C141.116 340.946 137.711 341.563 131.878 339.309C126.044 337.055 124.915 326.898 124.915 326.898V326.865C124.849 326.629 124.303 325.122 120.632 319.825C116.575 313.977 107.806 284.433 107.806 284.433C107.806 284.433 100.03 273.867 100.272 269.971C100.514 266.076 98.8945 255.71 99.0557 244.124C99.217 232.538 116.55 224.853 116.55 224.853C149.943 217.363 142.079 266.09 141.189 269.781C140.298 273.473 144.919 283.445 144.919 283.445C144.267 287.786 147.594 294.506 147.594 294.506C147.594 294.506 148.4 300.452 148.569 302.711C148.575 302.815 148.592 302.918 148.62 303.017C149.155 305.146 153.516 307.075 155.293 308.249C157.155 309.478 163.157 320.252 163.157 320.252C164.458 328.146 144.846 343.024 142.981 341.976Z" fill="#FF748E"/>
<path opacity="0.1" d="M117.209 250.293C117.209 250.293 131.797 269.772 135.604 269.772C139.412 269.772 117.209 250.293 117.209 250.293Z" fill="black"/>
<path d="M142.981 341.976C141.116 340.946 137.711 341.563 131.878 339.309C126.044 337.055 124.915 326.898 124.915 326.898V326.866C128.781 323.619 138.572 314.45 142.431 311.096C145.146 308.745 147.363 305.29 148.661 302.999C149.196 305.127 153.556 307.057 155.333 308.23C157.195 309.459 163.197 320.233 163.197 320.233C164.458 328.146 144.846 343.024 142.981 341.976Z" fill="#FF748E"/>
<g opacity="0.1">
<path d="M89.7996 161.489C89.8179 161.527 89.8435 161.559 89.8655 161.596C89.9754 161.42 90.089 161.244 90.2063 161.077C90.0814 161.23 89.9452 161.369 89.7996 161.489Z" fill="black"/>
<path d="M98.3009 182.75C98.4548 180.176 99.5431 177.908 100.562 175.645C99.8949 175.32 99.228 174.991 98.5684 174.647C98.6312 174.127 98.6631 173.602 98.6637 173.075C97.634 175.394 96.5127 177.676 96.3551 180.287C96.1682 183.385 97.3738 186.317 98.4438 189.099C102.563 199.859 105.102 212.447 102.006 223.745C100.661 228.652 98.3412 233.021 96.6446 237.766C93.6798 246.168 92.8081 255.514 94.1455 264.559C94.9846 270.185 96.6849 275.746 96.2671 281.446C95.5343 291.255 88.8541 298.555 82.1556 303.569C79.4183 305.619 76.2193 307.497 73.1595 307.363C72.8763 307.94 72.5603 308.49 72.2141 309.009C76.0581 311.157 80.481 308.74 84.0977 306.032C90.7999 301.023 97.4947 293.741 98.2276 283.913C98.6453 278.213 96.9451 272.652 96.1023 267.027C94.7645 257.982 95.6336 248.637 98.594 240.233C100.28 235.493 102.625 231.119 103.955 226.212C107.051 214.914 104.508 202.327 100.393 191.567C99.3269 188.765 98.114 185.848 98.3009 182.75Z" fill="black"/>
<path d="M148.466 111.302C148.106 110.834 147.719 110.4 147.308 110.003C151.75 117.294 145.337 123.491 145.018 131.338C144.732 138.434 145.201 154.305 138.99 157.858C135.919 159.616 132.625 155.766 129.258 155.674C126.828 155.609 124.608 157.561 123.123 159.991C121.639 162.422 120.727 165.316 119.653 168.071C118.674 170.571 117.547 172.974 116.282 175.26C115.549 176.619 114.692 177.973 113.526 178.738C111.511 180.069 109.06 179.323 106.887 178.46C104.773 177.619 102.68 176.691 100.606 175.677C100.601 176.16 100.57 176.642 100.51 177.119C103.244 178.529 106.018 179.794 108.832 180.913C111.002 181.776 113.453 182.523 115.472 181.192C116.634 180.426 117.477 179.067 118.228 177.709C119.494 175.426 120.619 173.024 121.595 170.524C122.673 167.769 123.581 164.871 125.069 162.44C126.557 160.01 128.774 158.062 131.2 158.127C134.571 158.22 137.865 162.069 140.936 160.311C147.147 156.759 146.674 140.888 146.964 133.792C147.301 125.541 154.395 119.112 148.466 111.302Z" fill="black"/>
</g>
<path opacity="0.1" d="M100.181 176.438C99.8692 177.133 99.565 177.829 99.2865 178.543C99.1803 178.817 99.0777 179.1 98.9861 179.383C97.0659 176.934 92.3902 171.113 89.7811 169.309C90.4155 167.588 91.2424 165.992 92.2363 164.569C92.2363 164.569 98.4547 168.729 100.181 176.438Z" fill="black"/>
<path d="M100.353 176.057C98.9128 167.806 92.2363 163.34 92.2363 163.34C91.2415 164.762 90.4146 166.358 89.7811 168.08C92.5331 169.986 97.6046 176.377 99.2865 178.543L100.353 176.057Z" fill="#FF748E"/>
</g>
<defs>
<linearGradient id="paint0_linear_187_3609" x1="267.511" y1="44.2509" x2="267.511" y2="35.7263" gradientUnits="userSpaceOnUse">
<stop stop-color="#808080" stop-opacity="0.25"/>
<stop offset="0.54" stop-color="#808080" stop-opacity="0.12"/>
<stop offset="1" stop-color="#808080" stop-opacity="0.1"/>
</linearGradient>
<linearGradient id="paint1_linear_187_3609" x1="206.243" y1="363.005" x2="206.243" y2="-1.2798e-06" gradientUnits="userSpaceOnUse">
<stop stop-color="#808080" stop-opacity="0.25"/>
<stop offset="0.54" stop-color="#808080" stop-opacity="0.12"/>
<stop offset="1" stop-color="#808080" stop-opacity="0.1"/>
</linearGradient>
<clipPath id="clip0_187_3609">
<rect width="398" height="363" fill="white"/>
</clipPath>
</defs>
</svg>
