<svg width="622" height="447" viewBox="0 0 622 447" fill="none" xmlns="http://www.w3.org/2000/svg">
<g clip-path="url(#clip0_239_2647)">
<path d="M491.995 304.351H475.731L475.672 304.281C472.781 300.651 471.479 295.542 472.198 290.633C472.426 289.043 472.857 287.503 473.483 286.054L478.428 274.605L476.467 233.601C476.433 232.841 476.652 232.122 477.092 231.562C477.532 231.012 478.132 230.702 478.774 230.702H481.817C483.069 230.702 484.083 231.862 484.134 233.331L485.461 273.855L492.308 286.514C492.891 287.593 493.365 288.743 493.703 289.933C495.047 294.542 494.557 299.552 492.35 303.671L491.987 304.341H491.995V304.351Z" fill="#3F3D56"/>
<path d="M490.592 301.511C490.44 301.801 490.169 301.971 489.882 301.971H477.506C477.27 301.971 477.033 301.851 476.881 301.641C474.793 298.832 473.871 295.142 474.235 291.553C474.277 291.163 474.522 290.833 474.843 290.733C477.43 289.923 480.549 289.463 483.905 289.463C486.534 289.463 489.011 289.753 491.209 290.263C491.513 290.333 491.759 290.593 491.843 290.943C492.722 294.462 492.308 298.322 490.601 301.511H490.592Z" fill="#6C63FF"/>
<path d="M621.273 313H88.1525C87.753 313 87.426 312.55 87.426 312C87.426 311.45 87.753 311 88.1525 311H621.273C621.673 311 622 311.45 622 312C622 312.55 621.673 313 621.273 313Z" fill="#3F3D56"/>
<path d="M182.128 127.307C173.041 124.087 167.073 115.929 168.806 109.09C170.539 102.251 179.313 99.3111 188.401 102.531C192.044 103.76 195.392 106 198.156 109.07L236.526 123.278L230.507 144.434L193.32 128.177C189.584 128.947 185.746 128.647 182.128 127.297L182.128 127.307Z" fill="#A0616A"/>
<path d="M352.337 132.866L352.802 170.231C352.802 170.231 313.088 169.611 299.191 170.901C285.293 172.2 198.688 134.706 198.688 134.706L213.076 110.579L308.616 137.855L352.337 132.856V132.866Z" fill="#E6E6E6"/>
<path d="M184.96 82.0536H179.043V177.04H184.96V82.0536Z" fill="#6C63FF"/>
<path d="M206.322 312.02H172.094L171.967 311.86C165.881 304.211 163.142 293.473 164.647 283.134C165.128 279.795 166.033 276.555 167.352 273.505L177.766 249.419L173.632 163.132C173.556 161.532 174.03 160.012 174.96 158.852C175.89 157.692 177.149 157.053 178.502 157.053H184.901C187.53 157.053 189.677 159.482 189.778 162.592L192.56 247.879L206.981 274.515C208.215 276.795 209.204 279.215 209.923 281.714C212.746 291.413 211.715 301.951 207.083 310.62L206.322 312.03L206.322 312.02Z" fill="#3F3D56"/>
<path d="M203.38 306.051C203.059 306.651 202.492 307.021 201.884 307.021H175.83C175.332 307.021 174.841 306.771 174.512 306.331C170.116 300.412 168.18 292.663 168.941 285.104C169.025 284.274 169.541 283.594 170.226 283.384C175.661 281.684 182.23 280.704 189.297 280.704C194.825 280.704 200.049 281.314 204.665 282.384C205.299 282.534 205.823 283.074 206 283.804C207.843 291.203 206.973 299.332 203.38 306.051Z" fill="#6C63FF"/>
<path d="M326.977 80.0539L332.049 121.048L291.473 126.047L294.009 73.0549L326.977 80.0539Z" fill="#A0616A"/>
<path d="M288.404 92.2621C303.517 92.2621 315.768 77.7717 315.768 59.8968C315.768 42.022 303.517 27.5316 288.404 27.5316C273.292 27.5316 261.041 42.022 261.041 59.8968C261.041 77.7717 273.292 92.2621 288.404 92.2621Z" fill="#A0616A"/>
<path d="M203.143 206.745C195.4 198.526 185.442 196.677 180.894 202.616C176.346 208.555 178.933 220.033 186.676 228.252C189.728 231.592 193.43 233.991 197.48 235.261L230.659 269.586L244.345 250.479L210.185 218.674C208.697 214.064 206.28 209.975 203.143 206.745Z" fill="#A0616A"/>
<path d="M294.009 116.049L335.43 109.05L359.945 131.046L362.481 252.029L386.151 445L228.918 447C228.918 447 240.752 322.018 246.67 315.019C252.587 308.02 256.814 276.025 256.814 276.025L268.649 138.045L294.009 116.049Z" fill="#E6E6E6"/>
<path d="M278.37 137.545C278.37 137.545 256.391 135.546 251.319 153.543C246.247 171.54 240.33 230.532 240.33 230.532L226.804 232.532L214.97 217.534L202.289 253.528C202.289 253.528 247.092 311.52 263.999 285.524C280.906 259.528 278.37 137.545 278.37 137.545Z" fill="#E6E6E6"/>
<path d="M335.008 76.6044C335.008 76.6044 335.008 44.5591 337.544 34.5606C340.08 24.562 325.709 13.5637 321.482 3.56512C317.255 -6.43341 291.05 7.56454 280.061 9.56424C269.071 11.5639 269.916 19.5628 263.154 32.5609C256.391 45.559 269.916 65.556 280.061 67.5557C290.205 69.5554 286.823 78.5541 293.78 88.5526C300.738 98.5512 322.97 88.5526 322.97 88.5526L325.709 93.5519C325.709 93.5519 319.791 121.548 330.781 145.544L359.522 154.543C351.069 124.547 360.368 124.547 365.668 109.05C370.968 93.5519 335.008 76.6044 335.008 76.6044Z" fill="#2F2E41"/>
<path d="M536.037 303.341H520.974V273.465H536.037C537.754 273.465 539.131 271.816 539.131 269.786C539.131 267.756 537.745 266.137 536.037 266.127H431.013C429.297 266.127 427.919 267.776 427.919 269.806C427.919 271.836 429.305 273.455 431.013 273.465H443.862V303.341H431.013C429.297 303.341 427.919 304.991 427.919 307.021C427.919 309.05 429.305 310.67 431.013 310.68H536.037C537.754 310.68 539.131 309.03 539.131 307.001C539.131 304.971 537.745 303.351 536.037 303.341ZM450.067 303.341L457.15 281.024L514.76 273.465V303.341H450.067Z" fill="#F2F2F2"/>
</g>
<defs>
<clipPath id="clip0_239_2647">
<rect width="622" height="447" fill="white"/>
</clipPath>
</defs>
</svg>
