<svg width="727" height="549" viewBox="0 0 727 549" fill="none" xmlns="http://www.w3.org/2000/svg">
<g clip-path="url(#clip0_22_1086)">
<path d="M556.608 542.792C547.301 532.858 541.647 517.165 543.13 501.888C544.613 486.611 553.796 472.566 565.707 469.322C577.619 466.078 591.198 475.058 594.815 489.756C596.807 461.42 599.101 431.896 611.028 407.766C621.828 385.916 640.533 370.281 660.806 367.484C681.078 364.687 702.423 375.251 715.066 395.462C727.709 415.673 730.805 445.055 721.95 468.258C715.426 485.351 703.409 498.072 690.817 508.421C650.128 541.581 601.328 555.066 553.394 546.395L556.608 542.792Z" fill="#F2F2F2"/>
<path d="M695.019 375.837C678.291 393.046 662.946 412.293 649.204 433.3C627.698 466.063 610.295 502.796 597.602 542.22C596.673 545.096 600.37 546.348 601.289 543.504C622.058 479.432 655.213 422.96 697.722 379.252C699.631 377.289 696.912 373.89 695.019 375.837Z" fill="white"/>
<path d="M234.033 540.093C246.817 526.448 254.582 504.894 252.546 483.911C250.509 462.928 237.896 443.638 221.536 439.182C205.175 434.726 186.525 447.061 181.556 467.248C178.821 428.328 175.669 387.778 159.287 354.634C144.454 324.623 118.762 303.15 90.9178 299.308C63.0736 295.466 33.7572 309.976 16.3918 337.735C-0.973592 365.494 -5.22544 405.851 6.93684 437.72C15.8964 461.198 32.403 478.67 49.6978 492.885C104.874 538.234 173.32 557.148 238.448 545.041" fill="#F2F2F2"/>
<path d="M43.9264 310.78C66.9014 334.417 87.9784 360.853 106.853 389.706C125.73 418.529 142.35 449.597 156.478 482.473C164.375 500.915 171.469 519.888 177.728 539.307C179.004 543.258 173.926 544.977 172.664 541.071C161.577 506.835 147.86 474.055 131.71 443.199C115.639 412.455 97.2447 383.752 76.7854 357.495C65.2136 342.651 53.0043 328.621 40.2129 315.471C37.591 312.774 41.3262 308.106 43.9264 310.78Z" fill="white"/>
<path d="M521.852 547.798H216.847V152.518C216.847 68.4191 271.014 0 337.595 0H401.104C467.685 0 521.852 68.4191 521.852 152.518V547.798Z" fill="#F2F2F2"/>
<path d="M458.344 547.798H216.847V152.518C216.78 120.293 224.859 88.8829 239.906 62.8603C240.461 61.9053 241.014 60.9627 241.585 60.0304C248.864 47.9725 257.525 37.3534 267.284 28.5234C267.835 28.0168 268.389 27.519 268.951 27.0211C277.117 19.8833 285.95 14.0483 295.25 9.64885C295.802 9.38446 296.364 9.11955 296.927 8.86546C305.337 5.07423 314.056 2.47725 322.922 1.12248C323.471 1.02765 324.036 0.953439 324.6 0.879228C333.24 -0.287583 341.953 -0.287583 350.593 0.879228C351.155 0.953439 351.72 1.02764 352.276 1.1235C361.139 2.47836 369.856 5.07502 378.264 8.86551C378.827 9.1196 379.389 9.38449 379.943 9.6494C389.128 13.9933 397.857 19.7413 405.936 26.765C406.498 27.252 407.059 27.7499 407.613 28.2477C413.083 33.1798 418.221 38.6743 422.975 44.6753C426.787 49.4888 430.339 54.6197 433.608 60.0335C434.176 60.9627 434.73 61.9054 435.283 62.8588C450.332 88.8817 458.411 120.293 458.344 152.518V547.798Z" fill="#CCCCCC"/>
<path d="M438.707 371.004C446.091 371.004 452.077 363.443 452.077 354.116C452.077 344.789 446.091 337.228 438.707 337.228C431.323 337.228 425.337 344.789 425.337 354.116C425.337 363.443 431.323 371.004 438.707 371.004Z" fill="#6C63FF"/>
<path d="M496.866 535.959H486.621L481.747 486.047L496.868 486.048L496.866 535.959Z" fill="#FFB8B8"/>
<path d="M479.303 532.261H499.061V547.974H466.863C466.863 545.911 467.185 543.868 467.81 541.961C468.436 540.055 469.352 538.323 470.507 536.863C471.662 535.404 473.034 534.247 474.543 533.457C476.052 532.668 477.67 532.261 479.303 532.261Z" fill="#2F2E41"/>
<path d="M547.84 535.959H537.595L532.72 486.047L547.841 486.048L547.84 535.959Z" fill="#FFB8B8"/>
<path d="M530.277 532.261H550.034V547.974H517.837C517.837 545.911 518.159 543.868 518.784 541.961C519.409 540.055 520.325 538.323 521.481 536.863C522.636 535.404 524.007 534.247 525.516 533.457C527.026 532.668 528.643 532.261 530.277 532.261Z" fill="#2F2E41"/>
<path d="M445.474 357.462C444.737 356.09 444.247 354.531 444.038 352.895C443.83 351.258 443.908 349.583 444.267 347.989C444.627 346.395 445.258 344.919 446.118 343.667C446.978 342.414 448.044 341.415 449.243 340.74L484.068 219.499L501.205 231.312L461.441 347.173C462.206 349.791 462.185 352.673 461.38 355.272C460.575 357.872 459.044 360.008 457.075 361.276C455.107 362.544 452.839 362.856 450.701 362.153C448.562 361.45 446.703 359.781 445.474 357.462Z" fill="#FFB8B8"/>
<path d="M542.607 380.243C541.468 379.419 540.486 378.289 539.731 376.934C538.976 375.578 538.465 374.03 538.234 372.398C538.004 370.766 538.059 369.09 538.397 367.488C538.735 365.887 539.346 364.398 540.189 363.127L529.4 234.875L548.902 236.001L553.386 362.153C554.982 364.082 555.963 366.684 556.142 369.466C556.321 372.248 555.686 375.016 554.358 377.246C553.029 379.476 551.099 381.012 548.933 381.565C546.767 382.117 544.516 381.647 542.607 380.243Z" fill="#FFB8B8"/>
<path d="M511.495 197.042C522.83 197.042 532.019 185.436 532.019 171.118C532.019 156.801 522.83 145.195 511.495 145.195C500.16 145.195 490.971 156.801 490.971 171.118C490.971 185.436 500.16 197.042 511.495 197.042Z" fill="#FFB8B8"/>
<path d="M542.475 351.075H480.599L480.674 350.467C480.785 349.558 491.702 259.232 483.65 229.681C482.842 226.777 482.913 223.598 483.85 220.756C484.786 217.915 486.522 215.611 488.722 214.288C500.23 207.443 522.321 199.014 540.966 219.47C543.71 222.53 545.852 226.354 547.224 230.639C548.596 234.925 549.16 239.556 548.871 244.164L542.475 351.075Z" fill="#6C63FF"/>
<path d="M492.483 272.58L464.626 265.442L477.684 226.357C478.465 222.572 480.404 219.332 483.074 217.349C485.743 215.366 488.927 214.802 491.926 215.78C494.925 216.758 497.494 219.198 499.07 222.566C500.647 225.933 501.101 229.953 500.334 233.743L492.483 272.58Z" fill="#6C63FF"/>
<path d="M528.162 285.835L526.487 237.344C525.217 228.229 529.348 219.612 535.702 218.203C542.057 216.8 548.263 223.122 549.538 232.304L555.833 277.614L528.162 285.835Z" fill="#6C63FF"/>
<path d="M540.417 345.27C550.373 393.164 551.459 454.058 548.773 520.481L535.403 518.37L511.17 391.711L497.799 520.481L482.758 519.425C478.265 449.732 473.889 389.901 481.087 350.547L540.417 345.27Z" fill="#2F2E41"/>
<path d="M525.019 191.153C521.19 196.305 514.079 193.539 513.58 186.501C513.541 185.955 513.544 185.405 513.589 184.859C513.846 181.742 515.272 178.912 514.931 175.62C514.853 174.801 514.612 174.02 514.229 173.352C511.178 168.191 504.015 175.66 501.136 170.988C499.37 168.124 501.446 163.614 500.091 160.412C498.302 156.186 493.005 158.271 489.684 155.956C485.988 153.382 486.209 146.219 488.642 141.863C491.609 136.55 496.811 133.715 501.948 133.306C507.085 132.898 512.187 134.652 516.983 137.013C522.432 139.695 527.836 143.402 531.189 149.454C535.267 156.814 535.66 166.709 533.62 175.316C532.38 180.551 528.145 186.946 525.019 191.153Z" fill="#2F2E41"/>
<path d="M701.916 548.477H84.9734C84.71 548.476 84.4577 548.344 84.2717 548.108C84.0858 547.872 83.9813 547.553 83.9813 547.221C83.9813 546.888 84.0858 546.569 84.2717 546.333C84.4577 546.098 84.71 545.965 84.9734 545.964H701.916C702.179 545.965 702.431 546.098 702.617 546.333C702.803 546.569 702.908 546.888 702.908 547.221C702.908 547.553 702.803 547.872 702.617 548.108C702.431 548.344 702.179 548.476 701.916 548.477Z" fill="#3F3D56"/>
<path d="M391.911 433.278H283.279C281.849 433.288 280.473 432.58 279.455 431.311C278.437 430.041 277.859 428.314 277.848 426.507V120.236C277.859 118.429 278.437 116.701 279.455 115.432C280.473 114.163 281.849 113.455 283.279 113.465H391.911C393.342 113.455 394.717 114.163 395.736 115.432C396.754 116.701 397.332 118.429 397.343 120.236V426.507C397.332 428.314 396.754 430.041 395.736 431.311C394.717 432.58 393.342 433.288 391.911 433.278Z" fill="white"/>
<path d="M397.343 212.564H277.848V214.675H397.343V212.564Z" fill="#CCCCCC"/>
<path d="M397.761 333.006H278.266V335.117H397.761V333.006Z" fill="#CCCCCC"/>
<path d="M317.122 113.465H315.451V434.333H317.122V113.465Z" fill="#CCCCCC"/>
<path d="M358.904 113.465H357.233V434.333H358.904V113.465Z" fill="#CCCCCC"/>
</g>
<defs>
<clipPath id="clip0_22_1086">
<rect width="727" height="549" fill="white"/>
</clipPath>
</defs>
</svg>
