<svg width="655" height="523" viewBox="0 0 655 523" fill="none" xmlns="http://www.w3.org/2000/svg">
<g clip-path="url(#clip0_22_1322)">
<path d="M61.7723 506.384C64.6707 511.388 68.2638 515.666 72.3717 519.003C73.2454 519.713 74.1422 520.382 75.0547 521.002H96.5266C96.2695 520.342 96.0197 519.673 95.7778 519.003C89.1203 501.006 87.0326 480.789 89.8083 461.194C92.5839 441.598 100.083 423.609 111.252 409.756C98.2738 414.892 86.2783 424.903 78.4319 439.101C74.6194 446.015 71.9081 453.824 70.453 462.082C69.1563 445.568 71.2172 428.905 76.4352 413.713C65.8982 424.693 57.6928 439.731 54.5654 456.656C51.438 473.592 53.7074 492.386 61.7723 506.384Z" fill="#F0F0F0"/>
<path d="M651.605 280.75H505.623C504.723 280.749 503.86 280.291 503.223 279.475C502.587 278.66 502.229 277.554 502.228 276.401V160.716C502.229 159.563 502.587 158.458 503.223 157.643C503.86 156.827 504.723 156.369 505.623 156.367H651.605C652.505 156.369 653.368 156.827 654.005 157.643C654.641 158.458 654.999 159.563 655 160.716V276.401C654.999 277.554 654.641 278.66 654.005 279.475C653.368 280.291 652.505 280.749 651.605 280.75Z" fill="white"/>
<path d="M651.605 280.75H505.623C504.723 280.749 503.86 280.291 503.223 279.475C502.587 278.66 502.229 277.554 502.228 276.401V160.716C502.229 159.563 502.587 158.458 503.223 157.643C503.86 156.827 504.723 156.369 505.623 156.367H651.605C652.505 156.369 653.368 156.827 654.005 157.643C654.641 158.458 654.999 159.563 655 160.716V276.401C654.999 277.554 654.641 278.66 654.005 279.475C653.368 280.291 652.505 280.749 651.605 280.75ZM505.623 158.107C505.083 158.108 504.565 158.383 504.183 158.872C503.801 159.361 503.586 160.024 503.586 160.716V276.401C503.586 277.093 503.801 277.757 504.183 278.246C504.565 278.735 505.083 279.01 505.623 279.011H651.605C652.145 279.01 652.663 278.735 653.045 278.246C653.427 277.757 653.641 277.093 653.642 276.401V160.716C653.641 160.024 653.427 159.361 653.045 158.872C652.663 158.383 652.145 158.108 651.605 158.107H505.623Z" fill="#3F3D56"/>
<path d="M622.748 195.003H534.48C533.669 195.003 532.892 194.59 532.319 193.856C531.746 193.122 531.424 192.127 531.424 191.089C531.424 190.051 531.746 189.055 532.319 188.321C532.892 187.587 533.669 187.174 534.48 187.174H622.748C623.558 187.174 624.336 187.587 624.909 188.321C625.482 189.055 625.804 190.051 625.804 191.089C625.804 192.127 625.482 193.122 624.909 193.856C624.336 194.59 623.558 195.003 622.748 195.003Z" fill="#CCCCCC"/>
<path d="M622.748 221.967H534.48C533.669 221.967 532.892 221.555 532.319 220.821C531.746 220.087 531.424 219.091 531.424 218.053C531.424 217.015 531.746 216.019 532.319 215.285C532.892 214.551 533.669 214.139 534.48 214.139H622.748C623.558 214.139 624.336 214.551 624.909 215.285C625.482 216.019 625.804 217.015 625.804 218.053C625.804 219.091 625.482 220.087 624.909 220.821C624.336 221.555 623.558 221.967 622.748 221.967Z" fill="#CCCCCC"/>
<path d="M614.884 264.719C620.915 264.719 625.804 258.457 625.804 250.731C625.804 243.006 620.915 236.743 614.884 236.743C608.854 236.743 603.965 243.006 603.965 250.731C603.965 258.457 608.854 264.719 614.884 264.719Z" fill="#6C63FF"/>
<path d="M615.184 244.142V242.809H615.492V244.142C615.928 244.166 616.356 244.3 616.752 244.536C617.038 244.709 617.286 244.973 617.47 245.303C617.64 245.609 617.731 245.976 617.73 246.351C617.737 246.625 617.665 246.893 617.528 247.105C617.469 247.201 617.394 247.279 617.308 247.332C617.222 247.386 617.128 247.413 617.032 247.412C616.961 247.414 616.89 247.397 616.824 247.362C616.758 247.327 616.699 247.276 616.649 247.21C616.597 247.145 616.557 247.067 616.53 246.981C616.503 246.895 616.49 246.803 616.491 246.711C616.492 246.581 616.513 246.452 616.553 246.334L616.676 246C616.72 245.861 616.741 245.712 616.738 245.562C616.741 245.33 616.683 245.103 616.574 244.918C616.453 244.724 616.292 244.579 616.108 244.501C615.909 244.417 615.702 244.364 615.492 244.343V249.139L615.561 249.192C616.204 249.628 616.789 250.193 617.292 250.866C617.515 251.204 617.692 251.588 617.816 252.002C617.939 252.403 618.003 252.829 618.004 253.26C618.01 253.817 617.896 254.366 617.676 254.847C617.46 255.316 617.144 255.696 616.765 255.943C616.366 256.194 615.935 256.354 615.492 256.416V257.845H615.184V256.443C614.738 256.438 614.296 256.322 613.884 256.101C613.473 255.905 613.11 255.572 612.833 255.136C612.59 254.746 612.458 254.26 612.46 253.76C612.452 253.409 612.536 253.064 612.7 252.782C612.765 252.66 612.851 252.561 612.953 252.491C613.054 252.422 613.167 252.385 613.282 252.383C613.35 252.38 613.419 252.395 613.483 252.427C613.547 252.46 613.606 252.509 613.654 252.571C613.703 252.633 613.741 252.708 613.767 252.79C613.792 252.872 613.804 252.96 613.802 253.048C613.778 253.318 613.69 253.572 613.548 253.774C613.475 253.899 613.412 254.034 613.36 254.177C613.325 254.288 613.308 254.407 613.309 254.526C613.31 254.846 613.396 255.156 613.552 255.406C613.722 255.685 613.948 255.901 614.206 256.031C614.5 256.178 614.814 256.249 615.129 256.241H615.184V250.516L614.794 250.226C614.425 249.952 614.143 249.724 613.949 249.542C613.759 249.366 613.584 249.167 613.425 248.946C613.032 248.41 612.814 247.701 612.816 246.965C612.814 246.507 612.904 246.055 613.076 245.654C613.245 245.254 613.493 244.917 613.795 244.676C614.216 244.351 614.693 244.168 615.184 244.142ZM615.184 244.334C614.919 244.345 614.658 244.419 614.414 244.553C614.171 244.708 613.971 244.956 613.842 245.262C613.695 245.596 613.62 245.973 613.624 246.356C613.621 246.823 613.733 247.279 613.944 247.66C614.056 247.867 614.19 248.053 614.343 248.211C614.59 248.447 614.848 248.664 615.116 248.859L615.184 248.911V244.334ZM615.492 256.223C615.669 256.205 615.843 256.157 616.01 256.083C616.146 256.016 616.272 255.921 616.385 255.803C616.596 255.572 616.76 255.279 616.862 254.948C616.981 254.583 617.041 254.191 617.039 253.795C617.012 253.16 616.855 252.545 616.583 252.012C616.311 251.48 615.935 251.048 615.492 250.761V256.223Z" fill="white"/>
<path d="M552.161 203.316H406.179C405.279 203.315 404.416 202.856 403.78 202.041C403.143 201.226 402.785 200.12 402.784 198.967V83.282C402.785 82.129 403.143 81.0236 403.78 80.2083C404.416 79.3929 405.279 78.9343 406.179 78.933H552.161C553.061 78.9343 553.924 79.3929 554.561 80.2083C555.197 81.0236 555.555 82.129 555.556 83.282V198.967C555.555 200.12 555.197 201.226 554.561 202.041C553.924 202.856 553.061 203.315 552.161 203.316Z" fill="white"/>
<path d="M552.161 203.316H406.179C405.279 203.315 404.416 202.856 403.78 202.041C403.143 201.226 402.785 200.12 402.784 198.967V83.282C402.785 82.129 403.143 81.0236 403.78 80.2083C404.416 79.3929 405.279 78.9343 406.179 78.933H552.161C553.061 78.9343 553.924 79.3929 554.561 80.2083C555.197 81.0236 555.555 82.129 555.556 83.282V198.967C555.555 200.12 555.197 201.226 554.561 202.041C553.924 202.856 553.061 203.315 552.161 203.316ZM406.179 80.6726C405.639 80.6734 405.121 80.9485 404.739 81.4377C404.358 81.9269 404.143 82.5902 404.142 83.282V198.967C404.143 199.659 404.358 200.322 404.739 200.812C405.121 201.301 405.639 201.576 406.179 201.577H552.161C552.701 201.576 553.219 201.301 553.601 200.812C553.983 200.322 554.198 199.659 554.198 198.967V83.282C554.198 82.5902 553.983 81.9269 553.601 81.4377C553.219 80.9485 552.701 80.6734 552.161 80.6726H406.179Z" fill="#3F3D56"/>
<path d="M523.304 117.569H435.036C434.226 117.569 433.449 117.156 432.876 116.422C432.303 115.688 431.981 114.692 431.981 113.654C431.981 112.616 432.303 111.621 432.876 110.887C433.449 110.153 434.226 109.74 435.036 109.74H523.304C524.115 109.74 524.892 110.153 525.465 110.887C526.038 111.621 526.36 112.616 526.36 113.654C526.36 114.692 526.038 115.688 525.465 116.422C524.892 117.156 524.115 117.569 523.304 117.569Z" fill="#CCCCCC"/>
<path d="M523.304 144.533H435.036C434.226 144.533 433.449 144.12 432.876 143.386C432.303 142.652 431.981 141.657 431.981 140.619C431.981 139.58 432.303 138.585 432.876 137.851C433.449 137.117 434.226 136.704 435.036 136.704H523.304C524.115 136.704 524.892 137.117 525.465 137.851C526.038 138.585 526.36 139.58 526.36 140.619C526.36 141.657 526.038 142.652 525.465 143.386C524.892 144.12 524.115 144.533 523.304 144.533Z" fill="#CCCCCC"/>
<path d="M515.441 187.285C521.471 187.285 526.36 181.022 526.36 173.297C526.36 165.572 521.471 159.309 515.441 159.309C509.41 159.309 504.521 165.572 504.521 173.297C504.521 181.022 509.41 187.285 515.441 187.285Z" fill="#6C63FF"/>
<path d="M515.741 166.707V165.375H516.049V166.707C516.484 166.732 516.912 166.866 517.308 167.102C517.595 167.275 517.842 167.539 518.026 167.869C518.197 168.175 518.288 168.541 518.287 168.917C518.293 169.191 518.221 169.459 518.085 169.671C518.026 169.767 517.95 169.845 517.864 169.898C517.778 169.951 517.684 169.979 517.588 169.978C517.517 169.979 517.446 169.962 517.38 169.928C517.315 169.893 517.255 169.841 517.205 169.776C517.154 169.711 517.113 169.633 517.086 169.547C517.059 169.461 517.046 169.369 517.048 169.276C517.048 169.147 517.069 169.018 517.109 168.899L517.233 168.566C517.276 168.427 517.297 168.278 517.294 168.128C517.298 167.895 517.24 167.668 517.13 167.483C517.01 167.289 516.848 167.145 516.665 167.067C516.465 166.983 516.258 166.93 516.049 166.909V171.705L516.117 171.757C516.76 172.194 517.345 172.759 517.849 173.432C518.072 173.77 518.249 174.154 518.372 174.568C518.495 174.968 518.559 175.395 518.56 175.826C518.566 176.383 518.452 176.932 518.232 177.413C518.016 177.882 517.701 178.262 517.322 178.509C516.922 178.76 516.491 178.92 516.049 178.982V180.411H515.741V179.008C515.294 179.004 514.852 178.888 514.44 178.666C514.029 178.471 513.666 178.138 513.39 177.702C513.146 177.311 513.014 176.826 513.017 176.325C513.008 175.974 513.092 175.63 513.256 175.348C513.321 175.226 513.408 175.126 513.509 175.057C513.61 174.988 513.723 174.95 513.838 174.949C513.907 174.946 513.975 174.961 514.04 174.993C514.104 175.026 514.162 175.074 514.211 175.137C514.259 175.199 514.298 175.274 514.323 175.356C514.348 175.438 514.36 175.526 514.358 175.614C514.335 175.884 514.246 176.138 514.105 176.34C514.031 176.465 513.968 176.6 513.917 176.742C513.881 176.853 513.864 176.972 513.865 177.092C513.866 177.412 513.952 177.722 514.108 177.971C514.279 178.251 514.504 178.467 514.762 178.597C515.056 178.744 515.37 178.815 515.686 178.807H515.741V173.081L515.35 172.792C514.981 172.517 514.699 172.289 514.505 172.108C514.316 171.932 514.14 171.732 513.982 171.512C513.588 170.975 513.37 170.266 513.372 169.53C513.371 169.072 513.46 168.621 513.633 168.22C513.802 167.819 514.049 167.482 514.351 167.242C514.772 166.917 515.25 166.733 515.741 166.707ZM515.741 166.9C515.475 166.911 515.214 166.985 514.971 167.119C514.727 167.274 514.527 167.521 514.398 167.828C514.251 168.161 514.176 168.539 514.18 168.922C514.177 169.389 514.289 169.845 514.5 170.225C514.612 170.433 514.746 170.618 514.899 170.777C515.146 171.013 515.404 171.229 515.672 171.424L515.741 171.477V166.9ZM516.049 178.789C516.225 178.77 516.399 178.723 516.566 178.649C516.702 178.582 516.829 178.487 516.941 178.368C517.152 178.138 517.316 177.844 517.418 177.514C517.537 177.148 517.597 176.756 517.595 176.361C517.568 175.725 517.411 175.111 517.139 174.578C516.868 174.046 516.492 173.614 516.049 173.327V178.789Z" fill="white"/>
<path d="M249.542 186.054C248.27 185.937 246.993 186.178 245.802 186.76C244.611 187.343 243.534 188.253 242.647 189.426C241.76 190.6 241.084 192.008 240.668 193.552C240.252 195.096 240.105 196.739 240.238 198.363L212.174 215.218L225.91 225.993L250.455 208.335C252.57 207.868 254.479 206.423 255.819 204.274C257.158 202.125 257.836 199.422 257.723 196.675C257.611 193.929 256.716 191.331 255.208 189.373C253.7 187.416 251.684 186.235 249.542 186.054Z" fill="#FFB6B6"/>
<path d="M133.41 510.337L143.102 510.336L147.713 462.444L133.408 462.445L133.41 510.337Z" fill="#FFB6B6"/>
<path d="M130.938 506.283L150.025 506.282H150.026C153.252 506.282 156.346 507.924 158.627 510.846C160.908 513.768 162.19 517.732 162.19 521.864V522.371L130.938 522.372L130.938 506.283Z" fill="#2F2E41"/>
<path d="M182.866 510.337L192.559 510.336L197.17 462.444L182.865 462.445L182.866 510.337Z" fill="#FFB6B6"/>
<path d="M180.394 506.283L199.482 506.282H199.483C202.709 506.282 205.803 507.924 208.084 510.846C210.365 513.768 211.647 517.732 211.647 521.864V522.371L180.395 522.372L180.394 506.283Z" fill="#2F2E41"/>
<path d="M189.341 261.937L194.26 275.504L203.129 396.839L196.235 501.128H180.111L161.085 336.744L152.148 497.342L130.392 496.217L126.215 278.482L189.341 261.937Z" fill="#2F2E41"/>
<path d="M110.947 149.967L131.342 139.337L160.129 141.405L185.722 153.353L194.26 275.504C171.995 291.079 149.442 295.33 126.496 284.193L105.201 204.633L110.947 149.967Z" fill="#E4E4E4"/>
<path d="M177.759 156.582L186.81 153.353C186.81 153.353 193.656 147.651 195.908 164.601C198.16 181.551 209.749 207.916 209.749 207.916L229.589 194.371L238.774 220.068L207.443 244.381L174.449 201.793L177.759 156.582Z" fill="#E4E4E4"/>
<path d="M128.115 116.706C127.015 113.511 126.418 110.07 126.357 106.58C126.296 103.089 126.772 99.6174 127.759 96.3627C128.745 93.1079 130.222 90.1339 132.106 87.6105C133.989 85.087 136.242 83.0636 138.736 81.6556C141.23 80.2476 143.916 79.4826 146.641 79.4044C149.366 79.3263 152.076 79.9364 154.617 81.1999C157.157 82.4634 159.479 84.3557 161.449 86.7686C163.419 89.1814 164.998 92.0677 166.097 95.2626L166.216 95.6143C168.4 102.088 168.486 109.408 166.457 115.964C165.452 119.21 163.958 122.171 162.06 124.677C160.162 127.184 157.897 129.187 155.395 130.572C150.342 133.37 144.627 133.481 139.51 130.881C134.392 128.282 130.29 123.184 128.107 116.71L128.115 116.706Z" fill="#FFB6B6"/>
<path d="M156.29 92.3733C160.606 93.3763 167.284 96.8567 170.99 92.7736C169.16 90.0338 166.858 87.8764 164.265 86.4717C163.754 86.2547 163.281 85.9123 162.873 85.4638C161.609 83.8279 162.585 81.0092 162.007 78.7975C161.726 77.9892 161.303 77.2756 160.77 76.7128C160.237 76.15 159.61 75.7534 158.937 75.5543C157.651 75.0612 156.303 74.9812 155.039 74.3833C152.048 72.9435 149.922 68.8232 146.857 67.7036C144.186 66.7139 141.499 68.252 139.194 70.0469C136.889 71.8417 134.609 73.9713 131.913 74.312C129.898 74.5474 128.622 78.7934 126.599 78.9178C122.36 79.182 122.595 75.6027 122.282 81.3077C122.101 84.7122 118.304 91.4849 118.365 94.9189C118.428 97.1691 118.117 99.3977 118.167 101.655C118.281 105.954 119.627 110.048 121.948 113.157C123.878 115.699 126.388 117.414 128.013 120.312C128.858 121.851 129.444 123.646 130.427 125.038C131.411 126.431 133.077 127.268 134.174 126.275C135.272 125.281 135.292 123.13 135.837 121.493C136.171 120.49 136.742 119.645 137.469 119.078C138.197 118.511 139.044 118.249 139.893 118.33C140.775 118.477 141.608 118.937 142.297 119.658C142.986 120.379 143.504 121.331 143.794 122.409C143.28 118.792 141.925 115.403 141.41 111.783C140.895 108.163 141.566 103.839 143.999 102.426C145.044 101.803 146.455 101.636 146.875 100.201C147.132 99.3365 146.897 98.3152 146.996 97.3804C147.531 92.7993 153.477 91.6659 156.29 92.3733Z" fill="#2F2E41"/>
<path d="M128.942 282.781C128.756 281.165 128.295 279.621 127.593 278.257C126.891 276.894 125.964 275.744 124.877 274.889C123.791 274.035 122.571 273.495 121.304 273.31C120.037 273.124 118.754 273.296 117.545 273.815L98.6166 242.372L93.3837 261.886L112.161 288.753C112.975 291.298 114.49 293.371 116.418 294.581C118.346 295.79 120.553 296.052 122.622 295.316C124.69 294.579 126.476 292.897 127.641 290.587C128.806 288.276 129.269 285.499 128.942 282.781Z" fill="#FFB6B6"/>
<path d="M117.485 155.898L110.947 149.967C110.947 149.967 95.9899 148.869 93.814 164.601L66.3883 222.397L100.393 282.494L116.879 260.262L96.0768 229.12L113.542 188.04L117.485 155.898Z" fill="#E4E4E4"/>
<path d="M276.769 165.056H276.426V153.019C276.426 152.104 276.285 151.198 276.012 150.353C275.739 149.508 275.338 148.74 274.833 148.093C274.328 147.446 273.728 146.933 273.069 146.582C272.409 146.232 271.702 146.052 270.988 146.052H251.081C250.366 146.052 249.659 146.232 249 146.582C248.34 146.933 247.74 147.446 247.235 148.093C246.73 148.74 246.33 149.508 246.056 150.353C245.783 151.198 245.642 152.104 245.642 153.019V219.054C245.642 219.969 245.783 220.875 246.056 221.72C246.33 222.565 246.73 223.333 247.235 223.98C247.74 224.627 248.34 225.14 249 225.49C249.659 225.84 250.366 226.02 251.081 226.02H270.988C271.702 226.02 272.409 225.84 273.069 225.49C273.728 225.14 274.328 224.627 274.833 223.98C275.338 223.333 275.739 222.565 276.012 221.72C276.285 220.875 276.426 219.969 276.426 219.054V173.624H276.769V165.056Z" fill="#3F3D56"/>
<path d="M271.207 147.865H268.608C268.728 148.24 268.774 148.647 268.741 149.05C268.709 149.454 268.6 149.84 268.423 150.177C268.247 150.513 268.008 150.789 267.729 150.98C267.45 151.17 267.138 151.27 266.822 151.27H255.418C255.101 151.27 254.79 151.17 254.51 150.98C254.231 150.789 253.993 150.513 253.816 150.177C253.64 149.84 253.531 149.454 253.498 149.05C253.466 148.647 253.512 148.24 253.631 147.865H251.204C250.127 147.865 249.094 148.413 248.332 149.388C247.571 150.364 247.143 151.687 247.143 153.067V219.005C247.143 220.385 247.571 221.708 248.332 222.684C249.094 223.66 250.127 224.208 251.204 224.208H271.207C272.284 224.208 273.317 223.66 274.079 222.684C274.84 221.708 275.268 220.385 275.268 219.005V153.067C275.268 151.687 274.84 150.364 274.079 149.388C273.317 148.413 272.284 147.865 271.207 147.865Z" fill="#6C63FF"/>
<path d="M450.768 124.383H304.786C303.886 124.382 303.023 123.923 302.386 123.108C301.75 122.293 301.392 121.187 301.391 120.034V4.34907C301.392 3.19603 301.75 2.09058 302.386 1.27526C303.023 0.459939 303.886 0.00131195 304.786 -7.62939e-06H450.768C451.668 0.00131195 452.531 0.459939 453.167 1.27526C453.804 2.09058 454.162 3.19603 454.163 4.34907V120.034C454.162 121.187 453.804 122.293 453.167 123.108C452.531 123.923 451.668 124.382 450.768 124.383Z" fill="white"/>
<path d="M450.768 124.383H304.786C303.886 124.382 303.023 123.923 302.386 123.108C301.75 122.293 301.392 121.187 301.391 120.034V4.34907C301.392 3.19603 301.75 2.09058 302.386 1.27526C303.023 0.459939 303.886 0.00131195 304.786 -7.62939e-06H450.768C451.668 0.00131195 452.531 0.459939 453.167 1.27526C453.804 2.09058 454.162 3.19603 454.163 4.34907V120.034C454.162 121.187 453.804 122.293 453.167 123.108C452.531 123.923 451.668 124.382 450.768 124.383ZM304.786 1.73962C304.246 1.74038 303.728 2.01555 303.346 2.50475C302.964 2.99395 302.749 3.65723 302.749 4.34907V120.034C302.749 120.726 302.964 121.389 303.346 121.879C303.728 122.368 304.246 122.643 304.786 122.644H450.768C451.308 122.643 451.826 122.368 452.207 121.879C452.589 121.389 452.804 120.726 452.805 120.034V4.34907C452.804 3.65723 452.589 2.99395 452.207 2.50475C451.826 2.01555 451.308 1.74038 450.768 1.73962H304.786Z" fill="#3F3D56"/>
<path d="M421.911 38.6356H333.643C332.832 38.6356 332.055 38.2232 331.482 37.4891C330.909 36.7551 330.587 35.7595 330.587 34.7214C330.587 33.6833 330.909 32.6877 331.482 31.9536C332.055 31.2196 332.832 30.8072 333.643 30.8072H421.911C422.721 30.8072 423.498 31.2196 424.071 31.9536C424.644 32.6877 424.966 33.6833 424.966 34.7214C424.966 35.7595 424.644 36.7551 424.071 37.4891C423.498 38.2232 422.721 38.6356 421.911 38.6356Z" fill="#CCCCCC"/>
<path d="M421.911 65.5998H333.643C332.832 65.5998 332.055 65.1874 331.482 64.4533C330.909 63.7193 330.587 62.7237 330.587 61.6856C330.587 60.6475 330.909 59.6519 331.482 58.9178C332.055 58.1838 332.832 57.7714 333.643 57.7714H421.911C422.721 57.7714 423.498 58.1838 424.071 58.9178C424.644 59.6519 424.966 60.6475 424.966 61.6856C424.966 62.7237 424.644 63.7193 424.071 64.4533C423.498 65.1874 422.721 65.5998 421.911 65.5998Z" fill="#CCCCCC"/>
<path d="M414.047 108.352C420.078 108.352 424.966 102.089 424.966 94.364C424.966 86.6385 420.078 80.3758 414.047 80.3758C408.016 80.3758 403.128 86.6385 403.128 94.364C403.128 102.089 408.016 108.352 414.047 108.352Z" fill="#6C63FF"/>
<path d="M414.347 87.7743V86.4416H414.655V87.7743C415.091 87.7986 415.519 87.9327 415.914 88.1689C416.201 88.3416 416.449 88.6058 416.633 88.9362C416.803 89.2419 416.894 89.6084 416.893 89.9838C416.899 90.2582 416.828 90.5263 416.691 90.7379C416.632 90.8342 416.557 90.912 416.471 90.9652C416.385 91.0184 416.29 91.0456 416.195 91.0447C416.124 91.0465 416.053 91.0295 415.987 90.9948C415.921 90.9601 415.861 90.9085 415.812 90.8431C415.76 90.778 415.72 90.7 415.692 90.6141C415.665 90.5281 415.652 90.436 415.654 90.3433C415.654 90.2136 415.675 90.0852 415.716 89.9663L415.839 89.6331C415.883 89.4939 415.904 89.3447 415.901 89.1947C415.904 88.9624 415.846 88.7354 415.736 88.5504C415.616 88.3565 415.454 88.2117 415.271 88.1338C415.071 88.0499 414.865 87.9969 414.655 87.9759V92.7719L414.723 92.8245C415.367 93.2607 415.951 93.8261 416.455 94.4991C416.678 94.8373 416.855 95.2211 416.979 95.6347C417.102 96.0355 417.165 96.4621 417.167 96.8927C417.172 97.4502 417.059 97.999 416.838 98.4797C416.623 98.9489 416.307 99.3292 415.928 99.5756C415.528 99.8267 415.098 99.9869 414.655 100.049V101.478H414.347V100.075C413.9 100.071 413.459 99.9547 413.047 99.7335C412.636 99.5376 412.273 99.2047 411.996 98.769C411.752 98.3784 411.621 97.8925 411.623 97.3925C411.614 97.0413 411.699 96.6967 411.863 96.4148C411.927 96.2932 412.014 96.1934 412.115 96.124C412.217 96.0546 412.329 96.0175 412.444 96.016C412.513 96.0129 412.582 96.0279 412.646 96.0602C412.71 96.0925 412.768 96.1414 412.817 96.2038C412.866 96.2661 412.904 96.3406 412.929 96.4227C412.955 96.5048 412.967 96.5927 412.965 96.6809C412.941 96.9508 412.853 97.2046 412.711 97.4069C412.638 97.5321 412.574 97.667 412.523 97.8094C412.488 97.9205 412.47 98.0394 412.472 98.1593C412.473 98.479 412.559 98.7888 412.715 99.0383C412.885 99.3177 413.111 99.5336 413.368 99.6636C413.663 99.8106 413.976 99.882 414.292 99.8738H414.347V94.1484L413.957 93.8591C413.587 93.5845 413.306 93.3565 413.112 93.1752C412.922 92.9992 412.747 92.7995 412.588 92.579C412.195 92.0425 411.977 91.3334 411.979 90.5975C411.977 90.1394 412.067 89.6882 412.239 89.2869C412.408 88.8864 412.656 88.5493 412.958 88.3091C413.378 87.9842 413.856 87.8003 414.347 87.7743ZM414.347 87.9672C414.082 87.9778 413.821 88.052 413.577 88.1861C413.333 88.3407 413.133 88.5883 413.005 88.8949C412.858 89.2284 412.783 89.6058 412.786 89.9886C412.784 90.4555 412.896 90.9117 413.107 91.2925C413.218 91.4997 413.353 91.6854 413.505 91.844C413.752 92.0802 414.011 92.2964 414.279 92.4914L414.347 92.544V87.9672ZM414.655 99.8562C414.831 99.8373 415.005 99.7902 415.173 99.7159C415.309 99.6486 415.435 99.5539 415.548 99.4354C415.759 99.2048 415.923 98.9113 416.025 98.5807C416.144 98.2155 416.204 97.8233 416.202 97.4276C416.175 96.7924 416.017 96.1777 415.746 95.6451C415.474 95.1126 415.098 94.6811 414.655 94.394V99.8562Z" fill="white"/>
<path d="M297.941 523H0.77995C0.573095 523 0.374711 522.895 0.228442 522.707C0.0821725 522.52 0 522.266 0 522.001C0 521.736 0.0821725 521.482 0.228442 521.294C0.374711 521.107 0.573095 521.002 0.77995 521.002H297.941C298.148 521.002 298.346 521.107 298.493 521.294C298.639 521.482 298.721 521.736 298.721 522.001C298.721 522.266 298.639 522.52 298.493 522.707C298.346 522.895 298.148 523 297.941 523Z" fill="#CACACA"/>
</g>
<defs>
<clipPath id="clip0_22_1322">
<rect width="655" height="523" fill="white"/>
</clipPath>
</defs>
</svg>
